<?xml version="1.0" encoding="UTF-8" standalone="no"?>
<!DOCTYPE svg PUBLIC "-//W3C//DTD SVG 1.1//EN" "http://www.w3.org/Graphics/SVG/1.1/DTD/svg11.dtd">
<svg width="100%" height="100%" viewBox="0 0 3943 1079" version="1.1" xmlns="http://www.w3.org/2000/svg" xmlns:xlink="http://www.w3.org/1999/xlink" xml:space="preserve" xmlns:serif="http://www.serif.com/" style="fill:#FF6B6B;fill-rule:evenodd;clip-rule:evenodd;stroke-linejoin:round;stroke-miterlimit:2;">
    <g transform="matrix(1,0,0,1,-608.18731,-3744.900095)">
        <g transform="matrix(4.698039,0,0,5.829091,0,0)">
            <g transform="matrix(1.320616,0,0,1.064369,823.213441,639.935232)">
                <path d="M32.109,80.925L109.066,81C109.082,81 109.051,81 109.066,81C109.703,81 110.066,81.536 110.066,82.178C110.066,82.82 109.703,83.5 109.066,83.5C109.05,83.5 109.082,83.5 109.066,83.5L32.109,83.25C32.093,83.25 32.078,83.25 32.063,83.249L32.042,83.25C31.405,83.25 30.888,82.729 30.888,82.087C30.888,81.446 31.405,80.925 32.042,80.925L32.109,80.925Z"/>
            </g>
            <g transform="matrix(0.212855,0,0,0.171553,80.033389,582.843084)">
                <g transform="matrix(1.223992,0,0,1.223992,231,544)">
                    <g id="Logotype">
                        <path d="M991.147,148.5C991.039,148.506 990.93,148.509 990.82,148.509C987.565,148.509 984.922,145.866 984.922,142.611C984.922,139.356 987.565,136.713 990.82,136.713C990.934,136.713 991.047,136.716 991.159,136.723C991.232,136.721 991.305,136.72 991.38,136.72L1009.96,136.72C1011.17,136.72 1011.77,136.116 1011.77,134.907L1011.77,74.129C1011.77,74.077 1011.771,74.026 1011.771,73.975C1011.766,73.859 1011.763,73.742 1011.763,73.624C1011.763,69.746 1014.912,66.597 1018.79,66.597C1022.669,66.597 1025.817,69.746 1025.817,73.624C1025.817,73.69 1025.816,73.756 1025.815,73.821C1025.818,73.922 1025.82,74.024 1025.82,74.129L1025.82,134.907C1025.82,136.116 1026.43,136.72 1027.63,136.72L1066.16,136.72C1066.259,136.715 1066.359,136.713 1066.46,136.713C1069.715,136.713 1072.358,139.356 1072.358,142.611C1072.358,145.866 1069.715,148.509 1066.46,148.509C1066.371,148.509 1066.282,148.507 1066.194,148.503C1066.183,148.503 1066.171,148.503 1066.16,148.503L1027.63,148.503C1026.43,148.503 1025.82,149.107 1025.82,150.316L1025.82,306.667C1025.82,323.284 1028.54,334.915 1033.98,341.562C1039.72,347.907 1048.63,351.079 1060.72,351.079L1065.54,351.079C1065.669,351.071 1065.799,351.067 1065.93,351.067C1069.435,351.067 1072.281,353.913 1072.281,357.418C1072.281,360.923 1069.435,363.769 1065.93,363.769C1065.886,363.769 1065.842,363.768 1065.797,363.767C1065.765,363.768 1065.733,363.768 1065.7,363.768L1058.9,363.768C1043.5,363.768 1031.71,359.841 1023.56,351.986C1015.7,343.828 1011.77,329.024 1011.77,307.573L1011.77,150.316C1011.77,149.107 1011.17,148.503 1009.96,148.503L991.38,148.503C991.301,148.503 991.224,148.502 991.147,148.5ZM835.003,143.852C834.997,143.731 834.994,143.609 834.994,143.487C834.994,139.749 838.029,136.714 841.767,136.714C845.457,136.714 848.461,139.67 848.539,143.341C848.573,143.627 848.59,143.931 848.59,144.252L848.59,163.005C848.59,163.912 848.892,164.365 849.496,164.365C850.1,164.365 850.553,163.912 850.855,163.005C855.69,153.639 862.336,146.388 870.796,141.252C879.558,136.116 889.377,133.548 900.253,133.548C918.079,133.548 931.976,139.59 941.947,151.675C951.917,163.761 956.902,180.529 956.902,201.98L956.902,356.995C956.902,356.999 956.902,357.237 956.902,357.237C956.902,357.463 956.882,357.681 956.843,357.891C956.405,361.206 953.564,363.768 950.129,363.768C946.833,363.768 944.084,361.41 943.479,358.29C943.367,357.962 943.306,357.611 943.306,357.237L943.306,203.792C943.306,185.665 939.228,171.616 931.07,161.646C923.215,151.373 911.885,146.237 897.081,146.237C882.277,146.237 870.494,151.675 861.732,162.552C852.97,173.429 848.59,188.384 848.59,207.418L848.59,357.237C848.59,357.591 848.535,357.909 848.434,358.195C847.867,361.362 845.096,363.768 841.767,363.768C838.313,363.768 835.459,361.177 835.045,357.833C835.012,357.647 834.994,357.448 834.994,357.237C834.994,357.237 834.994,356.999 834.994,356.995L834.994,144.252C834.994,144.116 834.997,143.982 835.003,143.852ZM1483.746,356.543C1483.742,356.443 1483.74,356.341 1483.74,356.237L1483.74,338.843C1483.74,337.937 1483.43,337.483 1482.83,337.483C1482.23,337.181 1481.77,337.483 1481.47,338.39C1475.73,348.058 1468.03,355.309 1458.36,360.143C1448.69,364.977 1437.96,367.394 1426.18,367.394C1410.47,367.394 1397.18,362.862 1386.3,353.798C1375.42,344.432 1369.99,326.786 1369.99,304.126C1369.99,279.956 1375.663,264.43 1388.653,252.648C1401.643,240.865 1419.84,234.156 1441.59,234.156L1481.92,234.156C1483.13,234.156 1483.74,233.552 1483.74,232.343L1483.74,207.418C1483.74,188.686 1479.66,173.731 1471.5,162.552C1463.34,151.373 1451.56,145.784 1436.15,145.784C1424.07,145.784 1413.49,149.561 1404.43,157.114C1395.36,164.365 1390.23,173.882 1389.02,185.665C1389.014,185.676 1389.008,185.688 1389.003,185.699C1388.806,189.3 1385.82,192.163 1382.17,192.163C1378.394,192.163 1375.327,189.097 1375.327,185.32C1375.327,184.859 1375.373,184.408 1375.46,183.973C1377.336,168.719 1383.963,156.443 1395.36,147.144C1407.15,137.778 1420.89,133.095 1436.6,133.095C1455.94,133.095 1470.9,139.893 1481.47,153.488C1492.04,167.084 1497.33,185.363 1497.33,208.324L1497.33,234.158L1668.799,234.158C1668.8,234.158 1669.099,234.158 1669.099,234.158L1669.099,234.165C1672.331,234.322 1674.906,236.995 1674.906,240.265C1674.906,243.535 1672.331,246.208 1669.099,246.365L1669.099,246.372C1669.099,246.372 1668.8,246.372 1668.799,246.372L1497.33,246.372L1497.33,356.237C1497.33,356.377 1497.327,356.513 1497.32,356.647C1497.325,356.754 1497.328,356.862 1497.328,356.97C1497.328,360.722 1494.282,363.768 1490.53,363.768C1486.778,363.768 1483.732,360.722 1483.732,356.97C1483.732,356.827 1483.737,356.684 1483.746,356.543ZM1427.99,354.705C1443.1,354.705 1456.09,349.871 1466.97,340.203C1478.15,330.535 1483.74,316.637 1483.74,298.509L1483.74,248.205C1483.74,246.997 1483.13,246.392 1481.92,246.392L1442.04,246.392C1424.22,246.392 1409.203,252.194 1398.623,262.165C1388.053,272.135 1383.58,284.337 1383.58,303.673C1383.58,320.29 1387.66,334.311 1395.82,342.469C1403.97,350.626 1414.7,354.705 1427.99,354.705ZM510.826,301.681L510.826,198.807C510.826,179.773 516.567,164.063 528.047,151.675C539.83,139.288 554.937,133.095 573.366,133.095C585.451,133.095 596.177,135.814 605.543,141.252C615.211,146.388 622.613,153.337 627.749,162.099C633.188,170.861 635.907,180.226 635.907,190.197L635.907,191.556C635.907,191.637 635.906,191.716 635.904,191.795C635.906,191.859 635.906,191.923 635.906,191.987C635.906,195.725 632.871,198.76 629.133,198.76C625.653,198.76 622.782,196.13 622.402,192.751C622.341,192.383 622.311,191.985 622.311,191.556L622.311,190.197C622.311,178.414 617.628,168.141 608.262,159.38C599.198,150.316 587.566,145.784 573.366,145.784C558.864,145.784 547.081,150.769 538.018,160.739C528.954,170.407 524.422,183.097 524.422,198.807L524.422,301.681C524.422,317.392 528.954,330.232 538.018,340.203C547.081,349.871 558.864,354.705 573.366,354.705C587.566,354.705 599.198,350.324 608.262,341.562C617.628,332.498 622.311,322.075 622.311,310.292L622.311,308.932C622.311,308.445 622.35,307.997 622.429,307.589C622.9,304.31 625.724,301.787 629.133,301.787C632.871,301.787 635.906,304.822 635.906,308.56C635.906,308.614 635.906,308.669 635.905,308.723C635.906,308.792 635.907,308.861 635.907,308.932L635.907,310.292C635.907,320.262 633.188,329.628 627.749,338.39C622.613,347.152 615.211,354.251 605.543,359.69C596.177,364.826 585.451,367.394 573.366,367.394C554.937,367.394 539.83,361.351 528.047,349.266C516.567,336.879 510.826,321.018 510.826,301.681ZM1319.683,356.846C1319.681,356.756 1319.68,356.665 1319.68,356.572L1319.68,7.197C1319.68,7.104 1319.681,7.012 1319.683,6.922C1319.683,6.881 1319.682,6.839 1319.682,6.798C1319.682,3.046 1322.728,0 1326.48,0C1330.232,0 1333.278,3.046 1333.278,6.798C1333.278,6.839 1333.278,6.881 1333.277,6.922C1333.279,7.012 1333.28,7.104 1333.28,7.197L1333.28,356.572C1333.28,356.665 1333.279,356.756 1333.277,356.847C1333.278,356.888 1333.278,356.929 1333.278,356.97C1333.278,360.722 1330.232,363.768 1326.48,363.768C1322.728,363.768 1319.682,360.722 1319.682,356.97C1319.682,356.929 1319.683,356.887 1319.683,356.846ZM1261.233,356.847C1261.231,356.756 1261.23,356.665 1261.23,356.572L1261.23,7.197C1261.23,7.104 1261.231,7.012 1261.233,6.922C1261.233,6.881 1261.232,6.839 1261.232,6.798C1261.232,3.046 1264.278,0 1268.03,0C1271.782,0 1274.828,3.046 1274.828,6.798C1274.828,6.839 1274.828,6.881 1274.827,6.922C1274.829,7.012 1274.83,7.104 1274.83,7.197L1274.83,356.572C1274.83,356.665 1274.829,356.756 1274.827,356.847C1274.828,356.888 1274.828,356.929 1274.828,356.97C1274.828,360.722 1271.782,363.768 1268.03,363.768C1264.278,363.768 1261.232,360.722 1261.232,356.97C1261.232,356.929 1261.233,356.888 1261.233,356.847ZM1220.368,319.271C1220.375,319.305 1220.376,319.339 1220.37,319.371C1217.48,333.541 1210.62,345.017 1199.79,353.798C1188.91,362.862 1175.62,367.394 1159.91,367.394C1141.48,367.394 1126.37,361.351 1114.59,349.266C1103.11,336.879 1097.37,321.018 1097.37,301.681L1097.37,198.807C1097.37,179.773 1103.11,164.063 1114.59,151.675C1126.37,139.288 1141.48,133.095 1159.91,133.095C1178.34,133.095 1193.29,139.288 1204.77,151.675C1216.56,164.063 1222.45,179.773 1222.45,198.807L1222.45,248.658C1222.45,251.679 1220.94,253.19 1217.92,253.19L1112.78,253.19C1111.57,253.19 1110.96,253.794 1110.96,255.003L1110.96,301.681C1110.96,317.392 1115.5,330.232 1124.56,340.203C1133.62,349.871 1145.41,354.705 1159.91,354.705C1171.69,354.705 1181.81,351.23 1190.27,344.281C1198.73,337.332 1204.32,328.118 1207.04,316.637C1207.073,316.539 1207.107,316.443 1207.141,316.349C1207.867,313.39 1210.539,311.193 1213.72,311.193C1217.458,311.193 1220.494,314.228 1220.494,317.966C1220.494,318.412 1220.45,318.849 1220.368,319.271ZM1159.91,145.784C1145.41,145.784 1133.62,150.769 1124.56,160.739C1115.5,170.407 1110.96,183.097 1110.96,198.807L1110.96,239.594C1110.96,240.803 1111.57,241.407 1112.78,241.407L1207.04,241.407C1208.25,241.407 1208.85,240.803 1208.85,239.594L1208.85,198.807C1208.85,183.097 1204.32,170.407 1195.26,160.739C1186.19,150.769 1174.41,145.784 1159.91,145.784ZM791.339,319.754C788.405,333.748 781.572,345.096 770.839,353.798C759.962,362.862 746.669,367.394 730.958,367.394C712.528,367.394 697.422,361.351 685.639,349.266C674.158,336.879 668.418,321.018 668.418,301.681L668.418,198.807C668.418,179.773 674.158,164.063 685.639,151.675C697.422,139.288 712.528,133.095 730.958,133.095C749.388,133.095 764.343,139.288 775.824,151.675C787.607,164.063 793.498,179.773 793.498,198.807L793.498,248.658C793.498,251.679 791.988,253.19 788.966,253.19L683.826,253.19C682.618,253.19 682.014,253.794 682.014,255.003L682.014,301.681C682.014,317.392 686.545,330.232 695.609,340.203C704.673,349.871 716.456,354.705 730.958,354.705C742.741,354.705 752.862,351.23 761.322,344.281C769.781,337.332 775.371,328.118 778.09,316.637C778.159,316.431 778.232,316.232 778.309,316.041C779.14,313.239 781.735,311.193 784.805,311.193C788.543,311.193 791.578,314.228 791.578,317.966C791.578,318.585 791.495,319.185 791.339,319.754ZM730.958,145.784C716.456,145.784 704.673,150.769 695.609,160.739C686.545,170.407 682.014,183.097 682.014,198.807L682.014,239.594C682.014,240.803 682.618,241.407 683.826,241.407L778.09,241.407C779.298,241.407 779.903,240.803 779.903,239.594L779.903,198.807C779.903,183.097 775.371,170.407 766.307,160.739C757.243,150.769 745.46,145.784 730.958,145.784Z"/>
                    </g>
                </g>
                <g transform="matrix(6.204304,0,0,6.204304,183.559332,336.999532)">
                    <path d="M58.858,79.024L47.099,58.702L47.076,58.661L47.065,58.643C46.912,58.376 46.87,58.058 46.949,57.76C47.028,57.462 47.221,57.207 47.485,57.053C48.036,56.732 48.741,56.924 49.059,57.481L49.07,57.499C49.078,57.512 49.086,57.526 49.093,57.539L60.668,77.541L60.668,34.431C60.668,33.688 61.264,33.085 61.998,33.085C62.733,33.085 63.328,33.688 63.329,34.431L63.329,77.562C63.329,77.562 106.218,1.698 106.226,1.685C106.226,1.701 108.955,1.735 108.911,1.728C108.904,1.742 108.919,1.715 108.911,1.728L65.412,78.572L106.333,54.694C106.346,54.686 106.36,54.678 106.373,54.671L106.391,54.66C106.943,54.339 107.649,54.529 107.966,55.084C108.284,55.64 108.094,56.352 107.543,56.673L107.524,56.684L107.484,56.708L65.981,80.925L109.066,81C109.082,81 109.051,81 109.066,81C109.703,81 110.066,81.858 110.066,82.5C110.066,83.142 109.703,83.5 109.066,83.5C109.05,83.5 109.082,83.5 109.066,83.5L66.088,83.25L100.551,103.352C100.564,103.36 100.578,103.368 100.591,103.376L100.609,103.387C101.161,103.708 101.35,104.42 101.033,104.976C100.715,105.531 100.009,105.721 99.458,105.4L99.44,105.389C99.426,105.382 99.412,105.374 99.399,105.366L65.239,85.441L85.224,120.16C85.232,120.174 85.239,120.187 85.247,120.201L85.257,120.219C85.41,120.486 85.452,120.804 85.373,121.102C85.294,121.401 85.102,121.655 84.837,121.809C84.286,122.13 83.582,121.938 83.263,121.381L83.253,121.363C83.245,121.35 83.237,121.336 83.229,121.322L63.329,86.75L63.329,144.436C63.328,145.179 62.733,145.781 61.998,145.782C61.264,145.781 60.668,145.179 60.668,144.436L60.668,86.835L7.838,175.592C7.83,175.605 7.928,171.305 7.928,171.305L59.104,84.922L24.111,105.251C24.098,105.259 24.084,105.267 24.071,105.274L24.053,105.285C23.501,105.606 22.795,105.416 22.477,104.861C22.16,104.305 22.349,103.593 22.901,103.271L22.919,103.261C22.932,103.253 22.946,103.245 22.959,103.237L57.363,83.25L32.109,83.25C32.093,83.25 32.078,83.25 32.063,83.249L32.042,83.25C31.405,83.25 30.888,82.729 30.888,82.087C30.888,81.446 31.405,80.925 32.042,80.925L57.513,80.925L15.944,56.626L15.904,56.602L15.885,56.592C15.334,56.27 15.144,55.558 15.462,55.003C15.779,54.447 16.485,54.257 17.037,54.578L17.055,54.589C17.068,54.597 17.082,54.604 17.095,54.612L58.858,79.024Z" style="fill-rule:nonzero;"/>
                </g>
            </g>
            <g transform="matrix(0.578454,0,0,0.251172,-448.270715,319.727533)">
                <path d="M1751.596,1489.93C1749.013,1489.93 1746.906,1488.416 1745.274,1485.388C1743.643,1482.36 1742.827,1478.448 1742.827,1473.654C1742.827,1469.112 1743.643,1465.327 1745.274,1462.299C1746.906,1459.271 1749.013,1457.757 1751.596,1457.757C1754.043,1457.757 1756.082,1459.271 1757.713,1462.299C1759.345,1465.327 1760.16,1469.112 1760.16,1473.654C1760.16,1478.448 1759.345,1482.36 1757.713,1485.388C1756.082,1488.416 1754.043,1489.93 1751.596,1489.93ZM1750.576,1721.952C1749.217,1721.952 1748.537,1720.69 1748.537,1718.167L1748.537,1536.107C1748.537,1533.584 1749.217,1532.322 1750.576,1532.322L1752.615,1532.322C1753.975,1532.322 1754.654,1533.584 1754.654,1536.107L1754.654,1718.167C1754.654,1720.69 1753.975,1721.952 1752.615,1721.952L1750.576,1721.952Z" style="fill-rule:nonzero;"/>
                <path d="M1811.344,1529.673C1819.364,1529.673 1825.618,1534.719 1830.104,1544.813C1834.59,1554.906 1836.833,1568.911 1836.833,1586.826L1836.833,1718.167C1836.833,1720.69 1836.153,1721.952 1834.794,1721.952L1832.755,1721.952C1831.395,1721.952 1830.716,1720.69 1830.716,1718.167L1830.716,1588.34C1830.716,1573.2 1828.914,1561.404 1825.312,1552.95C1821.709,1544.497 1816.577,1540.271 1809.916,1540.271C1803.255,1540.271 1797.953,1544.813 1794.011,1553.897C1790.068,1562.981 1788.097,1575.471 1788.097,1591.368L1788.097,1718.167C1788.097,1720.69 1787.417,1721.952 1786.058,1721.952L1784.019,1721.952C1782.659,1721.952 1781.979,1720.69 1781.979,1718.167L1781.979,1536.107C1781.979,1533.584 1782.659,1532.322 1784.019,1532.322L1786.058,1532.322C1787.417,1532.322 1788.097,1533.584 1788.097,1536.107L1788.097,1554.275C1788.097,1555.032 1788.233,1555.411 1788.505,1555.411C1788.777,1555.411 1788.981,1555.032 1789.117,1554.275C1791.292,1546.453 1794.316,1540.397 1798.191,1536.107C1802.065,1531.817 1806.449,1529.673 1811.344,1529.673Z" style="fill-rule:nonzero;"/>
                <path d="M1883.326,1723.466C1875.306,1723.466 1868.78,1719.113 1863.75,1710.408C1858.72,1701.702 1856.205,1690.788 1856.205,1677.667L1856.205,1675.775C1856.205,1673.251 1856.885,1671.989 1858.245,1671.989L1860.08,1671.989C1861.439,1671.989 1862.119,1673.251 1862.119,1675.775L1862.119,1677.289C1862.119,1687.634 1864.056,1696.277 1867.931,1703.216C1871.805,1710.155 1877.005,1713.625 1883.53,1713.625C1889.648,1713.625 1894.576,1710.092 1898.314,1703.027C1902.053,1695.961 1903.922,1686.625 1903.922,1675.018C1903.922,1666.69 1902.902,1659.877 1900.863,1654.578C1898.824,1649.279 1896.343,1645.053 1893.42,1641.899C1890.498,1638.744 1886.453,1635.149 1881.287,1631.111C1875.849,1626.822 1871.499,1622.91 1868.237,1619.378C1864.974,1615.845 1862.221,1610.798 1859.978,1604.238C1857.735,1597.677 1856.613,1589.35 1856.613,1579.256C1856.613,1564.621 1859.026,1552.887 1863.852,1544.056C1868.678,1535.224 1875.102,1530.808 1883.122,1530.808C1891.007,1530.808 1897.363,1535.287 1902.189,1544.245C1907.015,1553.203 1909.428,1564.747 1909.428,1578.878L1909.428,1580.013C1909.428,1582.537 1908.748,1583.798 1907.389,1583.798L1905.757,1583.798C1904.398,1583.798 1903.718,1582.537 1903.718,1580.013L1903.718,1578.878C1903.718,1568.027 1901.781,1559.006 1897.907,1551.815C1894.032,1544.623 1889.036,1541.028 1882.919,1541.028C1876.801,1541.028 1871.907,1544.56 1868.237,1551.626C1864.566,1558.691 1862.731,1567.901 1862.731,1579.256C1862.731,1586.826 1863.648,1593.198 1865.484,1598.371C1867.319,1603.544 1869.63,1607.644 1872.417,1610.672C1875.204,1613.7 1878.976,1617.107 1883.734,1620.892C1889.58,1625.434 1894.202,1629.534 1897.601,1633.193C1900.999,1636.852 1903.922,1642.088 1906.369,1648.901C1908.816,1655.714 1910.04,1664.419 1910.04,1675.018C1910.04,1689.653 1907.593,1701.387 1902.699,1710.218C1897.805,1719.05 1891.347,1723.466 1883.326,1723.466Z" style="fill-rule:nonzero;"/>
                <path d="M1956.941,1538.378C1956.941,1540.901 1956.261,1542.163 1954.901,1542.163L1937.568,1542.163C1937.025,1542.163 1936.753,1542.668 1936.753,1543.677L1936.753,1674.261C1936.753,1688.139 1938.01,1697.791 1940.525,1703.216C1943.04,1708.641 1947.017,1711.354 1952.454,1711.354L1954.698,1711.354C1956.057,1711.354 1956.737,1712.615 1956.737,1715.139L1956.737,1718.167C1956.737,1720.69 1956.057,1721.952 1954.698,1721.952L1951.639,1721.952C1944.706,1721.952 1939.438,1718.608 1935.835,1711.922C1932.233,1705.235 1930.431,1692.933 1930.431,1675.018L1930.431,1543.677C1930.431,1542.668 1930.159,1542.163 1929.616,1542.163L1921.255,1542.163C1919.896,1542.163 1919.216,1540.901 1919.216,1538.378L1919.216,1536.107C1919.216,1533.584 1919.896,1532.322 1921.255,1532.322L1929.616,1532.322C1930.159,1532.322 1930.431,1531.817 1930.431,1530.808L1930.431,1488.416C1930.431,1485.892 1931.111,1484.631 1932.471,1484.631L1934.714,1484.631C1936.073,1484.631 1936.753,1485.892 1936.753,1488.416L1936.753,1530.808C1936.753,1531.817 1937.025,1532.322 1937.568,1532.322L1954.901,1532.322C1956.261,1532.322 1956.941,1533.584 1956.941,1536.107L1956.941,1538.378Z" style="fill-rule:nonzero;"/>
                <path d="M1979.372,1489.93C1976.789,1489.93 1974.681,1488.416 1973.05,1485.388C1971.419,1482.36 1970.603,1478.448 1970.603,1473.654C1970.603,1469.112 1971.419,1465.327 1973.05,1462.299C1974.681,1459.271 1976.789,1457.757 1979.372,1457.757C1981.819,1457.757 1983.858,1459.271 1985.489,1462.299C1987.12,1465.327 1987.936,1469.112 1987.936,1473.654C1987.936,1478.448 1987.12,1482.36 1985.489,1485.388C1983.858,1488.416 1981.819,1489.93 1979.372,1489.93ZM1978.352,1721.952C1976.993,1721.952 1976.313,1720.69 1976.313,1718.167L1976.313,1536.107C1976.313,1533.584 1976.993,1532.322 1978.352,1532.322L1980.391,1532.322C1981.751,1532.322 1982.43,1533.584 1982.43,1536.107L1982.43,1718.167C1982.43,1720.69 1981.751,1721.952 1980.391,1721.952L1978.352,1721.952Z" style="fill-rule:nonzero;"/>
                <path d="M2039.323,1538.378C2039.323,1540.901 2038.644,1542.163 2037.284,1542.163L2019.951,1542.163C2019.407,1542.163 2019.136,1542.668 2019.136,1543.677L2019.136,1674.261C2019.136,1688.139 2020.393,1697.791 2022.908,1703.216C2025.423,1708.641 2029.399,1711.354 2034.837,1711.354L2037.08,1711.354C2038.44,1711.354 2039.119,1712.615 2039.119,1715.139L2039.119,1718.167C2039.119,1720.69 2038.44,1721.952 2037.08,1721.952L2034.021,1721.952C2027.088,1721.952 2021.82,1718.608 2018.218,1711.922C2014.615,1705.235 2012.814,1692.933 2012.814,1675.018L2012.814,1543.677C2012.814,1542.668 2012.542,1542.163 2011.998,1542.163L2003.638,1542.163C2002.278,1542.163 2001.599,1540.901 2001.599,1538.378L2001.599,1536.107C2001.599,1533.584 2002.278,1532.322 2003.638,1532.322L2011.998,1532.322C2012.542,1532.322 2012.814,1531.817 2012.814,1530.808L2012.814,1488.416C2012.814,1485.892 2013.494,1484.631 2014.853,1484.631L2017.096,1484.631C2018.456,1484.631 2019.136,1485.892 2019.136,1488.416L2019.136,1530.808C2019.136,1531.817 2019.407,1532.322 2019.951,1532.322L2037.284,1532.322C2038.644,1532.322 2039.323,1533.584 2039.323,1536.107L2039.323,1538.378Z" style="fill-rule:nonzero;"/>
                <path d="M2103.557,1536.107C2103.557,1533.584 2104.237,1532.322 2105.597,1532.322L2107.636,1532.322C2108.995,1532.322 2109.675,1533.584 2109.675,1536.107L2109.675,1718.167C2109.675,1720.69 2108.995,1721.952 2107.636,1721.952L2105.597,1721.952C2104.237,1721.952 2103.557,1720.69 2103.557,1718.167L2103.557,1703.027C2103.557,1702.27 2103.421,1701.828 2103.15,1701.702C2102.878,1701.576 2102.674,1701.891 2102.538,1702.648C2098.323,1717.284 2091.186,1724.601 2081.126,1724.601C2072.97,1724.601 2066.58,1719.996 2061.958,1710.786C2057.336,1701.576 2055.025,1687.887 2055.025,1669.718L2055.025,1536.107C2055.025,1533.584 2055.705,1532.322 2057.064,1532.322L2059.103,1532.322C2060.463,1532.322 2061.143,1533.584 2061.143,1536.107L2061.143,1667.069C2061.143,1682.714 2062.944,1694.447 2066.546,1702.27C2070.149,1710.092 2075.281,1714.003 2081.942,1714.003C2088.603,1714.003 2093.871,1709.461 2097.746,1700.377C2101.62,1691.293 2103.557,1678.803 2103.557,1662.905L2103.557,1536.107Z" style="fill-rule:nonzero;"/>
                <path d="M2164.529,1538.378C2164.529,1540.901 2163.849,1542.163 2162.49,1542.163L2145.157,1542.163C2144.613,1542.163 2144.341,1542.668 2144.341,1543.677L2144.341,1674.261C2144.341,1688.139 2145.598,1697.791 2148.113,1703.216C2150.628,1708.641 2154.605,1711.354 2160.043,1711.354L2162.286,1711.354C2163.645,1711.354 2164.325,1712.615 2164.325,1715.139L2164.325,1718.167C2164.325,1720.69 2163.645,1721.952 2162.286,1721.952L2159.227,1721.952C2152.294,1721.952 2147.026,1718.608 2143.423,1711.922C2139.821,1705.235 2138.019,1692.933 2138.019,1675.018L2138.019,1543.677C2138.019,1542.668 2137.748,1542.163 2137.204,1542.163L2128.843,1542.163C2127.484,1542.163 2126.804,1540.901 2126.804,1538.378L2126.804,1536.107C2126.804,1533.584 2127.484,1532.322 2128.843,1532.322L2137.204,1532.322C2137.748,1532.322 2138.019,1531.817 2138.019,1530.808L2138.019,1488.416C2138.019,1485.892 2138.699,1484.631 2140.059,1484.631L2142.302,1484.631C2143.661,1484.631 2144.341,1485.892 2144.341,1488.416L2144.341,1530.808C2144.341,1531.817 2144.613,1532.322 2145.157,1532.322L2162.49,1532.322C2163.849,1532.322 2164.529,1533.584 2164.529,1536.107L2164.529,1538.378Z" style="fill-rule:nonzero;"/>
                <path d="M2235.084,1625.812C2235.084,1628.336 2234.404,1629.597 2233.045,1629.597L2185.736,1629.597C2185.192,1629.597 2184.92,1630.102 2184.92,1631.111L2184.92,1670.097C2184.92,1683.218 2186.96,1693.88 2191.038,1702.08C2195.116,1710.281 2200.418,1714.382 2206.944,1714.382C2212.245,1714.382 2216.8,1711.48 2220.606,1705.676C2224.413,1699.873 2226.927,1692.176 2228.151,1682.588C2228.559,1680.317 2229.307,1679.181 2230.394,1679.181L2232.433,1679.181C2233.113,1679.181 2233.623,1679.623 2233.963,1680.506C2234.303,1681.389 2234.404,1682.461 2234.269,1683.723C2233.045,1696.087 2229.952,1706.055 2224.99,1713.625C2220.028,1721.195 2214.013,1724.98 2206.944,1724.98C2198.651,1724.98 2191.888,1719.87 2186.654,1709.651C2181.42,1699.431 2178.803,1686.246 2178.803,1670.097L2178.803,1584.177C2178.803,1568.28 2181.42,1555.158 2186.654,1544.813C2191.888,1534.467 2198.651,1529.294 2206.944,1529.294C2215.236,1529.294 2221.999,1534.467 2227.233,1544.813C2232.467,1555.158 2235.084,1568.28 2235.084,1584.177L2235.084,1625.812ZM2206.944,1539.892C2200.418,1539.892 2195.116,1543.993 2191.038,1552.193C2186.96,1560.394 2184.92,1571.055 2184.92,1584.177L2184.92,1618.242C2184.92,1619.251 2185.192,1619.756 2185.736,1619.756L2228.151,1619.756C2228.695,1619.756 2228.967,1619.251 2228.967,1618.242L2228.967,1584.177C2228.967,1571.055 2226.927,1560.394 2222.849,1552.193C2218.771,1543.993 2213.469,1539.892 2206.944,1539.892Z" style="fill-rule:nonzero;"/>
            </g>
        </g>
    </g>
</svg>
