<svg viewBox="0 0 150 150" xmlns="http://www.w3.org/2000/svg" width="150" height="150" fill="none"><path d="M 139.362 48.211 L 123.612 25.681 C 124.96 21.38 124.245 16.687 121.65 12.972 C 118.128 7.939 111.782 5.642 105.86 7.265 C 105.397 7.394 105.022 7.74 104.858 8.191 C 104.694 8.642 104.758 9.152 105.039 9.545 L 111.039 18.129 C 111.485 18.762 111.655 19.535 111.514 20.309 C 111.379 21.082 110.951 21.75 110.319 22.189 C 109 23.109 107.178 22.787 106.258 21.469 L 100.258 12.885 C 99.983 12.492 99.532 12.252 99.045 12.252 L 99.039 12.252 C 98.559 12.252 98.108 12.486 97.832 12.879 C 94.276 17.889 94.252 24.633 97.768 29.671 C 100.364 33.386 104.53 35.665 109.03 35.876 L 118.756 49.786 L 105.607 59.255 L 87.355 59.255 C 89.956 57.011 91.615 53.695 91.615 49.992 C 91.615 43.247 86.13 37.763 79.386 37.763 C 72.642 37.763 67.158 43.247 67.158 49.992 C 67.158 53.689 68.81 57.011 71.417 59.255 L 53.165 59.255 L 50.681 57.468 C 51.097 57.187 51.507 56.9 51.905 56.601 C 53.757 55.195 54.278 52.704 53.153 50.671 C 52.315 49.159 52.35 47.308 53.235 45.831 C 54.126 44.355 55.749 43.464 57.477 43.493 C 59.809 43.529 61.761 41.911 62.136 39.62 C 62.552 37.077 62.599 34.493 62.27 31.927 C 61.977 29.63 60.085 27.931 57.765 27.89 C 56.042 27.861 54.448 26.906 53.616 25.394 C 52.784 23.888 52.819 22.031 53.71 20.554 C 54.911 18.568 54.477 16.054 52.679 14.583 C 51.688 13.775 50.628 13.03 49.532 12.368 C 48.431 11.706 47.276 11.114 46.098 10.622 C 43.96 9.72 41.534 10.511 40.339 12.503 C 39.448 13.985 37.831 14.888 36.102 14.853 C 34.38 14.823 32.792 13.862 31.96 12.351 C 30.841 10.317 28.45 9.439 26.282 10.253 C 23.862 11.161 21.594 12.415 19.544 13.968 C 17.692 15.374 17.165 17.864 18.296 19.898 C 19.134 21.409 19.104 23.261 18.214 24.738 C 17.323 26.214 15.706 27.099 13.971 27.075 C 11.634 27.029 9.688 28.657 9.313 30.948 C 8.897 33.491 8.85 36.075 9.178 38.642 C 9.471 40.939 11.364 42.638 13.684 42.679 C 15.407 42.708 17.001 43.663 17.833 45.175 C 18.665 46.681 18.63 48.538 17.739 50.015 C 16.538 52.001 16.971 54.515 18.77 55.986 C 19.76 56.794 20.821 57.538 21.917 58.201 C 23.018 58.863 24.173 59.454 25.35 59.947 C 25.948 60.199 26.563 60.316 27.167 60.316 C 28.151 60.316 29.106 59.999 29.891 59.413 C 30.167 59.695 30.466 59.958 30.788 60.193 L 46.889 71.794 C 48.12 72.679 49.579 73.124 51.096 73.089 L 62.991 73.089 L 62.991 134.313 C 62.991 139.241 66.998 143.248 71.926 143.248 C 75.032 143.248 77.774 141.655 79.379 139.241 C 80.979 141.655 83.721 143.248 86.832 143.248 C 91.76 143.248 95.768 139.241 95.768 134.313 L 95.774 73.089 L 107.668 73.089 C 109.192 73.124 110.645 72.679 111.875 71.794 L 127.198 60.755 C 128.75 61.804 130.379 62.249 131.95 62.249 C 134.282 62.249 136.467 61.277 138.02 59.87 C 140.821 57.339 142.438 52.611 139.362 48.21 Z M 70.122 49.992 C 70.122 44.883 74.277 40.729 79.386 40.729 C 84.495 40.729 88.65 44.883 88.65 49.992 C 88.65 55.102 84.495 59.256 79.386 59.256 C 74.277 59.256 70.122 55.102 70.122 49.992 Z M 26.505 57.211 C 25.462 56.772 24.431 56.244 23.452 55.659 C 22.474 55.067 21.53 54.405 20.652 53.684 C 20.007 53.157 19.849 52.26 20.282 51.545 C 21.724 49.161 21.782 46.172 20.435 43.735 C 19.087 41.303 16.526 39.756 13.743 39.709 C 12.911 39.698 12.237 39.088 12.132 38.262 C 11.845 35.983 11.88 33.68 12.255 31.424 C 12.39 30.604 13.075 30.018 13.925 30.036 C 16.72 30.1 19.333 28.647 20.769 26.262 C 22.204 23.877 22.257 20.883 20.903 18.452 C 20.499 17.725 20.687 16.829 21.349 16.331 C 23.171 14.948 25.187 13.834 27.343 13.026 C 28.116 12.733 28.972 13.049 29.376 13.776 C 30.718 16.213 33.284 17.76 36.062 17.813 C 38.839 17.866 41.464 16.413 42.894 14.028 C 43.321 13.313 44.188 13.032 44.956 13.354 C 46.005 13.793 47.03 14.321 48.009 14.907 C 48.987 15.498 49.931 16.161 50.81 16.881 C 51.454 17.409 51.606 18.305 51.179 19.02 C 49.737 21.405 49.679 24.393 51.026 26.83 C 52.374 29.262 54.935 30.809 57.718 30.856 C 58.55 30.868 59.224 31.477 59.329 32.303 C 59.622 34.582 59.581 36.885 59.206 39.141 C 59.071 39.95 58.392 40.53 57.571 40.53 L 57.536 40.53 C 54.759 40.477 52.128 41.918 50.692 44.303 C 49.257 46.688 49.204 49.682 50.558 52.114 C 50.962 52.84 50.774 53.737 50.112 54.235 C 49.468 54.721 48.788 55.184 48.097 55.606 L 38.886 48.967 C 35.792 46.741 31.462 47.444 29.229 50.537 C 28.151 52.032 27.724 53.86 28.022 55.688 C 28.087 56.086 28.192 56.479 28.321 56.854 C 27.847 57.323 27.144 57.481 26.505 57.211 Z M 110.136 69.387 C 109.433 69.897 108.601 70.149 107.728 70.125 L 94.287 70.125 C 93.466 70.125 92.804 70.787 92.804 71.608 L 92.804 134.315 C 92.804 137.608 90.127 140.286 86.834 140.286 C 83.541 140.286 80.863 137.608 80.863 134.315 L 80.869 108.4 C 80.869 107.58 80.207 106.918 79.386 106.918 C 78.566 106.918 77.904 107.58 77.904 108.4 L 77.904 134.315 C 77.904 137.608 75.226 140.286 71.933 140.286 C 68.64 140.286 65.962 137.608 65.962 134.315 L 65.962 71.608 C 65.962 70.787 65.3 70.125 64.48 70.125 L 51.045 70.125 C 50.178 70.155 49.34 69.897 48.637 69.387 L 32.536 57.786 C 31.686 57.17 31.123 56.256 30.954 55.213 C 30.784 54.17 31.03 53.122 31.639 52.272 C 32.911 50.502 35.383 50.104 37.153 51.375 L 51.825 61.946 C 52.077 62.127 52.382 62.227 52.692 62.227 L 106.1 62.227 C 106.411 62.227 106.715 62.127 106.967 61.946 L 121.64 51.375 C 123.403 50.104 125.882 50.502 127.153 52.272 C 128.425 54.041 128.026 56.514 126.257 57.786 Z M 136.029 57.668 C 134.394 59.145 131.88 59.889 129.501 58.682 C 131.23 56.326 131.341 53.033 129.542 50.537 C 127.626 47.877 124.164 46.987 121.263 48.2 L 111.027 33.557 C 110.751 33.159 110.294 32.924 109.808 32.924 L 109.714 32.924 C 105.917 32.924 102.367 31.078 100.193 27.967 C 97.814 24.563 97.468 20.18 99.15 16.495 L 103.82 23.174 C 105.677 25.834 109.357 26.485 112.011 24.627 C 113.294 23.731 114.156 22.383 114.431 20.831 C 114.706 19.278 114.361 17.719 113.464 16.436 L 108.794 9.756 C 112.831 9.44 116.833 11.274 119.212 14.678 C 121.398 17.807 121.907 21.815 120.566 25.401 C 120.396 25.858 120.46 26.368 120.742 26.772 L 136.925 49.923 C 139.128 53.058 137.816 56.052 136.029 57.669 Z M 30.519 43.916 C 32.142 44.894 33.935 45.363 35.704 45.363 C 39.126 45.363 42.466 43.623 44.359 40.482 C 45.747 38.173 46.157 35.466 45.507 32.847 C 44.857 30.234 43.228 28.025 40.925 26.636 C 36.161 23.765 29.95 25.306 27.079 30.07 C 24.213 34.839 25.754 41.05 30.518 43.916 Z M 29.628 31.605 C 30.964 29.39 33.319 28.16 35.739 28.16 C 36.988 28.16 38.253 28.488 39.402 29.18 C 42.765 31.207 43.849 35.59 41.827 38.947 C 39.8 42.31 35.417 43.394 32.054 41.373 C 28.69 39.351 27.601 34.969 29.628 31.605 Z" fill="currentColor"></path></svg>