<svg viewBox="0 0 150 150" xmlns="http://www.w3.org/2000/svg" width="150" height="150" fill="none"><g transform="translate(3 3)"><path d="M 44.148 58.197 L 32.124 58.197 C 31.157 58.197 30.38 58.98 30.38 59.94 L 30.38 71.962 C 30.38 72.922 31.157 73.705 32.124 73.705 L 44.148 73.705 C 45.115 73.705 45.892 72.922 45.892 71.962 L 45.892 59.94 C 45.892 58.98 45.115 58.197 44.148 58.197 Z M 42.404 70.218 L 33.868 70.218 L 33.868 61.684 L 42.404 61.684 Z M 78.216 118.316 L 53.801 118.316 C 52.833 118.316 52.057 119.1 52.057 120.06 C 52.057 121.02 52.833 121.804 53.801 121.804 L 78.216 121.804 C 79.184 121.804 79.96 121.02 79.96 120.06 C 79.96 119.1 79.184 118.316 78.216 118.316 Z" fill="currentColor"></path><path d="M 115.068 87.15 C 113.937 87.15 112.807 87.246 111.682 87.382 L 111.682 67.284 L 111.948 67.032 C 112.074 66.913 112.179 66.775 112.261 66.623 C 112.268 66.61 112.289 66.596 112.296 66.582 L 140.035 14.424 L 140.035 14.417 L 142.12 10.521 C 142.665 9.513 142.957 8.349 142.957 7.157 C 142.957 4.507 141.506 2.089 139.17 0.836 C 137.48 -0.056 135.553 -0.24 133.734 0.312 C 131.908 0.87 130.416 2.103 129.523 3.785 L 127.432 7.708 L 127.432 7.715 L 111.675 37.336 L 111.675 22.706 C 111.675 17.897 107.765 13.988 102.955 13.988 L 16.636 13.981 C 11.826 13.981 7.916 17.89 7.916 22.699 L 7.916 23.06 L 5.3 23.06 C 3.89 23.06 2.561 23.612 1.553 24.62 C 0.552 25.621 0 26.956 0 28.359 C 0 31.281 2.378 33.658 5.3 33.658 L 7.916 33.658 L 7.916 43.111 L 5.3 43.111 C 3.89 43.111 2.561 43.663 1.553 44.671 C 0.552 45.672 0 47.007 0 48.41 C 0 51.332 2.378 53.709 5.3 53.709 L 7.916 53.709 L 7.916 63.163 L 5.3 63.163 C 3.89 63.163 2.561 63.714 1.553 64.722 C 0.552 65.723 0 67.058 0 68.461 C 0 71.383 2.378 73.76 5.3 73.76 L 7.916 73.76 L 7.916 83.214 L 5.3 83.214 C 3.89 83.214 2.561 83.766 1.553 84.774 C 0.552 85.775 0 87.11 0 88.513 C 0 91.435 2.378 93.812 5.3 93.812 L 7.916 93.812 L 7.916 103.265 L 5.3 103.265 C 3.89 103.265 2.561 103.817 1.553 104.825 C 0.552 105.826 0 107.161 0 108.564 C 0 111.486 2.378 113.863 5.3 113.863 L 7.916 113.863 L 7.916 123.316 L 5.3 123.316 C 3.89 123.316 2.561 123.868 1.553 124.876 C 0.552 125.877 0 127.212 0 128.615 C 0 131.537 2.378 133.914 5.3 133.914 L 7.916 133.914 L 7.916 134.282 C 7.916 139.091 11.826 143 16.636 143 L 102.963 143 C 104.475 143 105.933 142.591 107.234 141.849 C 109.775 142.598 112.405 143 115.062 143 C 130.464 143 143 130.468 143 115.067 C 143 99.667 130.465 87.135 115.062 87.135 Z M 101.144 72.337 L 102.574 63.367 L 107.786 66.146 Z M 110.041 63.394 L 106.601 61.562 L 103.603 59.961 L 107.52 52.592 L 111.485 45.148 C 111.485 45.148 111.485 45.141 111.492 45.141 L 129.715 10.888 L 136.159 14.307 L 110.046 63.392 Z M 134.77 3.648 C 135.704 3.362 136.691 3.457 137.55 3.914 C 138.749 4.554 139.484 5.794 139.484 7.149 C 139.484 7.769 139.348 8.334 139.062 8.852 L 137.788 11.222 L 131.344 7.796 L 132.618 5.412 C 133.074 4.554 133.837 3.92 134.764 3.635 Z M 3.49 28.365 C 3.49 27.888 3.681 27.432 4.028 27.085 C 4.375 26.737 4.832 26.546 5.309 26.546 L 9.648 26.546 C 9.648 26.546 9.662 26.553 9.669 26.553 L 14.029 26.553 C 15.01 26.553 15.841 27.384 15.841 28.365 C 15.841 28.842 15.65 29.298 15.309 29.639 C 14.962 29.986 14.505 30.177 14.029 30.177 L 5.309 30.177 C 4.328 30.177 3.497 29.346 3.497 28.365 Z M 3.49 48.417 C 3.49 47.94 3.681 47.483 4.028 47.136 C 4.375 46.789 4.832 46.598 5.309 46.598 L 9.648 46.598 C 9.648 46.598 9.662 46.605 9.669 46.605 L 14.029 46.605 C 15.01 46.605 15.841 47.436 15.841 48.417 C 15.841 48.893 15.65 49.35 15.309 49.69 C 14.962 50.037 14.505 50.228 14.029 50.228 L 5.309 50.228 C 4.328 50.228 3.497 49.397 3.497 48.417 Z M 3.49 68.468 C 3.49 67.991 3.681 67.535 4.028 67.187 C 4.375 66.84 4.832 66.649 5.309 66.649 L 9.648 66.649 C 9.648 66.649 9.662 66.656 9.669 66.656 L 14.029 66.656 C 15.01 66.656 15.841 67.487 15.841 68.468 C 15.841 68.945 15.65 69.401 15.309 69.742 C 14.962 70.089 14.505 70.28 14.029 70.28 L 5.309 70.28 C 4.328 70.28 3.497 69.449 3.497 68.468 Z M 3.49 88.519 C 3.49 88.043 3.681 87.586 4.028 87.239 C 4.375 86.891 4.832 86.701 5.309 86.701 L 9.648 86.701 C 9.648 86.701 9.662 86.708 9.669 86.708 L 14.029 86.708 C 15.01 86.708 15.841 87.539 15.841 88.52 C 15.841 88.996 15.65 89.452 15.309 89.793 C 14.962 90.14 14.505 90.331 14.029 90.331 L 5.309 90.331 C 4.328 90.331 3.497 89.5 3.497 88.519 Z M 3.49 108.571 C 3.49 108.094 3.681 107.638 4.028 107.29 C 4.375 106.943 4.832 106.752 5.309 106.752 L 9.648 106.752 C 9.648 106.752 9.662 106.759 9.669 106.759 L 14.029 106.759 C 15.01 106.759 15.841 107.59 15.841 108.571 C 15.841 109.048 15.65 109.504 15.309 109.845 C 14.962 110.192 14.505 110.383 14.029 110.383 L 5.309 110.383 C 4.328 110.383 3.497 109.552 3.497 108.571 Z M 3.49 128.622 C 3.49 128.146 3.681 127.689 4.028 127.342 C 4.375 126.994 4.832 126.804 5.309 126.804 L 9.648 126.804 C 9.648 126.804 9.662 126.811 9.669 126.811 L 14.029 126.811 C 15.01 126.811 15.841 127.642 15.841 128.622 C 15.841 129.099 15.65 129.555 15.309 129.896 C 14.962 130.243 14.505 130.434 14.029 130.434 L 5.309 130.434 C 4.328 130.434 3.497 129.603 3.497 128.622 Z M 16.638 139.527 C 13.756 139.527 11.406 137.177 11.406 134.296 L 11.406 133.928 L 14.022 133.928 C 15.432 133.928 16.76 133.376 17.769 132.368 C 18.77 131.367 19.322 130.032 19.322 128.629 C 19.322 125.707 16.944 123.33 14.022 123.33 L 11.406 123.33 L 11.406 113.883 L 14.022 113.883 C 15.432 113.883 16.76 113.332 17.769 112.324 C 18.77 111.323 19.322 109.988 19.322 108.585 C 19.322 105.663 16.944 103.286 14.022 103.286 L 11.406 103.286 L 11.406 93.839 L 14.022 93.839 C 15.432 93.839 16.76 93.287 17.769 92.279 C 18.77 91.278 19.322 89.943 19.322 88.54 C 19.322 85.618 16.944 83.241 14.022 83.241 L 11.406 83.241 L 11.406 73.794 L 14.022 73.794 C 15.432 73.794 16.76 73.243 17.769 72.235 C 18.77 71.233 19.322 69.898 19.322 68.495 C 19.322 65.573 16.944 63.196 14.022 63.196 L 11.406 63.196 L 11.406 53.75 L 14.022 53.75 C 15.432 53.75 16.76 53.198 17.769 52.19 C 18.77 51.189 19.322 49.854 19.322 48.451 C 19.322 45.529 16.944 43.152 14.022 43.152 L 11.406 43.152 L 11.406 33.705 L 14.022 33.705 C 15.432 33.705 16.76 33.153 17.769 32.145 C 18.77 31.144 19.322 29.809 19.322 28.406 C 19.322 25.484 16.944 23.107 14.022 23.107 L 11.406 23.107 L 11.406 22.746 C 11.406 19.865 13.756 17.515 16.638 17.515 L 102.964 17.515 C 105.846 17.515 108.196 19.865 108.196 22.746 L 108.196 43.928 L 99.701 59.899 C 99.613 60.071 99.551 60.254 99.517 60.444 L 96.901 76.831 C 96.786 77.567 97.147 78.296 97.808 78.643 C 97.957 78.725 98.114 78.772 98.271 78.806 C 98.325 78.82 98.38 78.82 98.434 78.827 C 98.496 78.834 98.564 78.847 98.625 78.847 C 98.659 78.847 98.686 78.834 98.714 78.827 C 98.857 78.82 98.986 78.793 99.122 78.752 C 99.177 78.732 99.238 78.725 99.293 78.704 C 99.477 78.623 99.654 78.521 99.81 78.377 L 108.196 70.565 L 108.196 88.036 C 108.06 88.07 107.931 88.118 107.794 88.152 C 107.447 88.247 107.106 88.35 106.773 88.452 C 106.412 88.561 106.05 88.676 105.696 88.806 C 105.362 88.922 105.035 89.051 104.715 89.18 C 104.368 89.317 104.014 89.46 103.673 89.616 C 103.36 89.759 103.046 89.902 102.733 90.059 C 102.394 90.221 102.06 90.393 101.731 90.577 C 101.432 90.74 101.132 90.904 100.839 91.081 C 100.512 91.271 100.199 91.469 99.879 91.673 C 99.596 91.854 99.316 92.04 99.041 92.232 C 98.734 92.443 98.434 92.668 98.135 92.899 C 97.869 93.103 97.603 93.308 97.344 93.519 C 97.051 93.757 96.772 94.003 96.493 94.255 C 96.247 94.472 95.995 94.697 95.757 94.922 C 95.484 95.181 95.219 95.453 94.96 95.726 C 94.728 95.964 94.504 96.196 94.279 96.441 C 94.027 96.72 93.781 97.013 93.543 97.306 C 93.333 97.557 93.126 97.811 92.923 98.069 C 92.694 98.374 92.469 98.683 92.249 98.995 C 92.058 99.261 91.867 99.526 91.69 99.799 C 91.479 100.126 91.281 100.459 91.084 100.793 C 90.92 101.065 90.75 101.345 90.593 101.624 C 90.402 101.971 90.232 102.326 90.055 102.687 C 89.919 102.973 89.769 103.252 89.639 103.538 C 89.469 103.912 89.319 104.294 89.169 104.675 C 89.054 104.961 88.931 105.241 88.829 105.527 C 88.679 105.935 88.556 106.351 88.427 106.773 C 88.338 107.046 88.243 107.318 88.168 107.597 C 88.039 108.067 87.936 108.537 87.834 109.014 C 87.78 109.252 87.718 109.491 87.671 109.729 C 87.63 109.947 87.602 110.179 87.562 110.397 C 87.473 110.901 87.384 111.405 87.323 111.922 C 87.242 112.556 87.201 113.21 87.167 113.884 C 87.145 114.297 87.133 114.71 87.133 115.123 C 87.133 115.832 87.167 116.533 87.214 117.235 C 87.235 117.459 87.262 117.684 87.282 117.909 C 87.33 118.379 87.385 118.849 87.453 119.319 C 87.494 119.578 87.541 119.83 87.582 120.088 C 87.658 120.517 87.744 120.944 87.841 121.369 C 87.902 121.628 87.964 121.887 88.025 122.139 C 88.134 122.561 88.257 122.983 88.386 123.399 C 88.461 123.637 88.529 123.875 88.611 124.114 C 88.769 124.571 88.937 125.026 89.115 125.476 C 89.183 125.66 89.251 125.844 89.326 126.021 C 89.586 126.642 89.87 127.253 90.178 127.853 C 90.232 127.969 90.3 128.078 90.362 128.187 C 90.614 128.67 90.879 129.147 91.165 129.61 C 91.288 129.814 91.424 130.012 91.554 130.216 C 91.792 130.584 92.024 130.945 92.276 131.299 C 92.432 131.517 92.589 131.728 92.746 131.939 C 92.991 132.266 93.25 132.593 93.509 132.907 C 93.679 133.118 93.856 133.322 94.034 133.526 C 94.306 133.84 94.592 134.146 94.885 134.453 C 95.062 134.637 95.239 134.827 95.423 135.004 C 95.764 135.345 96.125 135.665 96.479 135.985 C 96.622 136.115 96.765 136.251 96.908 136.373 C 97.415 136.804 97.935 137.217 98.468 137.613 C 98.646 137.742 98.823 137.858 99 137.981 C 99.381 138.246 99.763 138.512 100.158 138.757 C 100.389 138.9 100.628 139.036 100.866 139.179 C 101.098 139.316 101.316 139.459 101.554 139.588 L 16.639 139.547 Z M 115.069 139.527 C 112.501 139.527 109.967 139.125 107.528 138.321 C 97.411 135.052 90.62 125.714 90.62 115.082 C 90.62 114.087 90.674 113.181 90.783 112.296 C 91.083 109.647 91.798 107.127 92.868 104.811 C 94.194 101.926 96.074 99.33 98.4 97.169 C 98.475 97.101 98.556 97.04 98.638 96.965 C 99.966 95.759 101.424 94.696 102.998 93.804 C 103.434 93.559 103.89 93.334 104.34 93.116 C 104.463 93.055 104.585 92.987 104.708 92.926 C 106.459 92.108 108.325 91.495 110.287 91.107 C 111.854 90.794 113.462 90.637 115.07 90.637 C 128.551 90.637 139.52 101.603 139.52 115.082 C 139.52 128.561 128.552 139.528 115.07 139.528 Z" fill="currentColor"></path><path d="M 44.148 33.133 L 32.124 33.133 C 31.157 33.133 30.38 33.916 30.38 34.876 L 30.38 46.897 C 30.38 47.858 31.157 48.641 32.124 48.641 L 44.148 48.641 C 45.115 48.641 45.892 47.858 45.892 46.897 L 45.892 34.876 C 45.892 33.916 45.115 33.133 44.148 33.133 Z M 42.404 45.154 L 33.868 45.154 L 33.868 36.62 L 42.404 36.62 Z M 116.795 114.339 L 116.795 103.061 C 116.795 102.1 116.018 101.317 115.051 101.317 C 114.083 101.317 113.307 102.1 113.307 103.061 L 113.307 115.061 C 113.307 115.525 113.491 115.967 113.818 116.294 L 126.931 129.371 C 127.272 129.712 127.715 129.882 128.164 129.882 C 128.614 129.882 129.057 129.712 129.397 129.371 C 129.725 129.044 129.909 128.6 129.908 128.137 C 129.906 127.674 129.72 127.231 129.391 126.906 Z M 44.148 108.325 L 32.124 108.325 C 31.157 108.325 30.38 109.109 30.38 110.069 L 30.38 122.09 C 30.38 123.051 31.157 123.834 32.124 123.834 L 44.148 123.834 C 45.115 123.834 45.892 123.051 45.892 122.09 L 45.892 110.069 C 45.892 109.109 45.115 108.325 44.148 108.325 Z M 42.404 120.347 L 33.868 120.347 L 33.868 111.813 L 42.404 111.813 Z M 44.148 83.261 L 32.124 83.261 C 31.157 83.261 30.38 84.044 30.38 85.005 L 30.38 97.026 C 30.38 97.986 31.157 98.77 32.124 98.77 L 44.148 98.77 C 45.115 98.77 45.892 97.986 45.892 97.026 L 45.892 85.005 C 45.892 84.044 45.115 83.261 44.148 83.261 Z M 42.404 95.282 L 33.868 95.282 L 33.868 86.748 L 42.404 86.748 Z M 53.801 88.771 L 94.662 88.771 C 95.629 88.771 96.406 87.988 96.406 87.027 C 96.406 86.067 95.629 85.284 94.662 85.284 L 53.801 85.284 C 52.833 85.284 52.057 86.067 52.057 87.027 C 52.057 87.988 52.833 88.771 53.801 88.771 Z M 53.801 71.675 L 78.216 71.675 C 79.184 71.675 79.96 70.892 79.96 69.931 C 79.96 68.971 79.184 68.188 78.216 68.188 L 53.801 68.188 C 52.833 68.188 52.057 68.971 52.057 69.931 C 52.057 70.892 52.833 71.675 53.801 71.675 Z M 53.801 96.739 L 78.216 96.739 C 79.184 96.739 79.96 95.956 79.96 94.996 C 79.96 94.035 79.184 93.252 78.216 93.252 L 53.801 93.252 C 52.833 93.252 52.057 94.035 52.057 94.996 C 52.057 95.956 52.833 96.739 53.801 96.739 Z M 53.801 63.707 L 94.662 63.707 C 95.629 63.707 96.406 62.924 96.406 61.963 C 96.406 61.003 95.629 60.219 94.662 60.219 L 53.801 60.219 C 52.833 60.219 52.057 61.003 52.057 61.963 C 52.057 62.924 52.833 63.707 53.801 63.707 Z M 52.057 112.084 C 52.057 113.045 52.833 113.828 53.801 113.828 L 87.147 113.828 C 87.174 113.154 87.222 112.5 87.304 111.866 C 87.358 111.349 87.454 110.845 87.535 110.341 L 53.8 110.341 C 52.832 110.341 52.056 111.124 52.056 112.084 Z M 53.801 46.611 L 78.216 46.611 C 79.184 46.611 79.96 45.827 79.96 44.867 C 79.96 43.907 79.184 43.123 78.216 43.123 L 53.801 43.123 C 52.833 43.123 52.057 43.907 52.057 44.867 C 52.057 45.827 52.833 46.611 53.801 46.611 Z M 53.801 38.642 L 94.662 38.642 C 95.629 38.642 96.406 37.859 96.406 36.899 C 96.406 35.938 95.629 35.155 94.662 35.155 L 53.801 35.155 C 52.833 35.155 52.057 35.938 52.057 36.899 C 52.057 37.859 52.833 38.642 53.801 38.642 Z" fill="currentColor"></path></g></svg>