<svg viewBox="0 0 150 150" xmlns="http://www.w3.org/2000/svg" width="150" height="150" fill="none"><path d="M 103.036 72.233 C 100.898 71.6 98.636 71.26 96.298 71.254 C 93.239 71.254 90.321 71.834 87.638 72.883 L 87.638 41.038 C 87.638 39.942 88.534 39.046 89.63 39.046 L 101.044 39.051 C 102.14 39.051 103.036 39.948 103.036 41.044 L 103.036 72.234 Z M 96.292 73.751 C 108.052 73.751 117.585 83.285 117.585 95.044 C 117.585 106.804 108.051 116.336 96.292 116.336 C 84.532 116.336 75 106.803 75 95.044 C 75 83.284 84.533 73.751 96.292 73.751 Z M 96.292 77.988 C 91.581 77.988 87.316 79.898 84.233 82.986 C 81.146 86.074 79.235 90.339 79.235 95.044 C 79.235 99.755 81.146 104.021 84.233 107.103 C 87.321 110.191 91.587 112.101 96.292 112.101 C 101.003 112.101 105.269 110.191 108.351 107.103 C 111.439 104.015 113.349 99.75 113.349 95.044 C 113.349 90.333 111.439 86.068 108.351 82.986 C 105.269 79.898 101.003 77.988 96.292 77.988 Z M 110.858 95.05 C 110.858 99.076 109.23 102.714 106.593 105.351 C 103.956 107.988 100.312 109.617 96.292 109.617 C 92.267 109.617 88.628 107.988 85.991 105.351 C 83.355 102.714 81.726 99.07 81.726 95.05 C 81.726 91.025 83.355 87.386 85.991 84.749 C 88.628 82.113 92.273 80.484 96.292 80.484 C 100.317 80.484 103.956 82.113 106.593 84.749 C 109.23 87.386 110.858 91.025 110.858 95.05 Z M 118.734 113.132 C 118.4 113.337 118.089 113.583 117.802 113.87 L 115.118 116.554 C 114.831 116.841 114.585 117.158 114.38 117.486 L 110.794 113.9 C 112.423 112.646 113.888 111.181 115.142 109.552 Z M 119.566 115.628 C 120.591 114.597 122.267 114.597 123.298 115.628 L 134.038 126.368 C 135.069 127.394 135.069 129.07 134.038 130.101 L 131.355 132.784 C 130.329 133.816 128.653 133.816 127.622 132.784 L 116.882 122.044 C 115.851 121.019 115.851 119.343 116.882 118.312 Z M 95.337 16.434 C 98.144 16.434 100.417 18.708 100.417 21.514 C 100.417 24.321 98.144 26.594 95.337 26.594 C 94.499 26.594 93.708 26.389 93.011 26.032 L 75.373 46.018 C 75.936 46.833 76.264 47.823 76.264 48.889 C 76.264 51.696 73.991 53.969 71.184 53.969 C 68.377 53.969 66.104 51.696 66.104 48.889 C 66.104 48.421 66.168 47.969 66.285 47.542 L 50.71 38.729 C 49.785 39.696 48.478 40.299 47.037 40.299 C 46.199 40.299 45.408 40.094 44.716 39.737 L 27.079 59.759 C 27.641 60.574 27.969 61.564 27.969 62.631 C 27.969 65.437 25.696 67.711 22.889 67.711 C 20.083 67.711 17.809 65.437 17.809 62.631 C 17.809 59.824 20.083 57.55 22.889 57.55 C 23.727 57.55 24.518 57.756 25.21 58.113 L 42.847 38.09 C 42.285 37.27 41.956 36.286 41.956 35.219 C 41.956 32.413 44.23 30.139 47.037 30.139 C 49.843 30.139 52.117 32.413 52.117 35.219 C 52.117 35.688 52.052 36.139 51.935 36.567 L 67.51 45.379 C 68.436 44.413 69.742 43.809 71.184 43.809 C 72.022 43.809 72.813 44.014 73.51 44.372 L 91.141 24.385 C 90.579 23.571 90.251 22.581 90.251 21.514 C 90.251 18.714 92.53 16.434 95.337 16.434 Z M 15.192 93.579 L 15.192 82.165 C 15.192 81.07 16.089 80.173 17.184 80.173 L 28.598 80.173 C 29.694 80.173 30.591 81.07 30.591 82.165 L 30.591 93.579 C 30.591 94.675 29.694 95.572 28.598 95.572 L 17.184 95.572 C 16.089 95.572 15.192 94.675 15.192 93.579 Z M 39.34 93.579 L 39.34 54.749 C 39.34 53.654 40.236 52.757 41.332 52.757 L 52.746 52.757 C 53.842 52.757 54.738 53.654 54.738 54.749 L 54.738 93.579 C 54.738 94.675 53.842 95.572 52.746 95.572 L 41.332 95.572 C 40.236 95.572 39.34 94.675 39.34 93.579 Z M 65.48 95.53 C 64.384 95.53 63.487 94.633 63.487 93.538 L 63.487 68.419 C 63.487 67.323 64.384 66.427 65.48 66.427 L 76.894 66.427 C 77.989 66.427 78.886 67.323 78.886 68.419 L 78.886 78.843 C 74.925 83.091 72.505 88.787 72.505 95.05 C 72.505 95.208 72.505 95.373 72.511 95.531 L 65.48 95.531 Z" fill="currentColor"></path></svg>