<svg viewBox="0 0 150 150" xmlns="http://www.w3.org/2000/svg" width="150" height="150" fill="none"><path d="M 142.984 73.428 C 143.093 71.939 142.604 70.469 141.626 69.344 L 90.54 9.007 C 89.563 7.859 88.172 7.148 86.672 7.028 C 85.173 6.908 83.687 7.389 82.541 8.367 L 59.184 28.407 L 50.737 22.853 C 49.409 21.978 47.788 21.668 46.231 21.993 C 44.675 22.317 43.311 23.248 42.44 24.581 L 17.318 62.931 C 16.44 64.263 16.127 65.89 16.448 67.454 C 16.769 69.017 17.698 70.388 19.029 71.263 L 35.515 82.155 L 12.172 85.653 C 10.58 85.892 9.148 86.754 8.19 88.051 C 7.233 89.348 6.828 90.973 7.065 92.569 L 13.787 137.807 C 14.002 139.247 14.724 140.562 15.823 141.514 C 16.922 142.465 18.324 142.991 19.776 142.994 C 20.079 143.015 20.383 143.015 20.686 142.994 L 97.981 131.342 C 99.572 131.099 101.002 130.236 101.958 128.94 C 102.915 127.644 103.321 126.021 103.087 124.426 L 101.186 111.506 L 141.016 77.294 C 142.162 76.322 142.871 74.929 142.985 73.428 Z M 19.11 66.907 C 18.93 66.055 19.102 65.166 19.585 64.443 L 44.707 26.066 C 45.186 25.338 45.934 24.828 46.786 24.65 C 47.638 24.472 48.526 24.638 49.256 25.113 L 114.67 68.268 C 115.379 68.746 115.877 69.481 116.057 70.319 C 116.237 71.157 116.085 72.033 115.634 72.761 L 90.485 111.111 C 90.003 111.837 89.255 112.343 88.403 112.519 C 87.551 112.695 86.664 112.527 85.935 112.05 L 20.576 68.99 C 19.827 68.522 19.298 67.771 19.109 66.907 Z M 97.573 128.646 L 20.318 140.231 C 19.438 140.372 18.539 140.152 17.822 139.623 C 17.104 139.093 16.629 138.297 16.502 137.413 L 9.712 92.161 C 9.575 91.282 9.795 90.385 10.323 89.67 C 10.85 88.937 11.647 88.447 12.537 88.308 L 38.582 84.347 C 38.661 84.326 38.738 84.298 38.813 84.265 L 84.4 114.325 C 85.727 115.207 87.35 115.521 88.909 115.196 C 90.467 114.871 91.831 113.935 92.698 112.596 L 97.478 105.313 L 100.343 124.821 C 100.476 125.695 100.26 126.588 99.742 127.304 C 99.223 128.02 98.444 128.502 97.573 128.646 Z M 139.248 75.225 L 100.695 108.319 L 99.745 101.921 L 117.874 74.244 C 118.748 72.914 119.058 71.29 118.738 69.73 C 118.417 68.169 117.491 66.801 116.163 65.926 L 61.546 29.972 L 84.305 10.436 C 84.9 9.922 85.675 9.668 86.458 9.73 C 87.24 9.791 87.966 10.163 88.474 10.763 L 139.588 70.99 C 140.102 71.588 140.352 72.369 140.281 73.155 C 140.226 73.955 139.854 74.7 139.249 75.224 Z" fill="currentColor"></path><path d="M 75.231 88.69 C 73.936 87.818 72.344 87.508 70.818 87.832 C 69.943 88.049 69.018 87.89 68.265 87.394 C 67.513 86.898 67 86.109 66.852 85.218 C 66.523 83.715 65.619 82.4 64.335 81.555 C 63.051 80.711 61.488 80.403 59.981 80.699 C 59.11 80.925 58.184 80.771 57.431 80.276 C 56.678 79.781 56.17 78.99 56.03 78.098 C 55.715 76.59 54.81 75.27 53.518 74.436 C 52.234 73.586 50.667 73.278 49.158 73.579 C 48.29 73.798 47.37 73.645 46.619 73.156 C 45.883 72.653 45.39 71.863 45.261 70.978 C 44.928 69.476 44.024 68.164 42.741 67.32 C 41.458 66.475 39.897 66.166 38.39 66.459 C 37.517 66.684 36.591 66.53 35.837 66.036 C 35.104 65.529 34.613 64.741 34.479 63.858 C 34.158 62.352 33.255 61.035 31.967 60.196 C 31.665 59.996 31.295 59.925 30.941 59.999 C 30.586 60.074 30.276 60.287 30.079 60.591 C 29.673 61.219 29.849 62.058 30.473 62.469 C 31.209 62.974 31.702 63.763 31.831 64.648 C 32.164 66.15 33.068 67.463 34.351 68.306 C 35.634 69.151 37.195 69.459 38.702 69.168 C 39.574 68.942 40.501 69.096 41.255 69.59 C 41.988 70.097 42.479 70.885 42.613 71.768 C 42.942 73.272 43.846 74.587 45.13 75.431 C 46.414 76.276 47.977 76.583 49.484 76.287 C 50.352 76.061 51.275 76.215 52.024 76.71 C 52.753 77.214 53.244 77.997 53.382 78.874 C 53.699 80.385 54.603 81.708 55.894 82.55 C 57.176 83.393 58.734 83.701 60.239 83.408 C 61.112 83.181 62.039 83.334 62.792 83.83 C 63.525 84.337 64.016 85.125 64.15 86.008 C 64.48 87.512 65.383 88.826 66.667 89.671 C 67.952 90.516 69.514 90.823 71.021 90.528 C 71.896 90.307 72.822 90.465 73.575 90.964 C 74.201 91.371 75.038 91.194 75.448 90.569 C 75.892 89.986 75.796 89.155 75.231 88.69 Z" fill="currentColor"></path><path d="M 35.958 54.954 C 36.689 55.401 37.186 56.148 37.316 56.997 C 37.599 58.461 38.462 59.749 39.709 60.564 C 40.955 61.38 42.478 61.655 43.929 61.326 C 44.735 61.078 45.608 61.199 46.317 61.655 C 47.026 62.111 47.499 62.857 47.61 63.694 C 47.898 65.173 48.775 66.47 50.038 67.288 C 51.301 68.104 52.842 68.37 54.304 68.023 C 55.113 67.771 55.993 67.891 56.706 68.351 C 57.418 68.81 57.892 69.563 57.998 70.406 C 58.292 71.883 59.169 73.179 60.429 74 C 60.647 74.142 60.902 74.217 61.162 74.218 C 61.764 74.216 62.292 73.818 62.461 73.24 C 62.631 72.661 62.401 72.04 61.895 71.713 C 61.164 71.26 60.668 70.509 60.537 69.657 C 60.249 68.178 59.372 66.881 58.109 66.064 C 56.846 65.248 55.306 64.982 53.843 65.328 C 53.032 65.568 52.157 65.449 51.439 65.001 C 50.741 64.536 50.276 63.792 50.162 62.959 C 49.874 61.48 48.997 60.183 47.734 59.366 C 46.471 58.549 44.93 58.284 43.468 58.63 C 42.662 58.877 41.789 58.757 41.08 58.3 C 40.371 57.844 39.898 57.098 39.787 56.261 C 39.493 54.784 38.617 53.488 37.357 52.667 C 37.054 52.449 36.676 52.365 36.31 52.434 C 35.944 52.504 35.623 52.721 35.421 53.035 C 35.219 53.35 35.155 53.733 35.244 54.096 C 35.333 54.459 35.567 54.769 35.89 54.954 Z" fill="currentColor"></path><path d="M 73.424 120.205 C 71.9 120.412 70.522 121.221 69.595 122.452 C 69.081 123.191 68.285 123.684 67.395 123.813 C 66.506 123.944 65.603 123.692 64.91 123.118 C 63.667 122.205 62.118 121.814 60.592 122.03 C 59.069 122.243 57.693 123.05 56.762 124.276 C 56.258 125.018 55.464 125.513 54.576 125.637 C 53.686 125.758 52.785 125.501 52.091 124.929 C 50.85 124.017 49.302 123.628 47.778 123.847 C 46.255 124.066 44.878 124.875 43.943 126.1 C 43.43 126.84 42.633 127.332 41.743 127.461 C 40.864 127.6 39.968 127.363 39.272 126.808 C 38.034 125.89 36.485 125.497 34.961 125.714 C 33.437 125.931 32.059 126.739 31.124 127.965 C 30.622 128.71 29.827 129.205 28.937 129.326 C 28.047 129.447 27.146 129.19 26.452 128.618 C 25.216 127.703 23.668 127.317 22.148 127.543 C 21.405 127.648 20.889 128.337 20.993 129.081 C 21.098 129.826 21.786 130.343 22.528 130.238 C 23.417 130.107 24.32 130.36 25.013 130.933 C 26.006 131.655 27.195 132.059 28.421 132.09 C 28.721 132.086 29.021 132.064 29.318 132.022 C 30.84 131.809 32.216 131.001 33.147 129.775 C 33.652 129.027 34.45 128.527 35.342 128.4 C 36.235 128.273 37.139 128.53 37.832 129.109 C 39.073 130.021 40.621 130.41 42.144 130.191 C 43.668 129.972 45.045 129.163 45.98 127.938 C 46.488 127.199 47.28 126.706 48.166 126.576 C 49.055 126.445 49.958 126.697 50.651 127.271 C 51.888 128.186 53.434 128.577 54.956 128.36 C 56.48 128.153 57.858 127.344 58.785 126.113 C 59.29 125.365 60.088 124.865 60.98 124.738 C 61.873 124.611 62.777 124.868 63.47 125.446 C 64.713 126.355 66.26 126.742 67.782 126.523 C 69.304 126.304 70.681 125.498 71.618 124.275 C 72.122 123.532 72.916 123.037 73.805 122.914 C 74.164 122.864 74.488 122.671 74.705 122.38 C 74.922 122.088 75.013 121.722 74.959 121.362 C 74.854 120.618 74.167 120.1 73.424 120.205 Z" fill="currentColor"></path><path d="M 24.035 121.612 C 25.002 122.322 26.165 122.712 27.362 122.728 C 27.656 122.747 27.951 122.747 28.245 122.728 C 29.726 122.494 31.051 121.675 31.925 120.455 C 32.368 119.731 33.1 119.235 33.935 119.093 C 34.769 118.973 35.614 119.227 36.244 119.788 C 37.438 120.701 38.951 121.089 40.435 120.863 C 41.92 120.637 43.25 119.817 44.12 118.59 C 44.562 117.866 45.301 117.374 46.138 117.246 C 46.975 117.117 47.827 117.365 48.465 117.923 C 49.654 118.84 51.164 119.233 52.648 119.012 C 53.004 118.958 53.325 118.764 53.539 118.473 C 53.754 118.182 53.843 117.817 53.788 117.46 C 53.735 117.102 53.541 116.78 53.251 116.566 C 52.961 116.351 52.597 116.262 52.241 116.316 C 51.409 116.44 50.564 116.191 49.932 115.635 C 48.736 114.722 47.221 114.333 45.734 114.559 C 44.247 114.785 42.915 115.606 42.042 116.833 C 41.6 117.555 40.863 118.043 40.028 118.169 C 39.193 118.295 38.345 118.046 37.71 117.487 C 36.519 116.575 35.008 116.187 33.525 116.413 C 32.043 116.638 30.715 117.459 29.848 118.685 C 29.408 119.411 28.674 119.908 27.838 120.046 C 27.003 120.161 26.158 119.914 25.516 119.366 C 24.323 118.456 22.817 118.063 21.333 118.277 C 20.584 118.389 20.066 119.09 20.179 119.842 C 20.292 120.594 20.991 121.112 21.741 120.999 C 22.558 120.869 23.392 121.091 24.036 121.612 Z" fill="currentColor"></path><path d="M 43.21 44.295 L 51.575 49.74 L 51.765 49.835 L 51.901 49.835 C 52.035 49.889 52.178 49.916 52.322 49.917 C 52.412 49.931 52.504 49.931 52.594 49.917 C 52.749 49.879 52.896 49.815 53.028 49.726 L 53.11 49.726 C 53.235 49.63 53.345 49.515 53.436 49.386 L 58.868 41.014 C 59.299 40.417 59.179 39.584 58.596 39.135 L 50.231 33.689 L 50.231 33.689 C 50.089 33.6 49.932 33.536 49.769 33.499 C 49.414 33.433 49.048 33.511 48.751 33.716 C 48.613 33.813 48.494 33.933 48.398 34.071 L 42.966 42.443 L 42.966 42.443 C 42.765 42.744 42.692 43.113 42.763 43.469 C 42.835 43.824 43.044 44.136 43.346 44.335 Z M 52.987 45.166 L 51.44 37.719 L 55.88 40.66 Z M 48.791 38.318 L 50.326 45.778 L 45.845 42.824 Z" fill="currentColor"></path><path d="M 30.2 104.563 L 30.39 104.481 C 30.722 104.291 30.959 103.97 31.042 103.596 C 31.077 103.421 31.077 103.241 31.042 103.065 L 29.236 93.209 C 29.172 92.849 28.966 92.53 28.666 92.324 C 28.369 92.119 28.002 92.04 27.647 92.106 L 17.856 93.931 L 17.72 93.931 C 17.596 93.955 17.476 94.002 17.368 94.067 C 17.067 94.264 16.857 94.572 16.784 94.924 C 16.749 95.1 16.749 95.28 16.784 95.455 L 18.603 105.325 C 18.667 105.678 18.867 105.991 19.16 106.196 C 19.39 106.35 19.658 106.435 19.934 106.442 L 20.178 106.442 L 30.023 104.631 Z M 27.783 100.329 L 21.537 96.013 L 26.819 95.033 Z M 20.002 98.219 L 26.249 102.548 L 20.966 103.514 Z" fill="currentColor"></path><path d="M 86.584 18.782 C 86.47 18.648 86.332 18.537 86.176 18.456 C 86.015 18.377 85.84 18.331 85.661 18.32 C 85.3 18.292 84.943 18.41 84.669 18.647 L 77.105 25.208 C 76.54 25.701 76.479 26.56 76.969 27.128 L 83.528 34.711 L 83.528 34.711 C 83.642 34.845 83.78 34.956 83.936 35.037 C 84.097 35.117 84.273 35.163 84.452 35.174 L 84.574 35.174 C 84.732 35.174 84.888 35.146 85.036 35.092 C 85.097 35.059 85.155 35.022 85.213 34.983 C 85.294 34.945 85.371 34.9 85.443 34.847 L 93.007 28.285 C 93.573 27.792 93.634 26.933 93.143 26.365 Z M 83.976 22.866 L 83.433 30.463 L 79.916 26.379 Z M 86.136 30.654 L 86.679 23.057 L 90.196 27.141 Z" fill="currentColor"></path></svg>