<svg viewBox="0 0 150 150" xmlns="http://www.w3.org/2000/svg" width="150" height="150" fill="none"><path d="M 149.938 75.027 C 149.938 116.412 116.389 149.96 75.004 149.96 C 33.619 149.96 0.07 116.412 0.07 75.027 C 0.07 33.642 33.619 0.094 75.004 0.094 C 116.389 0.094 149.938 33.642 149.938 75.027 Z M 66.336 114.704 L 121.932 59.108 C 123.82 57.22 123.82 54.159 121.932 52.271 L 115.096 45.434 C 113.208 43.546 110.147 43.546 108.258 45.434 L 62.918 90.775 L 41.749 69.606 C 39.862 67.719 36.8 67.719 34.912 69.606 L 28.075 76.443 C 26.188 78.331 26.188 81.392 28.075 83.28 L 59.499 114.704 C 61.387 116.592 64.448 116.592 66.336 114.704 Z" fill="currentColor"></path></svg>