<svg viewBox="0 0 150 150" xmlns="http://www.w3.org/2000/svg" width="150" height="150" fill="none"><path d="M 135.052 9.445 L 13.971 9.445 C 6.258 9.445 0 15.703 0 23.416 L 0 125.869 C 0 133.582 6.258 139.839 13.971 139.839 L 135.052 139.839 C 142.766 139.839 149.023 133.582 149.023 125.869 L 149.023 23.416 C 149.023 15.703 142.766 9.445 135.052 9.445 Z M 110.719 93.998 C 112.117 95.395 112.117 97.665 110.719 99.062 L 98.931 110.85 C 97.534 112.247 95.264 112.247 93.867 110.85 L 74.511 91.32 L 55.156 110.85 C 53.759 112.247 51.489 112.247 50.091 110.85 L 38.304 99.062 C 36.906 97.665 36.906 95.395 38.304 93.998 L 57.834 74.642 L 38.304 55.287 C 36.906 53.89 36.906 51.62 38.304 50.223 L 50.091 38.435 C 51.489 37.038 53.759 37.038 55.156 38.435 L 74.511 57.965 L 93.867 38.435 C 95.264 37.038 97.534 37.038 98.931 38.435 L 110.719 50.223 C 112.117 51.62 112.117 53.89 110.719 55.287 L 91.189 74.642 Z" fill="currentColor"></path></svg>