<svg viewBox="0 0 150 150" xmlns="http://www.w3.org/2000/svg" width="150" height="150" fill="none"><path d="M 43.12 49.435 C 44.125 49.435 44.795 49.435 45.13 49.268 C 46.638 49.268 63.896 48.262 74.284 34.35 C 76.463 39.882 82.159 50.273 92.212 49.268 C 93.05 49.268 93.72 48.43 93.72 47.592 C 93.72 47.089 93.888 36.194 88.526 30.663 C 93.888 25.131 93.72 14.236 93.72 13.733 C 93.72 12.895 93.05 12.225 92.212 12.057 C 82.159 11.052 76.462 21.444 74.284 26.975 C 63.561 12.895 45.8 12.057 44.962 12.057 L 44.795 12.057 C 23.516 12.057 18.154 29.992 18.154 30.16 C 17.987 30.495 18.154 30.83 18.154 31.165 C 24.186 47.759 37.925 49.435 43.119 49.435 Z M 90.369 15.409 C 90.202 19.432 89.029 26.472 85.008 29.322 C 84.505 29.657 84.338 30.16 84.338 30.663 C 84.338 31.166 84.673 31.668 85.008 32.004 C 89.364 35.021 90.202 42.564 90.369 45.916 C 81.824 45.413 77.468 33.178 76.63 30.663 C 77.3 28.149 81.824 15.912 90.369 15.409 Z M 44.795 15.409 C 44.963 15.409 44.963 15.409 44.795 15.409 C 45.13 15.409 63.226 16.248 72.776 30.662 C 63.226 45.077 45.13 45.915 44.795 45.915 C 44.125 46.083 28.04 47.926 21.673 30.662 C 22.511 27.981 28.04 15.409 44.795 15.409 Z" fill="currentColor"></path><path d="M 33.402 26.975 C 33.402 27.993 32.576 28.818 31.559 28.818 C 30.54 28.818 29.715 27.993 29.715 26.975 C 29.715 25.957 30.54 25.131 31.559 25.131 C 32.576 25.131 33.402 25.957 33.402 26.975 Z" fill="currentColor"></path><path d="M 146.5 80.612 C 146.5 79.774 145.829 79.103 144.991 78.936 C 134.938 77.93 129.242 88.322 127.063 93.853 C 116.34 79.774 98.579 78.936 97.742 78.936 L 97.574 78.936 C 76.295 78.936 70.933 96.87 70.933 97.038 C 70.766 97.373 70.933 97.709 70.933 98.044 C 76.798 114.47 90.537 116.146 95.899 116.146 C 96.904 116.146 97.574 116.146 97.909 115.978 C 99.417 115.978 116.675 114.973 127.063 101.061 C 129.242 106.592 134.938 116.984 144.991 115.978 C 145.829 115.978 146.499 115.14 146.499 114.302 C 146.499 113.799 146.667 102.904 141.305 97.373 C 146.667 92.009 146.499 81.115 146.499 80.612 Z M 97.742 112.794 L 97.574 112.794 C 97.407 112.794 80.819 114.805 74.452 97.541 C 75.457 94.859 80.651 82.288 97.742 82.288 L 97.909 82.288 C 98.077 82.288 116.173 83.126 125.723 97.541 C 116.005 112.123 97.909 112.794 97.742 112.794 Z M 137.787 96.2 C 137.284 96.535 137.117 97.038 137.117 97.541 C 137.117 98.044 137.451 98.547 137.787 98.882 C 142.143 101.9 142.981 109.442 143.148 112.795 C 134.603 112.291 130.247 100.056 129.409 97.542 C 130.247 95.027 134.771 82.791 143.316 82.289 C 142.981 86.31 141.808 93.518 137.787 96.2 Z" fill="currentColor"></path><path d="M 86.181 93.853 C 86.181 94.871 85.355 95.697 84.338 95.697 C 83.319 95.697 82.494 94.871 82.494 93.853 C 82.494 92.835 83.319 92.01 84.338 92.01 C 85.355 92.01 86.181 92.835 86.181 93.853 Z" fill="currentColor"></path><path d="M 89.699 53.626 C 80.651 53.626 76.462 59.995 75.625 63.348 C 75.457 63.683 75.625 64.018 75.625 64.353 C 78.305 72.063 84.673 74.075 88.694 74.075 L 90.035 74.075 C 91.04 74.075 98.915 73.405 104.277 67.371 C 105.785 70.388 108.633 74.578 113.492 74.075 C 114.33 74.075 115 73.237 115 72.399 C 115 71.728 115 66.867 112.654 63.851 C 115 60.833 115 55.973 115 55.303 C 115 54.464 114.33 53.794 113.492 53.626 C 108.633 53.123 105.785 57.314 104.277 60.331 C 98.58 53.961 90.202 53.626 89.7 53.626 C 89.867 53.626 89.867 53.626 89.7 53.626 Z M 111.649 57.145 C 111.481 58.989 110.811 61.336 109.47 62.341 C 108.967 62.676 108.8 63.179 108.8 63.683 C 108.8 64.186 109.135 64.688 109.47 65.024 C 110.811 66.029 111.481 68.376 111.649 70.22 C 108.801 69.214 107.125 65.024 106.622 63.682 C 106.957 62.341 108.633 58.151 111.649 57.145 Z M 102.769 63.683 C 98.245 70.052 89.867 70.387 89.867 70.387 L 89.7 70.387 C 89.365 70.387 82.16 71.393 79.144 63.515 C 79.814 61.839 82.495 56.81 89.867 56.81 C 89.867 56.978 98.077 57.313 102.769 63.683 Z" fill="currentColor"></path><path d="M 84.17 61.839 C 84.17 62.394 83.72 62.844 83.165 62.844 C 82.61 62.844 82.16 62.394 82.16 61.839 C 82.16 61.283 82.61 60.833 83.165 60.833 C 83.72 60.833 84.17 61.283 84.17 61.839 Z" fill="currentColor"></path><path d="M 90.537 121.175 C 90.537 120.336 89.867 119.666 89.029 119.498 C 84.17 118.995 81.322 123.186 79.813 126.203 C 74.117 119.833 65.739 119.498 65.404 119.498 C 56.356 119.498 52.167 125.868 51.33 129.22 C 51.162 129.555 51.33 129.891 51.33 130.226 C 54.01 137.936 60.377 139.948 64.399 139.948 L 65.74 139.948 C 66.745 139.948 74.62 139.277 79.982 133.243 C 81.49 136.261 84.338 140.451 89.197 139.948 C 90.035 139.948 90.705 139.11 90.705 138.272 C 90.705 137.601 90.705 132.74 88.359 129.723 C 90.537 126.538 90.537 121.845 90.537 121.175 Z M 65.237 136.427 L 65.069 136.427 C 64.734 136.427 57.529 137.433 54.513 129.555 C 55.183 127.879 57.864 122.683 65.236 122.851 C 65.404 122.851 73.614 123.186 78.138 129.555 C 73.614 136.092 65.236 136.427 65.236 136.427 Z M 84.84 131.064 C 86.181 132.069 86.851 134.416 87.019 136.259 C 84.171 135.254 82.495 131.064 81.992 129.722 C 82.495 128.381 84.171 124.023 87.019 123.185 C 86.851 125.029 86.181 127.376 84.84 128.381 C 84.337 128.716 84.17 129.219 84.17 129.722 C 84.17 130.225 84.338 130.728 84.84 131.063 Z" fill="currentColor"></path><path d="M 59.54 127.712 C 59.54 128.267 59.09 128.718 58.535 128.718 C 57.979 128.718 57.529 128.267 57.529 127.712 C 57.529 127.156 57.979 126.706 58.535 126.706 C 59.09 126.706 59.54 127.156 59.54 127.712 Z" fill="currentColor"></path><path d="M 10.112 63.85 C 10.112 64.498 9.586 65.024 8.939 65.024 C 8.291 65.024 7.766 64.498 7.766 63.85 C 7.766 63.203 8.291 62.677 8.939 62.677 C 9.586 62.677 10.112 63.203 10.112 63.85 Z" fill="currentColor"></path><path d="M 34.742 105.419 C 35.747 105.419 46.471 104.748 53.34 96.367 C 55.016 100.223 58.702 106.089 65.069 105.419 C 65.907 105.419 66.577 104.581 66.577 103.743 C 66.577 103.408 66.745 96.703 63.393 92.848 C 66.577 88.992 66.577 82.288 66.577 81.953 C 66.577 81.115 65.907 80.444 65.069 80.276 C 58.702 79.606 55.016 85.472 53.34 89.328 C 46.303 80.78 35.245 80.276 34.742 80.276 L 34.574 80.276 C 20.5 80.276 16.981 92.177 16.814 92.344 C 16.646 92.679 16.814 93.015 16.814 93.35 C 20.668 104.245 29.883 105.418 33.402 105.418 C 34.072 105.586 34.574 105.419 34.742 105.419 Z M 63.058 83.796 C 62.891 86.311 62.053 89.998 59.875 91.507 C 59.372 91.842 59.204 92.345 59.204 92.848 C 59.204 93.351 59.539 93.853 59.875 94.189 C 62.053 95.697 62.891 99.385 63.058 101.899 C 58.535 101.061 56.021 94.524 55.518 92.848 C 56.189 91.171 58.535 84.634 63.058 83.796 Z M 20.332 92.848 C 21.003 90.837 24.521 83.629 34.574 83.629 C 34.742 83.629 45.8 84.132 51.665 92.848 C 45.633 101.563 34.574 102.067 34.407 102.067 C 34.072 102.234 24.354 103.24 20.332 92.848 Z" fill="currentColor"></path><path d="M 27.202 90.501 C 27.202 91.149 26.677 91.674 26.029 91.674 C 25.381 91.674 24.857 91.149 24.857 90.501 C 24.857 89.853 25.381 89.328 26.029 89.328 C 26.677 89.328 27.202 89.853 27.202 90.501 Z" fill="currentColor"></path><path d="M 36.601 70.144 C 38.276 73.999 41.962 79.697 48.329 79.195 C 49.167 79.195 49.838 78.357 49.838 77.519 C 49.838 77.184 50.005 70.479 46.654 66.624 C 49.838 62.769 49.838 56.064 49.838 55.729 C 49.838 54.891 49.167 54.22 48.329 54.053 C 41.962 53.382 38.276 59.249 36.601 63.104 C 29.564 54.556 18.505 54.053 18.002 54.053 L 17.835 54.053 C 3.761 54.053 0.242 65.953 0.074 66.121 C -0.093 66.456 0.074 66.791 0.074 67.126 C 3.928 78.021 13.144 79.194 16.662 79.194 L 18.003 79.194 C 19.007 79.195 29.731 78.524 36.601 70.144 Z M 46.319 57.573 C 46.152 60.087 45.314 63.774 43.135 65.283 C 42.633 65.618 42.465 66.121 42.465 66.624 C 42.465 67.127 42.8 67.629 43.135 67.965 C 45.314 69.474 46.152 73.161 46.319 75.675 C 41.795 74.837 39.282 68.3 38.779 66.624 C 39.282 64.78 41.795 58.411 46.319 57.572 Z M 3.426 66.624 C 4.096 64.613 7.614 57.405 17.668 57.405 C 17.835 57.405 28.893 57.908 34.758 66.624 C 28.726 75.34 17.668 75.843 17.5 75.843 C 17.333 75.843 7.615 77.016 3.426 66.624 Z" fill="currentColor"></path></svg>