<svg viewBox="0 0 150 150" xmlns="http://www.w3.org/2000/svg" width="150" height="150" fill="none"><path d="M 74.941 0.054 C 116.261 0.054 149.833 33.624 149.833 74.946 C 149.833 116.268 116.264 149.838 74.941 149.838 C 33.619 149.838 0.05 116.268 0.05 74.946 C 0.05 33.626 33.619 0.054 74.941 0.054 Z M 78.345 7.288 L 78.345 39.202 L 102.44 39.202 C 101.003 34.329 99.285 29.838 97.334 25.905 C 92.072 15.296 85.39 8.872 78.346 7.289 Z M 71.537 7.288 C 64.493 8.871 57.81 15.295 52.548 25.904 C 50.598 29.837 48.879 34.328 47.442 39.201 L 71.536 39.201 Z M 94.62 9.787 C 97.943 13.392 100.887 17.811 103.397 22.871 C 105.811 27.739 107.867 33.242 109.513 39.2 L 132.916 39.2 C 124.278 25.207 110.705 14.626 94.619 9.786 Z M 55.26 9.787 C 39.174 14.626 25.602 25.207 16.962 39.202 L 40.366 39.202 C 42.012 33.242 44.068 27.74 46.482 22.873 C 48.992 17.812 51.936 13.392 55.259 9.789 Z M 136.586 46.008 L 111.161 46.008 C 112.838 53.922 113.83 62.533 114.033 71.54 L 142.914 71.54 C 142.467 62.433 140.257 53.826 136.584 46.008 Z M 104.194 46.008 L 78.345 46.008 L 78.345 71.54 L 107.226 71.54 C 107.009 62.448 105.944 53.812 104.194 46.008 Z M 71.537 46.008 L 45.688 46.008 C 43.938 53.811 42.872 62.447 42.656 71.54 L 71.536 71.54 Z M 38.719 46.008 L 13.293 46.008 C 9.62 53.825 7.41 62.432 6.964 71.54 L 35.845 71.54 C 36.047 62.533 37.04 53.923 38.717 46.008 Z M 142.917 78.348 L 114.037 78.348 C 113.836 87.369 112.845 95.963 111.164 103.88 L 136.59 103.88 C 140.251 96.074 142.474 87.439 142.919 78.348 Z M 107.228 78.348 L 78.347 78.348 L 78.347 103.88 L 104.197 103.88 C 105.947 96.067 107.015 87.451 107.228 78.348 Z M 71.539 78.348 L 42.658 78.348 C 42.871 87.45 43.939 96.066 45.69 103.88 L 71.539 103.88 Z M 35.85 78.348 L 6.969 78.348 C 7.415 87.438 9.639 96.073 13.298 103.88 L 38.724 103.88 C 37.044 95.964 36.052 87.369 35.852 78.348 Z M 132.92 110.688 L 109.516 110.688 C 107.869 116.639 105.814 122.096 103.4 126.964 C 100.89 132.025 97.946 136.542 94.623 140.155 C 110.709 135.316 124.281 124.681 132.921 110.689 Z M 102.442 110.688 L 78.347 110.688 L 78.347 142.654 C 85.391 141.071 92.074 134.595 97.336 123.985 C 99.294 120.039 101.002 115.581 102.442 110.688 Z M 71.539 110.688 L 47.444 110.688 C 48.885 115.581 50.593 120.04 52.551 123.985 C 57.813 134.594 64.495 141.071 71.539 142.654 Z M 40.37 110.688 L 16.967 110.688 C 25.605 124.681 39.178 135.317 55.264 140.154 C 51.941 136.541 48.998 132.024 46.487 126.964 C 44.073 122.096 42.017 116.639 40.371 110.688 Z" fill="currentColor"></path></svg>