<svg viewBox="0 0 150 150" xmlns="http://www.w3.org/2000/svg" width="150" height="150" fill="none"><path d="M 50.432 0.233 C 28.389 13.169 14 37.102 14 61.383 C 14 72.938 17.102 84.223 23.161 94.887 C 35.963 117.425 59.615 128.984 83.475 129.51 L 83.475 146.59 L 64.835 146.59 C 63.9 146.59 63.14 147.353 63.14 148.295 C 63.14 149.236 63.899 150 64.835 150 L 105.503 150 C 106.438 150 107.198 149.237 107.198 148.295 C 107.198 147.354 106.439 146.59 105.503 146.59 L 86.863 146.59 L 86.863 129.51 C 97.191 129.222 108.745 126.33 118.212 120.774 C 119.078 120.386 119.465 119.184 118.988 118.359 C 118.512 117.534 117.281 117.278 116.518 117.844 C 107.168 123.332 95.296 126.154 85.169 126.154 C 61.801 126.154 38.522 115.096 26.075 93.182 C 20.28 82.98 17.391 72.325 17.391 61.381 C 17.391 38.463 31.104 15.496 52.128 3.161 C 52.805 2.791 53.162 1.916 52.941 1.174 C 52.468 -0.064 51.485 -0.22 50.434 0.231 Z M 83.633 8.809 C 82.364 8.807 81.082 8.826 79.82 8.916 C 62.996 10.115 47.048 19.392 37.987 35.177 C 23.491 60.432 32.102 92.773 57.209 107.355 C 80.894 121.302 113.574 114.617 128.961 88.018 C 143.456 62.763 134.846 30.423 109.738 15.841 C 101.081 10.91 91.996 8.79 83.632 8.81 Z M 83.58 12.165 C 91.272 12.187 99.061 14.089 106.297 17.918 L 91.682 26.867 C 87.143 22.583 82.382 19.299 77.808 17.118 C 74.864 15.715 71.969 14.775 69.229 14.295 C 72.742 13.227 76.359 12.531 80.032 12.272 C 81.211 12.188 82.392 12.162 83.58 12.165 Z M 76.326 20.208 C 80.323 22.114 84.559 24.978 88.664 28.731 L 72.937 38.373 L 61.816 17.758 C 66.792 16.683 72.49 18.412 76.325 20.208 Z M 58.745 19.196 L 70.024 40.13 L 54.72 49.505 C 54.245 47.328 53.866 45.165 53.608 43.113 C 53.668 35.217 52.612 24.127 58.744 19.195 Z M 109.738 19.835 C 115.765 23.659 120.681 28.637 124.407 34.27 L 105.979 45.67 C 105.311 44.464 104.645 43.236 103.914 42.047 C 100.936 37.204 97.643 33.004 94.17 29.37 Z M 51.438 24.097 C 49.617 29.275 49.327 36.012 50.273 43.539 C 50.589 46.056 51.085 48.699 51.702 51.369 L 34.333 61.97 C 34.27 53.464 36.364 44.784 40.9 36.881 C 43.754 31.909 47.345 27.636 51.438 24.097 Z M 91.206 31.234 C 94.678 34.783 98.019 38.953 101.002 43.805 C 101.739 45.005 102.395 46.259 103.067 47.481 L 84.11 59.2 L 74.525 41.409 Z M 126.156 37.147 C 129.671 43.347 131.835 50.253 132.457 57.335 L 114.876 68.095 C 113.274 61.718 110.851 55.117 107.569 48.652 Z M 71.613 43.167 L 81.198 61.011 L 63.141 72.197 C 59.755 65.737 57.221 59.198 55.569 52.968 Z M 104.655 50.465 C 107.925 56.978 110.287 63.64 111.804 70.014 L 95.336 80.081 L 85.699 62.184 Z M 52.55 54.832 C 54.272 61.096 56.848 67.584 60.228 74.008 L 40.741 86.046 C 37.245 79.85 35.111 72.983 34.493 65.911 Z M 132.614 61.277 C 132.683 69.787 130.59 78.397 126.047 86.314 C 123.176 91.317 119.582 95.651 115.457 99.205 C 117.363 93.883 117.765 86.81 116.886 78.963 C 116.622 76.597 116.184 74.156 115.669 71.665 Z M 82.838 63.993 L 92.423 81.838 L 76.749 91.426 C 71.764 85.892 68.005 80.926 64.782 75.179 Z M 112.543 73.581 C 112.925 75.571 113.285 77.499 113.496 79.388 C 113.389 87.633 114.291 98.63 108.254 104.05 L 96.975 83.116 Z M 61.868 76.99 C 65.174 82.843 69.617 88.818 73.783 93.237 L 57.209 103.411 C 51.164 99.575 46.217 94.635 42.488 88.975 Z M 94.011 84.874 L 105.079 105.435 C 100.132 106.257 94.577 104.253 90.887 102.345 C 87.122 100.368 83.177 97.511 79.29 93.875 Z M 76.272 95.74 C 80.561 99.837 85.007 103.075 89.298 105.328 C 92.448 106.983 95.547 108.167 98.459 108.737 C 86.302 112.651 72.682 111.784 60.596 105.381 Z" fill="currentColor"></path></svg>