<svg viewBox="0 0 150 150" xmlns="http://www.w3.org/2000/svg" width="150" height="150" fill="none"><path d="M 124.049 123.504 L 22.454 123.504 C 21.651 123.504 21.001 122.853 21.001 122.045 C 21.001 121.242 21.651 120.592 22.454 120.592 L 24.592 120.592 C 24.809 119.695 25.378 118.096 26.901 116.42 C 28.887 114.24 32.614 111.826 39.686 111.076 C 40.471 109.892 42.346 107.555 45.586 106.271 C 48.241 105.217 51.838 104.842 56.532 106.535 C 58.764 103.4 66.317 94.746 78.687 100.189 C 80.814 99.679 88.319 98.519 93.488 105.797 C 96.318 104.947 103.701 103.67 109.794 110.824 C 111.698 110.607 116.234 110.496 120.136 113.437 C 122.093 114.914 123.915 117.164 125.134 120.591 L 127.542 120.591 C 128.345 120.591 129.001 121.242 129.001 122.045 C 129.001 122.853 128.345 123.504 127.542 123.504 Z M 27.656 120.592 L 122.009 120.592 C 121.048 118.359 119.771 116.812 118.376 115.764 C 114.362 112.734 109.505 113.807 109.505 113.807 C 108.954 113.93 108.392 113.724 108.046 113.285 C 101.735 105.252 93.497 108.873 93.497 108.873 C 92.835 109.172 92.05 108.931 91.663 108.31 C 86.882 100.582 79.013 103.113 79.013 103.113 C 78.662 103.23 78.281 103.207 77.947 103.049 C 65.162 97.101 58.364 109.043 58.364 109.043 C 58.001 109.681 57.216 109.951 56.536 109.67 C 52.241 107.871 49.001 108.047 46.657 108.973 C 43.3 110.309 41.852 113.115 41.852 113.115 C 41.624 113.56 41.179 113.859 40.681 113.906 C 31.136 114.732 28.411 118.728 27.656 120.592 Z M 76.723 114.445 C 76.037 114.861 75.141 114.65 74.719 113.965 C 74.303 113.279 74.514 112.377 75.199 111.961 C 75.199 111.961 81.662 108.006 86.508 113.432 C 88.154 113.016 91.406 112.682 94.646 115.148 C 95.285 115.64 95.408 116.549 94.916 117.193 C 94.43 117.826 93.516 117.955 92.877 117.463 C 89.748 115.078 86.607 116.449 86.607 116.449 C 85.98 116.736 85.242 116.543 84.832 115.992 C 81.522 111.498 76.723 114.445 76.723 114.445 Z M 56.672 117.17 C 56.192 117.82 55.284 117.955 54.633 117.48 C 53.989 117.006 53.848 116.092 54.323 115.447 C 54.323 115.447 55.846 113.326 58.835 112.676 C 60.698 112.265 63.182 112.406 66.235 114.181 C 66.926 114.586 67.167 115.476 66.762 116.168 C 66.358 116.865 65.468 117.099 64.77 116.695 C 62.567 115.418 60.798 115.224 59.456 115.517 C 57.628 115.916 56.672 117.17 56.672 117.17 Z M 63.487 36.791 C 62.286 37.459 60.188 38.221 57.797 37.383 C 55.583 36.615 52.958 34.395 50.76 28.811 C 50.602 28.412 50.626 27.973 50.831 27.598 C 51.024 27.223 51.381 26.947 51.797 26.854 C 51.797 26.854 54.938 26.15 58.09 26.719 C 60.165 27.094 62.221 28.014 63.563 29.865 C 64.366 30.979 64.928 32.426 65.04 34.336 C 65.063 34.348 65.086 34.365 65.11 34.377 C 70.413 37.67 73.419 43.324 75.036 49.255 C 75.428 48.604 75.897 47.919 76.465 47.21 C 75.393 44.954 73.958 40.641 75.985 36.516 C 77.831 32.772 82.629 28.987 93.827 27.428 C 94.249 27.37 94.683 27.499 94.999 27.786 C 95.316 28.073 95.497 28.483 95.48 28.911 C 95.48 28.911 95.281 35.901 93.956 43.272 C 93.042 48.358 88.882 51.129 84.775 51.504 C 82.355 51.727 79.97 51.106 78.241 49.694 C 76.771 51.756 76.214 53.467 76.056 54.053 C 77.152 60.897 76.759 67.278 76.542 69.656 C 77.023 70.013 77.532 70.517 78.036 71.173 C 79.794 73.459 81.851 77.724 82.8 81.937 C 83.667 85.816 83.527 89.636 81.722 92.044 C 80.421 93.773 78.294 94.916 74.966 94.839 C 72.446 94.781 70.665 94.042 69.423 92.917 C 67.589 91.253 66.903 88.646 67.091 85.675 C 67.366 81.117 69.669 75.667 71.667 72.374 C 72.364 71.214 73.056 70.311 73.612 69.749 C 73.8 67.874 74.304 61.306 73.144 54.275 C 73.144 54.252 73.138 54.222 73.132 54.193 C 73.009 53.443 72.862 52.687 72.698 51.931 C 71.403 46.037 68.819 40.107 63.569 36.849 C 63.546 36.831 63.517 36.814 63.487 36.79 Z M 80.122 47.473 C 81.276 48.404 82.888 48.756 84.511 48.603 C 87.44 48.334 90.44 46.389 91.091 42.756 C 91.976 37.816 92.345 33.053 92.491 30.58 C 84.007 32.021 80.099 34.764 78.599 37.805 C 77.327 40.395 77.878 43.072 78.587 44.895 C 79.812 43.74 81.312 42.586 83.134 41.52 C 83.825 41.109 84.716 41.344 85.12 42.035 C 85.53 42.733 85.296 43.623 84.605 44.027 C 82.747 45.123 81.276 46.307 80.122 47.473 Z M 62.116 34.248 C 62.01 33.128 61.694 32.25 61.202 31.576 C 60.323 30.363 58.934 29.83 57.575 29.583 C 56.362 29.367 55.149 29.378 54.206 29.455 C 55.706 32.63 57.27 34.119 58.758 34.64 C 60.194 35.138 61.442 34.64 62.116 34.248 Z M 75.176 72.34 C 74.871 72.739 74.525 73.266 74.156 73.881 C 72.357 76.846 70.248 81.744 69.996 85.858 C 69.873 87.844 70.148 89.649 71.379 90.762 C 72.187 91.494 73.383 91.893 75.029 91.928 C 76.658 91.963 77.871 91.641 78.726 90.973 C 79.687 90.229 80.15 89.08 80.332 87.756 C 80.543 86.186 80.361 84.387 79.951 82.576 C 79.107 78.809 77.297 74.988 75.726 72.944 C 75.562 72.738 75.363 72.522 75.176 72.34 Z M 71.783 80.233 C 72.053 79.477 72.885 79.078 73.641 79.348 C 74.402 79.618 74.795 80.45 74.525 81.205 C 74.525 81.205 74.285 81.891 74.051 82.869 C 73.869 83.655 73.084 84.135 72.299 83.947 C 71.519 83.766 71.033 82.981 71.221 82.195 C 71.496 81.041 71.783 80.233 71.783 80.233 Z M 70.728 86.449 C 70.693 85.647 71.314 84.967 72.117 84.926 C 72.92 84.891 73.599 85.512 73.641 86.315 C 73.687 87.352 73.91 88.371 75.088 88.442 C 75.885 88.488 76.5 89.18 76.453 89.983 C 76.406 90.785 75.715 91.395 74.912 91.348 C 73.664 91.272 72.762 90.815 72.105 90.147 C 71.232 89.262 70.799 87.926 70.728 86.449 Z" fill="currentColor"></path></svg>