<svg viewBox="0 0 150 150" xmlns="http://www.w3.org/2000/svg" width="150" height="150" fill="none"><path d="M 142.127 99.584 L 149.173 107.204 C 149.722 107.798 150 108.586 150 109.374 C 150 110.161 149.722 110.949 149.173 111.544 L 114.44 149.104 C 113.89 149.699 113.162 150 112.433 150 C 111.705 150 110.976 149.699 110.426 149.104 L 103.381 141.484 C 102.831 140.891 102.553 140.103 102.553 139.315 C 102.553 138.527 102.831 137.74 103.381 137.145 L 138.114 99.584 C 138.663 98.99 139.392 98.689 140.12 98.689 C 140.849 98.689 141.577 98.983 142.127 99.584 Z M 73.436 1.69 C 73.436 0.759 74.138 0 74.999 0 C 75.86 0 76.562 0.759 76.562 1.69 L 76.562 14.781 C 76.562 15.712 75.86 16.471 74.999 16.471 C 74.138 16.471 73.436 15.712 73.436 14.781 Z M 143.987 74.606 C 144.847 74.606 145.55 75.365 145.55 76.296 C 145.55 77.227 144.847 77.986 143.987 77.986 L 131.882 77.986 C 131.021 77.986 130.319 77.227 130.319 76.296 C 130.319 75.365 131.021 74.606 131.882 74.606 Z M 133.961 37.538 C 134.702 37.073 135.662 37.345 136.094 38.154 C 136.524 38.956 136.272 39.995 135.524 40.46 L 125.041 47.006 C 124.299 47.471 123.339 47.199 122.909 46.39 C 122.479 45.588 122.73 44.549 123.478 44.084 Z M 108.142 10.847 C 108.572 10.045 109.52 9.766 110.268 10.224 C 111.009 10.69 111.268 11.714 110.844 12.523 L 104.792 23.859 C 104.361 24.661 103.414 24.941 102.666 24.482 C 101.924 24.017 101.666 22.993 102.09 22.184 Z M 6.011 77.984 C 5.15 77.984 4.448 77.225 4.448 76.294 C 4.448 75.363 5.15 74.604 6.011 74.604 L 18.116 74.604 C 18.977 74.604 19.678 75.363 19.678 76.294 C 19.678 77.225 18.977 77.984 18.116 77.984 Z M 14.474 40.45 C 13.732 39.985 13.474 38.954 13.904 38.144 C 14.335 37.342 15.288 37.063 16.036 37.528 L 26.519 44.074 C 27.261 44.539 27.519 45.571 27.089 46.38 C 26.658 47.182 25.705 47.461 24.956 46.996 Z M 39.155 12.522 C 38.725 11.72 38.983 10.688 39.731 10.223 C 40.473 9.757 41.426 10.037 41.857 10.846 L 47.909 22.182 C 48.34 22.984 48.082 24.015 47.333 24.481 C 46.592 24.946 45.638 24.667 45.208 23.858 Z M 66.444 61.928 C 65.047 61.928 63.657 61.355 62.604 60.216 L 53.313 50.169 C 52.26 49.03 51.73 47.519 51.73 46.015 C 51.73 44.504 52.26 43 53.313 41.862 C 54.366 40.723 55.763 40.15 57.154 40.15 C 58.551 40.15 59.942 40.723 60.995 41.862 L 70.285 51.909 C 71.338 53.048 71.868 54.559 71.868 56.063 C 71.868 57.574 71.338 59.077 70.285 60.216 C 69.232 61.362 67.835 61.928 66.444 61.928 Z M 105.833 64.062 C 106.469 64.749 107.443 64.706 108.072 64.033 C 109.124 62.916 110.502 62.35 111.887 62.35 C 113.277 62.35 114.674 62.923 115.727 64.062 C 116.779 65.2 117.309 66.704 117.309 68.215 C 117.309 69.719 116.779 71.23 115.727 72.369 L 77.094 114.148 C 75.1 116.303 72.948 117.693 70.233 118.545 L 60.307 121.668 C 58.684 122.175 57.234 122.842 55.89 123.702 C 54.532 124.568 53.294 125.628 52.108 126.902 L 46.844 132.595 L 16.083 99.338 L 35.446 78.399 L 37.698 80.834 C 39.36 82.631 41.558 83.534 43.75 83.534 C 45.942 83.534 48.134 82.631 49.803 80.834 C 51.458 79.043 52.293 76.68 52.299 74.317 C 53.378 74.822 54.541 75.083 55.716 75.083 C 57.908 75.083 60.1 74.181 61.769 72.383 C 63.57 70.436 64.464 67.729 64.233 64.993 C 64.961 65.201 65.709 65.308 66.458 65.308 C 68.649 65.308 70.841 64.406 72.51 62.608 C 74.172 60.811 75.007 58.433 75.007 56.063 C 75.007 54.81 74.775 53.557 74.305 52.389 C 76.49 52.382 78.675 51.487 80.337 49.689 C 81.999 47.892 82.834 45.514 82.834 43.144 C 82.834 40.774 82 38.403 80.337 36.606 L 77.225 33.24 L 78.391 31.979 C 79.443 30.841 80.834 30.268 82.231 30.268 C 83.622 30.268 85.019 30.841 86.072 31.979 C 87.125 33.118 87.655 34.622 87.655 36.133 C 87.655 37.637 87.125 39.148 86.072 40.287 C 85.463 40.946 85.463 42.02 86.072 42.679 C 86.682 43.337 87.675 43.337 88.284 42.679 C 89.304 41.576 90.681 40.967 92.125 40.967 C 93.516 40.967 94.913 41.54 95.966 42.679 C 97.019 43.817 97.548 45.321 97.548 46.832 C 97.548 48.336 97.019 49.847 95.966 50.986 C 95.357 51.645 95.357 52.719 95.966 53.378 C 96.575 54.036 97.568 54.036 98.178 53.378 C 99.197 52.275 100.575 51.666 102.018 51.666 C 103.409 51.666 104.806 52.239 105.859 53.378 C 106.912 54.516 107.442 56.02 107.442 57.531 C 107.442 59.092 106.879 60.582 105.859 61.685 C 105.224 62.329 105.224 63.396 105.833 64.062 Z M 70.445 47.304 L 63.207 39.477 C 62.154 38.338 61.624 36.834 61.624 35.323 C 61.624 33.819 62.154 32.308 63.207 31.17 C 64.267 30.024 65.657 29.451 67.048 29.451 C 68.492 29.451 69.869 30.067 70.889 31.17 L 78.127 38.997 C 79.18 40.135 79.709 41.639 79.709 43.15 C 79.709 44.654 79.18 46.165 78.127 47.304 C 77.074 48.443 75.683 49.015 74.286 49.015 C 72.889 49.008 71.498 48.443 70.445 47.304 Z M 51.102 52.56 L 59.545 61.691 C 60.598 62.83 61.128 64.333 61.128 65.845 C 61.128 67.348 60.598 68.859 59.545 69.998 C 58.492 71.137 57.102 71.71 55.705 71.71 C 54.314 71.71 52.917 71.137 51.864 69.998 L 43.42 60.868 C 42.368 59.729 41.838 58.225 41.838 56.714 C 41.838 55.21 42.368 53.699 43.42 52.56 C 44.473 51.422 45.864 50.842 47.261 50.842 C 48.702 50.84 50.084 51.458 51.102 52.56 Z M 47.586 70.141 C 48.639 71.28 49.169 72.791 49.169 74.295 C 49.169 75.806 48.639 77.31 47.586 78.448 C 46.533 79.587 45.136 80.16 43.745 80.16 C 42.348 80.16 40.957 79.587 39.904 78.448 L 33.534 71.559 C 32.481 70.42 31.951 68.909 31.951 67.406 C 31.951 65.895 32.481 64.391 33.534 63.252 C 34.587 62.113 35.984 61.54 37.375 61.54 C 38.772 61.54 40.163 62.113 41.216 63.252 Z M 7.867 99.581 C 8.423 98.979 9.152 98.685 9.88 98.685 C 10.609 98.685 11.337 98.986 11.887 99.581 L 46.619 137.134 C 47.169 137.728 47.447 138.516 47.447 139.304 C 47.447 140.091 47.169 140.879 46.619 141.474 L 39.574 149.094 C 39.024 149.687 38.295 149.989 37.567 149.989 C 36.839 149.989 36.11 149.687 35.561 149.094 L 0.828 111.532 C 0.278 110.938 0 110.15 0 109.362 C 0 108.575 0.278 107.787 0.828 107.192 L 7.867 99.58 Z M 77.969 117.855 C 78.425 117.44 78.863 117.003 79.3 116.53 L 114.555 78.404 L 133.917 99.343 L 103.164 132.6 L 97.9 126.908 C 95.529 124.343 92.92 122.682 89.702 121.665 L 79.775 118.543 C 79.162 118.349 78.558 118.119 77.967 117.856 Z" fill="currentColor"></path></svg>