<svg viewBox="0 0 150 150" xmlns="http://www.w3.org/2000/svg" width="150" height="150" fill="none"><g transform="translate(0 25)"><path d="M 35.955 8.113 L 26.316 1.883 C 24.782 0.84 22.507 1.417 21.657 3.066 L 0.397 42.022 C -0.42 43.521 0.062 45.421 1.496 46.347 L 11.135 52.577 C 12.669 53.62 14.942 53.042 15.793 51.394 L 37.053 12.437 C 37.871 10.938 37.388 9.039 35.955 8.112 Z M 100.993 16.357 C 92.493 14.174 81.576 12.928 68.546 12.653 C 65.958 12.612 59.666 13.054 57.23 18.089 C 54.338 22.18 49.33 29.585 48.028 36.487 C 47.756 37.931 48.502 39.35 49.801 39.861 C 54.701 41.79 59.642 35.603 62.925 30.074 C 64.908 26.717 68.526 24.53 72.36 24.517 C 74.023 24.517 75.55 24.959 76.726 25.806 C 98.413 41.46 102.956 44.253 121.9 57.916 C 122.269 58.182 123.072 58.172 123.384 57.897 L 130.762 51.343 L 112.752 14.986 C 109.057 16.777 104.696 17.308 100.995 16.357 Z M 33.67 57.305 C 32.747 56.546 28.22 55.151 26.292 58.299 L 21.814 64.345 C 19.937 66.878 20.366 70.527 22.769 72.48 C 25.003 74.363 28.442 73.86 30.132 71.486 L 34.62 65.447 C 36.503 62.913 36.077 59.261 33.67 57.305 Z M 47.242 62.915 C 44.098 61.133 40.85 62.559 39.834 63.93 L 31.377 75.309 C 29.474 77.871 29.91 81.556 32.349 83.525 C 34.601 85.41 38.057 84.9 39.757 82.511 L 48.214 71.132 C 50.117 68.57 49.681 64.884 47.242 62.915 Z" fill="currentColor"></path><path d="M 119.447 60.202 C 105.192 50.062 89.912 39.304 74.372 28.228 C 72.221 27.211 67.98 28.049 65.767 31.776 C 58.642 43.776 52.512 44.47 48.623 42.94 C 45.862 41.853 44.266 38.896 44.828 35.909 C 46.03 29.526 50.138 22.651 53.164 18.256 L 39.558 14.764 L 19.17 52.125 L 23.807 56.211 C 28.128 50.165 38.031 53.114 38.94 60.256 C 45.645 54.96 54.857 62.458 52.325 70.179 C 58.735 69.312 63.602 76.574 61.298 82.355 C 68.198 81.585 73.01 89.921 69.646 95.768 C 73.545 97.605 79.537 98.712 84.848 92.548 L 69.403 77.432 C 68.756 76.798 68.745 75.761 69.379 75.113 C 70.012 74.465 71.05 74.455 71.697 75.088 L 88.118 91.159 C 90.645 93.229 94.505 92.609 96.336 89.9 C 98.312 87.11 97.798 83.123 95.189 81.011 C 95.179 81.003 95.171 80.992 95.161 80.983 C 95.15 80.975 95.137 80.968 95.127 80.959 L 78.571 66.141 C 77.896 65.537 77.839 64.501 78.443 63.825 C 79.046 63.151 80.083 63.094 80.758 63.697 C 83.381 65.987 98.372 79.776 101.034 81.217 C 103.567 83.131 107.268 82.429 109.048 79.809 C 110.78 77.363 110.606 73.883 108.662 71.65 L 88.038 56.652 C 87.305 56.119 87.144 55.094 87.676 54.361 C 88.209 53.628 89.234 53.467 89.966 53.999 C 90.998 54.754 112.273 70.211 112.676 70.533 C 115.208 72.466 118.928 71.771 120.714 69.141 C 122.71 66.322 122.129 62.234 119.448 60.204 Z" fill="currentColor"></path><path d="M 65.312 86.778 C 64.368 85.99 60.82 84.666 57.794 87.816 L 55.298 91.318 C 53.495 93.848 53.953 97.471 56.319 99.393 C 58.562 101.283 62.013 100.777 63.708 98.392 L 66.268 94.942 C 68.153 92.401 67.724 88.739 65.312 86.778 Z M 56.426 74.526 C 53.557 72.305 50.05 74.17 49.037 75.537 L 42.598 84.2 C 40.699 86.757 41.177 90.537 43.642 92.456 C 45.918 94.438 49.499 93.922 51.194 91.425 L 57.462 82.63 C 59.276 80.086 58.85 76.402 56.426 74.526 Z M 149.663 41.663 L 129.919 1.804 C 129.383 0.69 127.068 -0.735 125.305 0.441 L 115.492 6.272 C 114.027 7.143 113.472 9.02 114.229 10.547 L 133.972 50.406 C 134.757 52.089 137.012 52.756 138.586 51.769 L 148.398 45.938 C 149.864 45.068 150.419 43.19 149.663 41.663 Z" fill="currentColor"></path></g></svg>