<svg viewBox="0 0 150 150" xmlns="http://www.w3.org/2000/svg" width="150" height="150" fill="none"><path d="M 75 39 C 72.513 39 70.5 36.985 70.5 34.5 L 70.5 25.5 C 70.5 23.015 72.513 21 75 21 C 77.487 21 79.5 23.015 79.5 25.5 L 79.5 34.5 C 79.5 36.985 77.487 39 75 39 Z" fill="currentColor"></path><path d="M 57.601 40.044 L 53.101 32.25 C 51.858 30.099 52.596 27.345 54.75 26.101 C 56.89 24.858 59.65 25.596 60.898 27.75 L 65.398 35.544 C 66.642 37.695 65.904 40.449 63.75 41.692 C 61.612 42.927 58.852 42.207 57.601 40.044 Z" fill="currentColor"></path><path d="M 86.25 41.691 C 84.096 40.448 83.358 37.694 84.602 35.543 L 89.102 27.749 C 90.345 25.595 93.101 24.857 95.25 26.1 C 97.404 27.344 98.142 30.098 96.899 32.249 L 92.399 40.043 C 91.146 42.207 88.388 42.925 86.25 41.691 Z" fill="currentColor"></path><path d="M 79.5 90.75 C 79.5 99.434 72.434 106.5 63.75 106.5 C 55.066 106.5 48 99.434 48 90.75 C 48 82.066 55.066 75 63.75 75 C 72.434 75 79.5 82.066 79.5 90.75 Z" fill="currentColor"></path><path d="M 135.75 52.5 L 63.75 52.5 C 54.003 52.5 45.136 56.176 38.381 62.178 C 36.721 56.603 31.607 52.5 25.5 52.5 C 18.056 52.5 12 58.556 12 66 C 12 73.782 18.732 80.433 27.239 79.325 C 26.111 82.932 25.5 86.769 25.5 90.75 C 25.5 111.875 42.625 129 63.75 129 C 84.875 129 102 111.875 102 90.75 C 102 86.484 101.273 82.395 99.984 78.564 L 136.218 70.878 C 137.256 70.658 138 69.74 138 68.678 L 138 54.75 C 138 53.507 136.993 52.5 135.75 52.5 Z M 18.75 66 C 18.75 62.278 21.778 59.25 25.5 59.25 C 29.222 59.25 32.25 62.278 32.25 66 C 32.25 69.722 29.222 72.75 25.5 72.75 C 21.778 72.75 18.75 69.722 18.75 66 Z M 63.75 115.5 C 50.105 115.5 39 104.397 39 90.75 C 39 77.103 50.105 66 63.75 66 C 77.395 66 88.5 77.103 88.5 90.75 C 88.5 104.397 77.395 115.5 63.75 115.5 Z" fill="currentColor"></path></svg>