<svg viewBox="0 0 150 150" xmlns="http://www.w3.org/2000/svg" width="150" height="150" fill="none"><path d="M 114.826 97.892 C 114.047 97.635 113.326 97.336 112.518 97.025 L 112.518 97.019 C 111.539 96.598 110.531 96.258 109.5 96 C 107.572 95.584 105.557 95.795 103.758 96.598 L 103.758 112.95 C 103.98 119.284 109.183 124.306 115.523 124.306 C 121.863 124.306 127.066 119.284 127.289 112.95 L 127.289 96.825 C 124.904 97.979 122.291 98.589 119.642 98.595 C 118.008 98.595 116.385 98.36 114.826 97.891 Z M 121.412 112.892 L 121.412 107.068 C 121.412 106.242 122.08 105.568 122.912 105.568 C 123.738 105.568 124.412 106.242 124.412 107.068 L 124.412 112.951 C 124.412 117.873 120.422 121.857 115.5 121.857 C 114.674 121.857 114 121.189 114 120.357 C 114 119.531 114.674 118.857 115.5 118.857 C 118.746 118.81 121.359 116.191 121.412 112.951 Z M 26.742 106.5 C 28.646 106.693 30.568 106.992 32.414 107.297 C 35.438 107.853 38.496 108.176 41.566 108.258 C 45.762 108.129 49.934 107.537 54 106.5 C 55.963 106.066 57.99 105.615 60 105.269 C 64.623 104.291 69.41 104.373 73.993 105.51 C 73.489 99.879 71.368 94.512 67.893 90.052 C 64.412 85.599 59.725 82.236 54.393 80.367 C 51.715 79.464 49.911 76.968 49.893 74.144 L 49.893 61.107 C 49.893 60.28 50.561 59.607 51.393 59.607 L 55.893 59.607 C 56.186 59.624 56.479 59.507 56.69 59.296 C 56.901 59.085 57.012 58.798 57 58.499 L 57 54.972 C 56.995 54.398 56.526 53.935 55.952 53.923 L 46.067 53.923 L 46.067 26.729 C 46.073 20.53 51.1 15.503 57.299 15.491 L 77.567 15.491 C 78.393 15.491 79.067 14.823 79.067 13.991 C 79.067 13.165 78.393 12.491 77.567 12.491 L 57.299 12.491 C 49.442 12.503 43.073 18.872 43.067 26.73 L 43.067 54 L 33.586 54 C 33.311 54 33.041 54.111 32.848 54.31 C 32.655 54.504 32.549 54.773 32.549 55.049 L 32.549 58.5 C 32.561 59.068 33.012 59.531 33.586 59.548 L 38.086 59.548 C 38.485 59.548 38.866 59.707 39.147 59.988 C 39.428 60.269 39.586 60.65 39.586 61.048 L 39.586 74.01 C 39.616 76.822 37.858 79.342 35.203 80.279 C 29.514 82.224 24.551 85.869 21.001 90.726 C 17.451 95.584 15.476 101.414 15.347 107.431 C 19.032 106.289 22.923 105.972 26.743 106.5 Z M 50.355 89.777 C 51.679 89.777 52.874 90.574 53.378 91.805 C 53.882 93.029 53.595 94.441 52.652 95.373 C 51.708 96.305 50.29 96.574 49.072 96.053 C 47.853 95.531 47.068 94.324 47.085 93 C 47.109 91.213 48.568 89.777 50.355 89.777 Z M 37.112 97.635 L 37.106 97.635 C 38.97 97.635 40.651 98.76 41.366 100.476 C 42.075 102.199 41.683 104.18 40.364 105.498 C 39.046 106.81 37.065 107.209 35.349 106.494 C 33.626 105.779 32.507 104.103 32.507 102.24 C 32.513 99.697 34.569 97.641 37.106 97.635 Z M 103.74 62.068 L 127.276 62.068 L 127.276 93.357 C 123.842 95.554 119.635 96.164 115.721 95.027 C 115.018 94.804 114.327 94.517 113.635 94.248 L 113.641 94.242 C 112.516 93.738 111.35 93.322 110.161 93 C 108.028 92.531 105.813 92.631 103.739 93.299 L 103.739 82.142 L 110.998 82.142 C 111.825 82.142 112.498 81.469 112.498 80.642 C 112.498 79.81 111.825 79.142 110.998 79.142 L 103.739 79.142 L 103.739 72.463 L 110.998 72.463 C 111.825 72.463 112.498 71.795 112.498 70.963 C 112.498 70.136 111.825 69.463 110.998 69.463 L 103.739 69.463 Z M 133.5 54 L 116.701 54 L 116.701 39.181 C 116.713 36.75 115.752 34.412 114.041 32.689 C 112.324 30.967 109.998 30 107.566 30 L 91.846 30 L 91.846 26.73 C 91.858 21.75 89.256 17.133 84.991 14.566 C 84.751 14.42 84.475 14.338 84.194 14.338 C 83.508 14.338 82.905 14.801 82.735 15.468 C 82.565 16.136 82.87 16.834 83.473 17.162 C 86.819 19.189 88.852 22.822 88.846 26.73 L 88.846 30 L 83.327 30 C 80.092 30 77.467 32.619 77.461 35.847 C 77.461 39.088 80.086 41.713 83.327 41.713 L 85.999 41.713 L 85.993 41.713 C 89.227 41.707 91.846 39.082 91.846 35.847 L 91.846 33 L 107.566 33 C 110.947 33.006 113.689 35.748 113.701 39.134 L 113.701 53.999 L 97.5 53.999 C 96.92 53.999 96.451 54.468 96.451 55.048 L 96.451 58.048 C 96.468 58.623 96.931 59.08 97.5 59.085 L 133.5 59.085 C 134.068 59.08 134.531 58.623 134.548 58.048 L 134.548 55.048 C 134.543 54.474 134.074 54.005 133.5 53.999 Z M 88.786 36 C 88.786 36.756 88.487 37.488 87.954 38.027 C 87.421 38.561 86.694 38.865 85.932 38.865 L 83.325 38.865 C 81.743 38.865 80.46 37.582 80.46 36 C 80.454 35.25 80.753 34.535 81.286 34.008 C 81.796 33.404 82.534 33.041 83.325 33 L 88.845 33 Z M 60.508 108.164 C 58.546 108.492 56.547 108.943 54.614 109.365 C 50.348 110.478 45.971 111.117 41.565 111.269 C 38.337 111.187 35.12 110.853 31.95 110.267 C 30.134 109.98 28.276 109.699 26.442 109.5 C 22.757 108.99 19.001 109.383 15.491 110.642 C 16.183 117.65 19.335 124.19 24.386 129.1 C 29.436 134.01 36.063 136.975 43.096 137.461 C 51.076 137.918 58.892 135.1 64.747 129.656 C 70.6 124.219 73.981 116.619 74.098 108.633 C 69.68 107.344 65.01 107.18 60.511 108.164 Z M 35.682 121.5 C 34.469 121.5 33.374 120.768 32.911 119.649 C 32.448 118.529 32.706 117.235 33.561 116.379 C 34.422 115.524 35.712 115.266 36.831 115.729 C 37.95 116.192 38.682 117.287 38.682 118.5 C 38.682 119.297 38.366 120.059 37.803 120.621 C 37.241 121.184 36.479 121.5 35.682 121.5 Z M 49.258 121.008 C 50.571 121.014 51.755 121.811 52.253 123.024 C 52.757 124.242 52.469 125.637 51.538 126.568 C 50.606 127.494 49.212 127.77 47.993 127.266 C 46.78 126.762 45.989 125.572 45.989 124.26 C 45.971 123.381 46.305 122.531 46.921 121.904 C 47.536 121.277 48.38 120.926 49.259 120.932 Z M 66.509 116.942 C 64.78 121.295 61.774 125.028 57.895 127.653 C 54.011 130.278 49.429 131.672 44.742 131.655 C 43.915 131.655 43.242 130.987 43.242 130.155 C 43.242 129.328 43.915 128.655 44.742 128.655 C 53.103 128.69 60.633 123.604 63.719 115.828 C 64.024 115.061 64.897 114.686 65.67 114.99 C 66.438 115.295 66.813 116.168 66.508 116.942 Z" fill="currentColor"></path></svg>