<svg viewBox="0 0 150 150" xmlns="http://www.w3.org/2000/svg" width="150" height="150" fill="none"><path d="M 130.725 116.536 L 127.877 116.536 L 127.877 105.404 C 127.877 103.048 125.956 101.126 123.6 101.126 L 83.34 101.132 C 79.906 101.132 76.86 102.843 75.002 105.439 C 73.145 102.831 70.098 101.132 66.664 101.132 L 26.387 101.132 C 24.031 101.132 22.109 103.054 22.109 105.409 L 22.109 116.542 L 19.262 116.542 C 16.906 116.542 14.984 118.464 14.984 120.819 L 14.984 125.607 C 14.984 126.655 15.84 127.499 16.877 127.499 L 59.78 127.499 C 62.182 127.499 64.326 129.028 65.088 131.308 C 65.856 133.558 67.877 134.999 70.25 134.999 L 79.713 134.999 C 82.08 134.999 84.108 133.546 84.875 131.308 C 85.655 129.029 87.787 127.499 90.184 127.499 L 133.086 127.499 C 134.135 127.499 134.979 126.644 134.979 125.607 L 134.979 120.819 C 135.002 118.452 133.081 116.536 130.725 116.536 Z M 25.906 112.634 L 57.301 112.634 C 58.35 112.634 59.194 111.778 59.194 110.741 C 59.194 109.692 58.338 108.849 57.301 108.849 L 25.906 108.854 L 25.906 105.421 C 25.906 105.163 26.117 104.94 26.387 104.94 L 66.664 104.94 C 70.221 104.94 73.115 107.835 73.115 111.392 C 73.115 112.44 73.971 113.284 75.008 113.284 C 76.045 113.284 76.901 112.429 76.901 111.392 C 76.901 107.835 79.795 104.94 83.352 104.94 L 123.629 104.94 C 123.887 104.94 124.11 105.151 124.11 105.421 L 124.11 108.854 L 92.702 108.854 C 91.653 108.854 90.81 109.71 90.81 110.747 C 90.81 111.796 91.665 112.64 92.702 112.64 L 124.097 112.64 L 124.097 116.542 L 83.34 116.536 C 79.906 116.536 76.859 118.247 75.002 120.843 C 73.144 118.235 70.098 116.536 66.664 116.536 L 25.906 116.536 Z M 131.205 123.691 L 90.212 123.691 C 86.193 123.691 82.607 126.257 81.3 130.083 C 81.06 130.775 80.462 131.208 79.724 131.208 L 70.261 131.208 C 69.529 131.208 68.925 130.775 68.685 130.083 C 67.379 126.257 63.81 123.691 59.773 123.691 L 18.799 123.691 L 18.799 120.808 C 18.799 120.55 19.01 120.327 19.28 120.327 L 66.665 120.327 C 70.221 120.327 73.116 123.222 73.116 126.778 C 73.116 127.827 73.971 128.671 75.009 128.671 C 76.046 128.671 76.901 127.816 76.901 126.778 C 76.901 123.222 79.796 120.327 83.352 120.327 L 130.737 120.327 C 130.995 120.327 131.218 120.538 131.218 120.808 Z M 39.213 56.519 C 39.945 57.252 39.945 58.453 39.213 59.203 L 34.127 64.289 C 33.752 64.664 33.271 64.846 32.791 64.846 C 32.31 64.846 31.818 64.664 31.455 64.289 C 30.722 63.556 30.722 62.355 31.455 61.605 L 36.541 56.519 C 37.279 55.769 38.474 55.769 39.212 56.519 Z M 31.455 21.239 C 30.722 20.507 30.722 19.306 31.455 18.556 C 32.187 17.823 33.388 17.823 34.138 18.556 L 39.224 23.642 C 39.957 24.374 39.957 25.575 39.224 26.325 C 38.849 26.7 38.369 26.882 37.888 26.882 C 37.408 26.882 36.916 26.7 36.552 26.325 Z M 24.482 41.413 C 24.482 40.364 25.338 39.52 26.375 39.52 L 35.75 39.52 C 36.799 39.52 37.642 40.376 37.642 41.413 C 37.642 42.462 36.787 43.306 35.75 43.306 L 26.375 43.306 C 25.338 43.306 24.482 42.462 24.482 41.413 Z M 114.242 39.526 L 123.617 39.526 C 124.666 39.526 125.51 40.382 125.51 41.419 C 125.51 42.468 124.654 43.312 123.617 43.312 L 114.242 43.312 C 113.193 43.312 112.35 42.456 112.35 41.419 C 112.35 40.364 113.193 39.526 114.242 39.526 Z M 110.791 26.308 C 110.059 25.575 110.059 24.374 110.791 23.624 L 115.877 18.538 C 116.609 17.805 117.828 17.805 118.561 18.538 C 119.293 19.27 119.293 20.472 118.561 21.222 L 113.475 26.308 C 113.1 26.683 112.619 26.864 112.139 26.864 C 111.646 26.864 111.154 26.683 110.791 26.308 Z M 110.791 59.202 C 110.059 58.47 110.059 57.269 110.791 56.519 C 111.523 55.786 112.725 55.786 113.475 56.519 L 118.561 61.605 C 119.293 62.337 119.293 63.538 118.561 64.288 C 118.186 64.663 117.705 64.845 117.225 64.845 C 116.744 64.845 116.252 64.663 115.889 64.288 Z M 60.258 72.597 L 60.258 78.539 C 60.258 80.549 61.501 82.26 63.258 82.951 L 63.258 85.394 C 63.258 88.002 65.374 90.117 67.969 90.152 L 67.969 91.652 C 67.969 94.277 70.102 96.41 72.727 96.41 L 77.286 96.41 C 79.911 96.41 82.044 94.277 82.044 91.652 L 82.044 90.152 C 84.639 90.123 86.755 88.008 86.755 85.394 L 86.743 82.951 C 88.501 82.248 89.743 80.537 89.743 78.539 L 89.743 72.597 C 89.743 67.435 92.233 63.972 95.098 59.965 C 98.608 55.061 102.581 49.512 102.581 39.926 C 102.581 32.215 99.552 25.735 93.839 21.176 C 88.858 17.192 82.155 15 75 15 C 67.845 15 61.142 17.192 56.145 21.164 C 50.432 25.723 47.403 32.203 47.403 39.914 C 47.403 49.5 51.375 55.049 54.885 59.953 C 57.768 63.973 60.258 67.441 60.258 72.598 Z M 77.192 72.527 L 72.81 72.527 L 72.81 58.382 C 74.233 58.564 75.751 58.564 77.192 58.382 Z M 85.952 76.318 L 85.952 78.539 C 85.952 79.066 85.518 79.5 84.991 79.5 L 65.011 79.5 C 64.484 79.5 64.05 79.066 64.05 78.539 L 64.05 76.318 Z M 77.28 92.607 L 72.722 92.607 C 72.194 92.607 71.761 92.173 71.761 91.646 L 71.761 90.146 L 78.241 90.146 L 78.241 91.646 C 78.241 92.173 77.807 92.607 77.28 92.607 Z M 81.991 86.355 L 68.011 86.355 C 67.484 86.355 67.05 85.921 67.05 85.394 L 67.05 83.279 L 82.953 83.279 L 82.953 85.394 C 82.953 85.921 82.519 86.355 81.992 86.355 Z M 75.001 18.796 C 86.462 18.796 98.807 25.411 98.807 39.914 C 98.807 48.281 95.356 53.097 92.028 57.75 C 89.057 61.893 85.981 66.182 85.952 72.51 L 80.989 72.51 L 80.989 57.422 C 84.622 56.057 87.557 53.432 89.18 49.94 C 91.073 45.874 91.073 42.247 89.18 40.237 C 87.95 38.948 86.163 38.585 84.393 39.294 C 81.288 40.524 78 45.159 77.315 54.505 C 76.518 54.64 75.739 54.716 75.006 54.716 C 74.274 54.716 73.489 54.657 72.698 54.505 C 72.006 45.177 68.725 40.542 65.62 39.294 C 63.85 38.59 62.051 38.936 60.832 40.237 C 58.94 42.247 58.94 45.88 60.832 49.94 C 62.467 53.432 65.409 56.057 69.024 57.422 L 69.024 72.51 L 64.049 72.51 C 64.02 66.182 60.961 61.893 57.973 57.75 C 54.645 53.098 51.194 48.299 51.194 39.914 C 51.194 25.411 63.54 18.796 75 18.796 Z M 81.27 53.132 C 82.038 46.681 84.224 43.459 85.8 42.843 C 85.964 42.785 86.087 42.756 86.175 42.756 C 86.327 42.756 86.397 42.832 86.432 42.861 C 86.942 43.4 87.182 45.304 85.759 48.351 C 84.704 50.566 83.087 52.107 81.27 53.133 Z M 68.732 53.132 C 66.915 52.125 65.281 50.584 64.249 48.345 C 62.825 45.298 63.066 43.382 63.575 42.855 C 63.622 42.808 63.681 42.75 63.833 42.75 C 63.921 42.75 64.044 42.779 64.208 42.837 C 65.778 43.453 67.964 46.681 68.732 53.132 Z" fill="currentColor"></path></svg>