<svg viewBox="0 0 150 150" xmlns="http://www.w3.org/2000/svg" width="150" height="150" fill="none"><path d="M 93.478 7.156 L 93.478 26.073 C 93.478 30.024 96.544 33.228 100.328 33.228 L 118.381 33.228 C 120.88 36.177 123.374 39.127 125.872 42.078 C 126.207 42.471 126.846 42.141 126.846 41.677 L 126.846 33.229 L 138.151 33.229 C 141.934 33.229 145 30.026 145 26.074 L 144.999 7.155 C 144.999 3.206 141.933 0 138.151 0 L 100.328 0 C 96.544 -0.001 93.478 3.204 93.478 7.155 L 93.478 7.156 Z M 59.424 7.156 L 59.424 26.073 C 59.424 30.024 56.358 33.228 52.574 33.228 L 34.521 33.228 C 32.023 36.177 29.528 39.127 27.031 42.078 C 26.696 42.471 26.057 42.141 26.057 41.677 L 26.057 33.229 L 14.751 33.229 C 10.969 33.229 7.903 30.026 7.903 26.074 L 7.903 7.155 C 7.903 3.206 10.969 0 14.752 0 L 52.575 0 C 56.358 -0.001 59.425 3.204 59.425 7.155 L 59.424 7.156 Z M 96.051 137.057 L 96.051 148.63 C 96.051 149.387 95.437 150 94.679 150 L 87.103 150 L 87.103 137.953 C 87.103 137.346 86.611 136.854 86.003 136.854 C 85.394 136.854 84.902 137.346 84.902 137.953 L 84.902 150 L 66.09 150 L 66.09 137.953 C 66.09 137.346 65.597 136.854 64.989 136.854 C 64.381 136.854 63.889 137.346 63.889 137.953 L 63.889 150 L 56.313 150 C 55.555 150 54.941 149.387 54.941 148.63 L 54.941 137.057 C 54.941 134.004 56.69 131.293 59.319 130.253 L 66.831 125.351 C 67.294 125.045 67.897 125.05 68.354 125.368 C 68.783 125.623 72.773 127.334 75.472 127.345 L 75.495 127.345 C 78.183 127.345 82.196 125.628 82.654 125.356 C 83.112 125.045 83.691 125.05 84.16 125.356 L 91.672 130.258 C 94.295 131.299 96.05 134.01 96.05 137.062 Z M 63.894 59.617 C 63.894 59.01 64.387 58.519 64.995 58.519 C 65.603 58.519 66.095 59.01 66.095 59.617 L 66.095 68.919 L 84.908 68.919 L 84.908 59.617 C 84.908 59.01 85.4 58.519 86.008 58.519 C 86.616 58.519 87.109 59.01 87.109 59.617 L 87.109 68.919 L 96.057 68.919 L 96.057 58.721 C 96.057 55.669 94.302 52.958 91.678 51.917 L 84.166 47.015 C 83.703 46.715 83.124 46.703 82.666 47.015 C 82.209 47.287 78.195 49.004 75.502 49.004 L 75.479 49.004 C 72.786 48.998 68.789 47.287 68.361 47.027 C 67.903 46.714 67.301 46.709 66.838 47.015 L 59.326 51.917 C 56.702 52.958 54.947 55.669 54.947 58.721 L 54.947 68.919 L 63.896 68.919 Z M 19.831 88.342 C 19.506 88.174 19.13 88.134 18.782 88.243 C 18.435 88.347 18.145 88.59 17.971 88.914 L 14.259 95.903 C 14.08 96.24 14.05 96.636 14.178 96.995 C 14.305 97.354 14.577 97.648 14.925 97.799 L 25.993 102.62 C 26.161 102.696 26.346 102.735 26.543 102.735 L 40.71 102.735 C 43.652 102.735 46.05 100.348 46.05 97.406 C 46.05 95.978 45.494 94.642 44.492 93.648 C 43.49 92.637 42.146 92.076 40.716 92.076 L 26.891 92.076 L 19.843 88.342 Z M 25.113 104.633 L 14.045 99.812 C 13.135 99.412 12.429 98.649 12.104 97.719 C 11.78 96.783 11.855 95.748 12.319 94.875 L 16.031 87.886 C 16.477 87.042 17.224 86.429 18.139 86.146 C 18.479 86.042 18.832 85.99 19.188 85.99 C 19.773 85.99 20.346 86.134 20.861 86.406 L 27.429 89.886 L 27.916 89.886 L 27.916 87.869 C 27.916 84.261 26.138 80.885 23.155 78.845 C 21.629 77.801 19.864 77.159 18.024 76.977 C 17.669 76.943 17.314 76.926 16.958 76.926 C 14.033 76.926 11.282 78.064 9.209 80.134 C 7.141 82.198 6 84.943 6 87.869 L 6 114.853 C 6 115.61 6.614 116.223 7.373 116.223 L 26.544 116.223 C 27.302 116.223 27.916 115.61 27.916 114.853 L 27.916 104.928 L 26.544 104.928 C 26.051 104.928 25.571 104.823 25.113 104.627 Z M 22.697 74.405 C 29.248 74.405 34.576 69.087 34.576 62.548 C 34.576 56.01 29.248 50.692 22.697 50.692 C 16.147 50.692 10.819 56.01 10.819 62.548 C 10.819 69.087 16.147 74.405 22.697 74.405 Z M 106.508 93.65 C 105.506 94.644 104.95 95.985 104.95 97.407 C 104.95 100.344 107.342 102.737 110.29 102.737 L 124.457 102.737 C 124.654 102.737 124.839 102.697 125.007 102.622 L 136.075 97.8 C 136.428 97.65 136.695 97.355 136.822 96.996 C 136.95 96.638 136.92 96.24 136.742 95.904 L 133.028 88.915 C 132.861 88.591 132.565 88.354 132.218 88.245 C 131.869 88.14 131.493 88.176 131.169 88.343 L 124.121 92.077 L 110.296 92.077 C 108.86 92.077 107.522 92.632 106.52 93.649 Z M 141.791 80.135 C 139.717 78.065 136.967 76.926 134.041 76.926 C 133.694 76.926 133.335 76.944 132.976 76.978 C 131.145 77.157 129.367 77.799 127.845 78.845 C 124.862 80.886 123.083 84.262 123.083 87.869 L 123.083 89.887 L 123.57 89.887 L 130.138 86.407 C 130.654 86.134 131.228 85.991 131.812 85.99 C 132.165 85.99 132.519 86.042 132.86 86.147 C 133.77 86.424 134.522 87.043 134.968 87.886 L 138.68 94.875 C 139.143 95.749 139.225 96.789 138.895 97.72 C 138.571 98.65 137.858 99.413 136.955 99.812 L 125.886 104.633 C 125.435 104.83 124.954 104.934 124.457 104.934 L 123.083 104.934 L 123.083 114.859 C 123.083 115.617 123.698 116.229 124.457 116.229 L 143.628 116.229 C 144.386 116.229 145 115.617 145 114.859 L 145 87.875 C 145 84.95 143.858 82.204 141.791 80.14 Z M 128.296 74.406 C 134.846 74.406 140.175 69.088 140.175 62.549 C 140.175 56.011 134.846 50.693 128.296 50.693 C 121.745 50.693 116.417 56.011 116.417 62.549 C 116.417 69.088 121.745 74.406 128.296 74.406 Z M 75.493 45.884 C 82.043 45.884 87.372 40.565 87.372 34.027 C 87.372 27.489 82.043 22.171 75.493 22.171 C 68.943 22.171 63.614 27.489 63.614 34.027 C 63.614 40.565 68.943 45.884 75.493 45.884 Z M 75.493 124.22 C 78.296 124.22 81.018 123.225 83.161 121.422 C 85.837 119.161 87.372 115.861 87.372 112.37 C 87.372 105.831 82.043 100.513 75.493 100.513 C 68.942 100.513 63.614 105.831 63.614 112.37 C 63.614 115.861 65.149 119.161 67.825 121.422 C 69.962 123.225 72.69 124.22 75.493 124.22 Z M 115.079 105.478 L 110.283 105.478 C 105.824 105.478 102.198 101.86 102.198 97.408 C 102.198 95.246 103.044 93.223 104.573 91.697 C 106.073 90.182 108.112 89.338 110.283 89.338 L 111.21 89.338 L 106.977 71.667 L 44.015 71.662 L 39.781 89.333 L 40.708 89.333 C 42.88 89.333 44.918 90.182 46.441 91.714 C 47.953 93.217 48.793 95.241 48.793 97.402 C 48.793 101.854 45.167 105.472 40.708 105.472 L 35.912 105.472 L 32.42 120.045 C 32.321 120.456 32.42 120.883 32.675 121.214 C 32.935 121.542 33.332 121.733 33.752 121.733 L 64.286 121.733 C 62.075 119.108 60.863 115.787 60.863 112.357 C 60.863 104.304 67.425 97.76 75.487 97.76 C 83.555 97.76 90.112 104.311 90.112 112.357 C 90.112 115.819 88.89 119.127 86.689 121.733 L 117.223 121.733 C 117.646 121.733 118.039 121.543 118.301 121.214 C 118.561 120.883 118.654 120.456 118.556 120.045 L 115.063 105.472 Z" fill="currentColor"></path></svg>