<svg viewBox="0 0 150 150" xmlns="http://www.w3.org/2000/svg" width="150" height="150" fill="none"><path d="M 36.189 33.361 C 45.415 35.178 52.666 39.027 56.996 41.812 C 51.541 41.295 43.409 41.307 37.889 44.85 C 37.191 45.297 36.989 46.226 37.436 46.923 C 37.722 47.37 38.207 47.613 38.7 47.613 C 38.978 47.613 39.258 47.537 39.509 47.376 C 47.256 42.402 61.979 45.566 62.128 45.599 C 62.936 45.784 63.737 45.266 63.916 44.457 C 63.95 44.302 63.938 44.15 63.923 44 C 63.95 43.555 63.801 43.103 63.442 42.785 C 63.017 42.411 52.856 33.585 36.769 30.419 C 35.953 30.257 35.167 30.788 35.008 31.601 C 34.846 32.413 35.375 33.202 36.188 33.361 Z" fill="currentColor"></path><path d="M 75 45.341 C 41.024 45.345 15.795 71.619 15.043 105.105 C 14.243 140.781 47.975 143.054 74.999 143.054 C 102.03 143.057 135.76 140.795 134.959 105.109 C 134.207 71.614 108.985 45.338 75.001 45.343 Z M 75 92.699 C 83.34 92.699 90.125 97.838 90.125 104.151 C 90.125 109.487 85.28 113.966 78.751 115.235 L 78.751 121.481 L 75.751 121.481 L 75.751 115.577 C 75.5 115.586 75.254 115.604 75.001 115.604 C 74.747 115.604 74.501 115.586 74.251 115.577 L 74.251 121.481 L 71.251 121.481 L 71.251 115.235 C 64.721 113.966 59.876 109.487 59.876 104.151 L 62.876 104.151 C 62.876 108.812 68.315 112.604 75.001 112.604 C 81.686 112.604 87.125 108.813 87.125 104.151 C 87.125 99.489 81.686 95.699 75.001 95.699 C 66.661 95.699 59.876 90.56 59.876 84.243 C 59.876 78.911 64.721 74.43 71.25 73.162 L 71.25 66.916 L 74.25 66.916 L 74.25 72.82 C 74.5 72.811 74.747 72.792 75 72.792 C 75.253 72.792 75.5 72.811 75.75 72.82 L 75.75 66.916 L 78.75 66.916 L 78.75 73.162 C 85.279 74.431 90.125 78.912 90.125 84.243 L 87.125 84.243 C 87.125 79.582 81.686 75.792 75 75.792 C 68.315 75.792 62.876 79.582 62.876 84.243 C 62.876 88.903 68.315 92.699 75 92.699 Z" fill="currentColor"></path><path d="M 64.95 43.346 C 68.206 42.853 71.56 42.593 75.001 42.593 C 78.442 42.593 81.795 42.851 85.051 43.343 C 86.928 40.889 95.305 29.408 96.413 18.64 C 97.663 6.506 91.412 17.706 87.913 18.64 C 84.413 19.574 86.413 13.351 82.913 8.061 C 79.414 2.772 78.586 18.018 75 18.018 C 71.413 18.018 70.585 2.771 67.086 8.061 C 63.586 13.352 65.586 19.574 62.086 18.64 C 58.587 17.706 52.336 6.506 53.586 18.64 C 54.694 29.413 63.079 40.9 64.95 43.346 Z" fill="currentColor"></path></svg>