<svg viewBox="0 0 150 150" xmlns="http://www.w3.org/2000/svg" width="150" height="150" fill="none"><path d="M 43.674 9.69 C 61.626 24.681 84.803 -3.782 97.339 28.196 C 96.201 27.315 94.955 26.577 93.625 25.965 C 87.79 23.281 80.427 23.12 73.791 23.913 C 72.727 24.04 71.97 24.981 72.091 26.028 C 72.22 27.074 73.177 27.819 74.241 27.693 C 80.297 26.969 86.932 27.074 91.988 29.4 C 93.855 30.258 95.513 31.438 96.847 33.018 C 74.584 46.882 46.009 38.965 43.674 9.69 Z M 98.637 31.846 C 98.045 32.253 97.448 32.643 96.847 33.018 C 98.165 34.579 99.165 36.53 99.737 38.947 C 100.101 40.499 100.251 42.045 100.222 43.59 C 100.208 44.658 100.108 45.74 99.951 46.836 L 103.858 46.836 C 103.993 45.773 104.072 44.704 104.093 43.633 C 104.122 41.897 103.972 40.169 103.6 38.448 C 104.036 35.825 104.905 33.689 106.122 31.976 C 105.863 31.47 105.621 30.935 105.396 30.37 C 105.262 29.289 105.179 28.263 105.145 27.288 C 104.371 28.006 103.661 28.805 103.024 29.688 C 102.374 30.587 101.803 31.57 101.317 32.639 C 100.238 30.864 98.89 29.397 97.339 28.196 C 97.785 29.335 98.218 30.55 98.637 31.846 Z M 41.074 138.142 L 39.053 139.209 L 37.089 135.599 C 36.589 134.678 35.417 134.328 34.475 134.819 C 33.539 135.311 33.182 136.463 33.682 137.391 L 36.981 143.453 L 24.554 150 L 0 104.893 L 12.427 98.352 L 30.89 132.262 C 31.39 133.182 32.561 133.533 33.504 133.042 C 34.439 132.55 34.797 131.397 34.297 130.47 L 17.164 99.005 L 19.185 97.938 L 19.763 99.005 C 19.778 99.041 19.799 99.069 19.813 99.104 C 19.849 99.16 19.878 99.216 19.913 99.272 Z M 103.41 87.217 C 104.817 86.943 106.081 86.374 107.088 85.587 C 108.638 84.386 109.595 82.686 109.595 80.789 C 109.595 78.892 108.638 77.192 107.088 75.991 C 105.66 74.881 103.717 74.192 101.596 74.192 C 100.303 74.192 99.153 73.799 98.346 73.174 C 97.661 72.64 97.232 71.93 97.232 71.172 C 97.232 70.413 97.661 69.703 98.346 69.169 C 99.154 68.537 100.303 68.151 101.596 68.151 C 102.41 68.151 103.167 68.312 103.824 68.586 C 104.467 68.86 105.01 69.24 105.381 69.689 C 106.017 70.448 107.16 70.56 107.931 69.935 C 108.702 69.31 108.817 68.186 108.181 67.427 C 107.438 66.535 106.431 65.797 105.26 65.306 C 104.664 65.06 104.044 64.874 103.41 64.751 L 103.41 62.728 C 103.41 61.737 102.596 60.936 101.589 60.936 C 100.582 60.936 99.768 61.737 99.768 62.728 L 99.768 64.751 C 98.36 65.025 97.096 65.594 96.089 66.381 C 94.54 67.582 93.583 69.282 93.583 71.179 C 93.583 73.076 94.54 74.776 96.089 75.977 C 97.518 77.087 99.46 77.775 101.582 77.775 C 102.874 77.775 104.024 78.169 104.831 78.794 C 105.517 79.328 105.945 80.038 105.945 80.796 C 105.945 81.555 105.517 82.264 104.831 82.798 C 104.024 83.431 102.874 83.817 101.582 83.817 C 100.689 83.817 99.868 83.627 99.175 83.304 C 98.503 82.988 97.961 82.559 97.618 82.054 C 97.061 81.232 95.932 81.014 95.104 81.562 C 94.268 82.11 94.047 83.22 94.604 84.035 C 95.318 85.082 96.361 85.953 97.611 86.536 C 98.275 86.845 98.996 87.077 99.76 87.224 L 99.76 89.247 C 99.76 90.238 100.574 91.039 101.581 91.039 C 102.588 91.039 103.403 90.238 103.403 89.247 Z M 116.343 90.505 C 120.122 86.789 122.457 81.653 122.457 75.984 C 122.457 70.315 120.122 65.179 116.343 61.463 C 112.566 57.747 107.345 55.449 101.581 55.449 C 95.818 55.449 90.597 57.747 86.819 61.463 C 83.041 65.179 80.706 70.315 80.706 75.984 C 80.706 81.653 83.041 86.789 86.819 90.505 C 90.597 94.221 95.818 96.518 101.581 96.518 C 107.352 96.518 112.566 94.221 116.343 90.505 Z M 89.397 87.976 C 86.276 84.906 84.348 80.663 84.348 75.984 C 84.348 71.298 86.276 67.062 89.397 63.992 C 92.518 60.922 96.832 59.025 101.589 59.025 C 106.352 59.025 110.659 60.922 113.78 63.992 C 116.901 67.062 118.829 71.305 118.829 75.984 C 118.829 80.67 116.901 84.906 113.78 87.976 C 110.659 91.046 106.345 92.943 101.589 92.943 C 96.825 92.943 92.518 91.046 89.397 87.976 Z M 97.905 112.058 L 96.177 112.058 C 96.306 111.735 96.413 111.405 96.513 111.067 L 96.855 109.88 C 97.561 107.433 97.277 104.813 96.063 102.567 C 94.891 100.403 92.906 98.675 90.349 97.881 L 71.572 92.065 L 63.338 50.653 L 139.827 50.653 L 130.386 98.134 C 130.307 98.549 130.207 98.977 130.086 99.406 C 130.05 99.553 130.007 99.694 129.964 99.834 Z M 85.027 114.137 L 56.388 105.497 C 55.366 105.188 54.288 105.75 53.974 106.754 C 53.659 107.759 54.231 108.82 55.252 109.129 L 83.82 117.748 C 84.22 117.868 84.612 117.967 85.012 118.044 C 86.912 118.444 88.755 118.472 90.576 118.233 C 92.69 117.96 94.754 117.334 96.868 116.527 L 98.811 115.788 C 98.918 115.76 99.018 115.719 99.111 115.676 L 132.129 103.087 C 132.193 103.066 132.265 103.038 132.322 103.01 L 139.014 100.46 C 141.685 99.441 144.07 100.052 145.713 101.436 C 146.448 102.054 147.041 102.827 147.448 103.67 C 147.856 104.513 148.084 105.419 148.084 106.311 C 148.091 108.166 147.105 110.049 144.763 111.285 L 94.098 138.016 C 92.342 138.943 90.556 139.52 88.728 139.744 C 86.892 139.969 85.007 139.85 83.071 139.372 L 51.732 131.736 C 48.068 130.843 45.804 131.82 42.84 133.098 L 42.733 133.141 L 24.179 99.054 L 42.298 89.978 C 43.44 89.409 44.576 88.994 45.69 88.819 C 46.754 88.657 47.833 88.706 48.932 89.044 L 69.23 95.331 C 69.28 95.345 69.33 95.366 69.38 95.38 L 89.191 101.513 C 90.727 101.991 91.92 103.038 92.634 104.351 C 93.38 105.732 93.556 107.342 93.127 108.847 L 92.784 110.035 C 92.548 110.864 92.177 111.587 91.677 112.199 C 91.585 112.317 91.485 112.43 91.377 112.535 C 91.313 112.591 91.255 112.648 91.206 112.704 C 90.791 113.097 90.313 113.435 89.77 113.723 C 89.02 114.117 88.249 114.342 87.463 114.405 C 86.842 114.454 86.206 114.411 85.563 114.278 C 85.392 114.236 85.213 114.193 85.028 114.137 Z M 149.925 0 C 151.841 26.313 116.363 52.051 106.122 31.976 C 106.143 31.946 106.164 31.916 106.186 31.887 C 107.579 29.962 109.421 28.55 111.585 27.58 C 113.764 26.597 116.27 25.993 118.934 25.641 C 121.67 25.283 124.569 25.185 127.462 25.234 C 128.526 25.248 129.405 24.412 129.426 23.365 C 129.418 22.325 128.569 21.461 127.497 21.44 L 127.5 21.44 C 124.421 21.391 121.336 21.49 118.4 21.883 C 115.394 22.276 112.522 22.979 109.966 24.131 C 108.181 24.934 106.556 25.978 105.145 27.288 C 104.283 2.818 133.963 10.674 149.925 0 Z" fill="currentColor"></path></svg>