<svg viewBox="0 0 150 150" xmlns="http://www.w3.org/2000/svg" width="150" height="150" fill="none"><path d="M 100.243 97.905 C 100.243 104.116 88.934 109.155 75 109.155 C 61.066 109.155 49.758 104.116 49.758 97.905 C 49.758 92.415 57 89.368 64.125 87.886 C 67.213 92.784 70.406 97.618 73.693 102.393 C 73.986 102.827 74.479 103.084 75 103.084 C 75.521 103.084 76.014 102.827 76.307 102.393 C 79.606 97.635 82.799 92.795 85.875 87.886 C 93 89.386 100.243 92.386 100.243 97.905 Z M 43.588 99.358 C 43.634 100.6 42.808 101.696 41.607 102.001 L 33.416 104.116 L 33.421 109.501 L 20.654 99.587 C 20.004 99.089 19.629 98.315 19.634 97.501 C 19.623 96.68 19.998 95.907 20.654 95.415 L 33.421 85.501 L 33.421 90.973 L 41.613 93.106 L 41.607 93.106 C 42.785 93.393 43.605 94.448 43.588 95.655 Z M 106.406 100.184 L 106.412 96.569 C 106.4 95.362 107.221 94.301 108.393 94.009 L 116.584 91.876 L 116.578 86.403 L 129.346 96.317 C 129.99 96.815 130.365 97.583 130.365 98.403 C 130.365 99.218 129.99 99.985 129.346 100.483 L 116.578 110.403 L 116.578 105.001 L 108.387 102.868 L 108.393 102.868 C 107.215 102.581 106.395 101.515 106.412 100.308 Z M 72.721 113.52 L 76.395 113.52 C 77.602 113.509 78.663 114.329 78.962 115.501 L 81.094 123.692 L 86.567 123.692 L 76.653 136.501 C 76.149 137.146 75.381 137.521 74.567 137.521 C 73.752 137.521 72.979 137.146 72.481 136.501 L 62.567 123.751 L 68.04 123.751 L 70.172 115.501 C 70.454 114.329 71.514 113.509 72.721 113.521 Z M 75.001 12.541 C 82.729 12.541 90.135 15.611 95.596 21.072 C 101.063 26.538 104.133 33.945 104.133 41.673 C 104.133 57.752 75.001 99.634 75.001 99.634 C 75.001 99.634 45.868 57.752 45.868 41.673 C 45.868 33.944 48.939 26.539 54.405 21.072 C 59.865 15.611 67.272 12.541 75 12.541 Z M 74.743 29.731 C 67.472 29.731 61.577 35.626 61.577 42.903 C 61.577 48.229 64.783 53.028 69.704 55.067 C 74.625 57.106 80.291 55.981 84.059 52.214 C 87.827 48.447 88.952 42.781 86.913 37.859 C 84.874 32.943 80.075 29.732 74.743 29.732 Z" fill="currentColor"></path></svg>