<svg viewBox="0 0 150 150" xmlns="http://www.w3.org/2000/svg" width="150" height="150" fill="none"><path d="M 147.071 75.556 L 100.496 75.556 C 101.009 74.385 101.299 73.097 101.299 71.741 C 101.299 66.433 96.946 62.114 91.593 62.114 L 86.84 62.114 C 89.464 59.13 91.067 55.24 91.067 50.978 C 91.067 41.617 83.39 34 73.951 34 C 64.91 34 57.506 40.992 56.893 49.805 C 56.705 49.831 56.518 49.816 56.333 49.879 C 37.37 56.375 25.736 71.232 19.545 81.834 L 19.545 65.859 C 19.545 64.255 18.235 62.954 16.616 62.954 L 2.929 62.955 C 1.31 62.955 0 64.255 0 65.86 L 0 112.473 C 0 119.467 5.735 125.159 12.786 125.159 L 22.88 125.159 L 22.88 143.189 L 18.467 143.189 C 16.848 143.189 15.538 144.489 15.538 146.095 C 15.538 147.7 16.848 149 18.467 149 L 43.596 149 C 45.215 149 46.525 147.7 46.525 146.095 C 46.525 144.489 45.215 143.189 43.596 143.189 L 40.031 143.189 L 40.031 125.159 L 54.169 125.159 L 61.062 138.094 C 63.127 141.977 67.459 144.193 72.034 143.385 C 75.16 142.821 77.812 140.902 79.302 138.116 C 80.796 135.333 80.918 132.082 79.64 129.193 L 66.588 99.716 C 64.42 94.822 59.536 91.661 54.148 91.661 L 52.916 91.661 L 61.575 80.652 L 61.65 80.713 C 62.171 81.136 62.826 81.367 63.501 81.367 L 74.528 81.367 L 74.528 90.785 C 74.528 92.39 75.838 93.692 77.457 93.692 L 87.183 93.692 L 87.183 146.094 C 87.183 147.7 88.493 148.999 90.112 148.999 C 91.731 148.999 93.041 147.7 93.041 146.094 L 93.041 93.692 L 139.273 93.692 L 139.273 146.094 C 139.273 147.7 140.584 148.999 142.203 148.999 C 143.821 148.999 145.132 147.7 145.132 146.094 L 145.132 93.692 L 147.071 93.692 C 148.69 93.692 150 92.389 150 90.785 L 150 78.462 C 150 76.856 148.69 75.556 147.071 75.556 Z M 73.95 39.811 C 80.157 39.811 85.209 44.821 85.209 50.979 C 85.209 57.137 80.157 62.146 73.95 62.146 C 67.743 62.146 62.691 57.137 62.691 50.979 C 62.691 44.82 67.743 39.811 73.95 39.811 Z M 34.172 143.189 L 28.738 143.189 L 28.738 125.158 L 34.172 125.158 Z M 37.101 119.347 L 12.785 119.347 C 8.966 119.347 5.857 116.263 5.857 112.473 L 5.857 68.765 L 13.686 68.765 L 13.686 94.56 C 13.686 94.599 13.707 94.632 13.709 94.671 C 13.709 94.689 13.711 94.707 13.712 94.725 C 13.712 94.74 13.713 94.755 13.714 94.771 C 13.826 104.028 21.434 111.526 30.79 111.543 C 30.798 111.543 30.804 111.547 30.812 111.547 L 46.915 111.547 L 51.071 119.347 Z M 61.223 102.055 L 74.275 131.531 C 75.433 134.149 73.821 137.157 70.985 137.668 C 69.072 138.012 67.153 137.098 66.24 135.379 L 51.265 107.281 C 50.764 106.337 49.577 105.737 48.665 105.737 C 38.219 105.737 31.845 105.734 30.819 105.734 C 25.625 105.734 21.24 102.225 19.947 97.472 L 54.146 97.472 C 57.212 97.472 59.99 99.271 61.222 102.055 Z M 55.751 68.439 C 54.493 67.42 52.651 67.612 51.632 68.853 C 50.608 70.096 50.794 71.926 52.05 72.942 L 57.035 76.978 L 45.486 91.661 L 21.043 91.661 C 24.981 83.221 36.248 63.298 57.505 55.648 C 59.557 62.744 66.143 67.957 73.949 67.957 C 73.949 67.957 73.086 67.926 91.592 67.926 C 93.714 67.926 95.439 69.638 95.439 71.742 C 95.439 73.846 93.714 75.557 91.592 75.557 L 64.544 75.557 Z M 80.385 81.367 L 144.141 81.367 L 144.141 87.88 L 80.385 87.88 Z" fill="currentColor"></path><path d="M 131.034 16.03 C 130.342 14.778 129.012 14 127.566 14 L 116.959 14 C 114.771 14 113 15.752 113 17.914 C 113 20.075 114.771 21.828 116.959 21.828 L 120.361 21.828 L 113.618 32.319 C 112.842 33.524 112.795 35.05 113.491 36.302 C 114.182 37.553 115.513 38.331 116.959 38.331 L 127.566 38.331 C 129.754 38.331 131.525 36.579 131.525 34.417 C 131.525 32.256 129.754 30.504 127.566 30.504 L 124.164 30.504 L 130.906 20.012 C 131.684 18.808 131.73 17.282 131.034 16.03 Z" fill="currentColor"></path><path d="M 87.991 24.804 C 88.682 26.056 90.013 26.834 91.459 26.834 L 102.066 26.834 C 104.254 26.834 106.025 25.081 106.025 22.92 C 106.025 20.758 104.254 19.006 102.066 19.006 L 98.664 19.006 L 105.406 8.512 C 106.183 7.308 106.229 5.781 105.534 4.53 C 104.842 3.278 103.512 2.5 102.066 2.5 L 91.459 2.5 C 89.271 2.5 87.5 4.252 87.5 6.414 C 87.5 8.575 89.271 10.328 91.459 10.328 L 94.861 10.328 L 88.118 20.822 C 87.342 22.025 87.295 23.552 87.991 24.804 Z" fill="currentColor"></path></svg>