<svg viewBox="0 0 150 150" xmlns="http://www.w3.org/2000/svg" width="150" height="150" fill="none"><g transform="translate(24 0)"><path d="M 13.34 28.802 L 25.958 28.802 C 27.753 28.802 29.213 30.596 29.213 32.056 L 29.213 42.235 C 29.213 44.03 27.759 45.49 25.958 45.49 L 13.34 45.49 C 11.545 45.49 10.085 43.695 10.085 42.235 L 10.085 32.056 C 10.085 30.262 11.539 28.802 13.34 28.802 Z M 13.34 50.368 L 25.958 50.368 C 27.753 50.368 29.213 52.163 29.213 53.623 L 29.213 63.802 C 29.213 65.596 27.759 67.056 25.958 67.056 L 13.34 67.056 C 11.545 67.056 10.085 65.262 10.085 63.802 L 10.085 53.623 C 10.085 51.828 11.539 50.368 13.34 50.368 Z M 24.884 79.932 C 23.846 77.721 23.846 75.153 24.884 72.942 C 25.072 72.585 25.283 72.233 25.506 71.899 L 13.339 71.899 C 11.545 71.899 10.09 73.359 10.09 75.153 L 10.09 85.332 C 10.09 86.194 10.43 87.021 11.04 87.631 C 11.65 88.24 12.477 88.586 13.339 88.586 L 26.028 88.586 C 26.663 88.51 27.263 88.249 27.752 87.836 C 26.978 85.139 26.016 82.5 24.884 79.932 Z M 37.443 65.268 C 39.325 65.291 41.178 65.772 42.843 66.663 L 42.843 50.398 L 38.123 50.404 C 36.329 50.404 34.869 51.858 34.869 53.652 L 34.869 63.767 C 34.887 64.382 35.08 64.981 35.426 65.49 C 36.089 65.349 36.765 65.274 37.443 65.268 Z M 38.123 45.554 L 42.838 45.554 L 42.838 45.131 L 42.844 45.131 C 42.873 38.793 47.687 33.498 53.996 32.871 L 53.996 32.056 C 53.996 31.194 53.656 30.367 53.046 29.757 C 52.435 29.146 51.606 28.802 50.742 28.802 L 38.123 28.802 C 36.329 28.802 34.868 30.262 34.868 32.056 L 34.868 42.299 C 34.868 43.161 35.214 43.988 35.824 44.604 C 36.434 45.213 37.261 45.555 38.123 45.554 Z" fill="currentColor"></path><path d="M 49.371 132.344 L 42.868 125.841 C 42.428 125.425 42.024 124.968 41.666 124.475 C 43.138 127.032 42.71 130.256 40.616 132.338 C 38.523 134.42 35.292 134.83 32.748 133.341 C 30.197 131.851 28.971 128.832 29.763 125.988 C 30.549 123.144 33.152 121.192 36.102 121.221 C 38.011 121.214 39.82 122.078 41.015 123.566 C 40.822 123.244 40.593 122.98 40.4 122.623 L 40.394 122.623 C 38.241 119.99 36.297 117.194 34.577 114.261 L 4.814 114.261 L 4.814 21.629 L 67.424 21.629 L 67.424 42.48 C 67.594 43.325 67.682 44.187 67.688 45.049 L 67.688 52.038 L 68.732 52.038 L 68.726 52.038 C 69.916 52.05 71.1 52.226 72.238 52.56 L 72.238 10.994 C 72.22 4.931 67.307 0.018 61.244 0 L 11.023 0 C 8.103 -0.006 5.301 1.143 3.231 3.208 C 1.162 5.271 0 8.072 0 10.994 L 0 131.178 C 0 134.098 1.161 136.9 3.231 138.959 C 5.299 141.022 8.102 142.178 11.023 142.172 L 49.37 142.172 Z M 26.673 8.003 L 45.535 8.003 C 46.087 8.003 46.544 8.683 46.544 9.469 C 46.544 10.248 46.087 10.899 45.535 10.899 L 26.673 10.893 C 26.122 10.893 25.7 10.278 25.7 9.463 C 25.694 8.654 26.023 8.003 26.673 8.003 Z" fill="currentColor"></path><path d="M 101.537 97.834 C 101.584 97.019 101.584 96.204 101.537 95.395 L 101.537 77.797 C 101.655 76.156 101.092 74.537 99.972 73.329 C 98.851 72.123 97.279 71.436 95.633 71.436 C 93.986 71.435 92.413 72.122 91.294 73.329 C 90.173 74.537 89.605 76.156 89.728 77.797 L 89.728 79.164 L 88.133 78.642 L 88.133 69.729 C 88.133 66.457 85.483 63.807 82.217 63.807 C 78.945 63.807 76.295 66.457 76.295 69.729 L 76.295 74.801 L 74.7 74.25 L 74.7 64.493 C 74.471 61.403 71.897 59.011 68.795 59.011 C 65.699 59.011 63.125 61.403 62.897 64.493 L 62.897 72.069 C 62.339 72.145 61.794 72.28 61.266 72.462 L 61.266 45.044 C 61.266 41.772 58.616 39.121 55.35 39.121 C 52.078 39.121 49.428 41.772 49.428 45.044 L 49.428 93.834 L 49.428 93.828 C 48.46 90.907 47.827 87.886 47.54 84.822 C 45.359 74.836 39.8 70.738 36.417 71.81 C 35.602 72.039 29.586 74.349 30.852 77.082 L 30.858 77.082 C 33.884 83.889 35.696 91.178 36.223 98.613 C 36.581 105.965 41.202 113.313 45.98 118.976 L 45.98 118.97 C 46.397 119.797 46.93 120.554 47.575 121.216 L 56.03 129.542 L 56.03 150 L 95.716 150 L 95.716 129.09 C 98.753 124.383 100.519 118.97 100.853 113.376 C 101.046 108.269 101.21 103.161 101.403 98.055 L 101.403 97.826 Z" fill="currentColor"></path></g></svg>