<svg viewBox="0 0 150 150" xmlns="http://www.w3.org/2000/svg" width="150" height="150" fill="none"><path d="M 22.2 10.5 C 22.2 14.7 25.5 18 29.7 18 L 120 18 C 124.2 18 127.5 14.7 127.5 10.5 C 127.8 6.3 124.2 3 120 3 L 30 3 C 25.8 3 22.2 6.3 22.2 10.5 Z" fill="currentColor"></path><path d="M 119.7 31.8 C 119.7 27.6 116.4 24.3 112.2 24.3 L 38.1 24.3 C 33.9 24.3 30.6 27.6 30.6 31.8 C 30.6 36 33.9 39.3 38.1 39.3 L 111.9 39.3 C 116.1 39.3 119.7 36 119.7 31.8 Z" fill="currentColor"></path><path d="M 108.3 147 L 108.3 45.3 L 41.7 45.3 L 41.7 147 L 48.9 147 L 48.9 56.4 C 48.9 54.6 50.1 53.4 51.9 53.4 C 53.4 53.4 54.9 54.6 54.9 56.4 L 54.9 147 L 64.5 147 L 64.5 56.4 C 64.5 54.6 65.7 53.4 67.5 53.4 C 69 53.4 70.5 54.6 70.5 56.4 L 70.5 147 L 80.1 147 L 80.1 56.4 C 80.1 54.6 81.3 53.4 83.1 53.4 C 84.6 53.4 85.8 54.6 85.8 56.4 L 85.8 147 L 95.7 147 L 95.7 56.4 C 95.7 54.6 96.9 53.4 98.7 53.4 C 100.2 53.4 101.7 54.6 101.7 56.4 L 101.7 147 Z" fill="currentColor"></path></svg>