<svg viewBox="0 0 150 150" xmlns="http://www.w3.org/2000/svg" width="150" height="150" fill="none"><path d="M 104.128 58.036 C 107.954 58.968 111.551 60.48 114.827 62.472 L 120.645 58.03 C 122.924 56.29 126.094 56.501 128.122 58.528 L 131.514 61.921 C 133.542 63.948 133.753 67.118 132.012 69.398 L 127.571 75.21 C 129.563 78.485 131.075 82.083 132.006 85.909 L 139.254 86.876 C 142.096 87.257 144.188 89.648 144.188 92.513 L 144.188 97.312 C 144.188 100.177 142.096 102.568 139.254 102.948 L 132.006 103.915 C 131.075 107.741 129.563 111.339 127.571 114.615 L 132.018 120.433 C 133.758 122.712 133.547 125.882 131.52 127.909 L 128.128 131.302 C 126.1 133.329 122.93 133.54 120.651 131.8 L 114.827 127.347 C 111.551 129.339 107.954 130.851 104.128 131.782 L 103.161 139.03 C 102.78 141.872 100.389 143.964 97.524 143.964 L 92.725 143.964 C 89.86 143.964 87.469 141.872 87.088 139.03 L 86.122 131.782 C 82.295 130.851 78.698 129.339 75.422 127.347 L 69.604 131.794 C 67.325 133.534 64.155 133.323 62.133 131.296 L 58.741 127.904 C 56.713 125.876 56.502 122.706 58.242 120.427 L 62.684 114.615 C 60.692 111.339 59.18 107.742 58.248 103.915 L 51 102.948 C 48.159 102.568 46.067 100.177 46.067 97.312 L 46.067 92.513 C 46.067 89.648 48.158 87.257 51 86.876 L 58.248 85.909 C 59.18 82.083 60.692 78.485 62.684 75.21 L 58.242 69.398 C 56.502 67.118 56.713 63.948 58.741 61.921 L 62.133 58.528 C 64.161 56.501 67.33 56.29 69.604 58.03 L 75.422 62.472 C 78.698 60.479 82.295 58.968 86.122 58.036 L 87.088 50.788 C 87.469 47.946 89.86 45.855 92.725 45.855 L 97.524 45.855 C 100.389 45.855 102.78 47.946 103.161 50.788 Z M 11.045 10.645 C 11.045 8.424 12.223 7.018 13.723 6.409 C 16.494 5.295 20.35 6.625 20.35 10.645 L 20.35 18.836 L 11.045 18.836 Z M 52.177 69.954 L 52.177 82.92 L 50.502 83.143 C 45.785 83.77 42.299 87.76 42.299 92.512 L 42.299 97.311 C 42.299 102.063 45.791 106.047 50.502 106.68 L 52.177 106.902 L 52.177 141.367 L 14.572 141.367 L 14.572 69.947 Z M 48.909 66.18 L 17.514 66.18 L 17.514 62.746 L 48.909 62.746 Z M 48.288 38.54 C 50.79 41.505 55.325 42.114 58.63 40.333 C 57.528 47.107 53.016 52.82 49.717 58.978 L 16.711 58.978 L 6.645 41.547 C 6.071 40.551 5.819 39.602 5.819 38.441 L 5.819 26.693 C 5.819 23.781 7.945 22.797 10.401 22.598 L 30.903 22.598 C 33.217 22.598 35.427 24.25 35.485 26.594 C 35.526 29.072 33.259 30.789 30.903 30.789 L 18.68 30.783 C 15.3 30.783 15.27 35.945 18.669 35.969 C 26.444 36.027 32.673 42.52 32.673 50.336 C 32.673 51.379 33.522 52.223 34.559 52.223 C 35.602 52.223 36.446 51.379 36.446 50.336 C 36.446 43.698 32.866 37.721 27.329 34.551 L 30.903 34.551 C 31.8 34.551 32.673 34.411 33.499 34.153 C 34.395 41.723 43.922 43.504 48.288 38.541 Z M 50.268 17.295 C 50.268 15.238 51.352 13.938 52.741 13.381 C 55.295 12.356 58.875 13.569 58.875 17.295 L 58.875 33.309 C 58.875 35.365 57.791 36.666 56.403 37.223 C 53.848 38.248 50.268 37.035 50.268 33.309 Z M 37.196 13.258 C 37.196 11.037 38.367 9.625 39.873 9.022 C 42.645 7.908 46.5 9.238 46.5 13.258 L 46.5 32.963 C 46.5 35.184 45.328 36.596 43.823 37.194 C 41.051 38.307 37.196 36.977 37.196 32.963 L 37.196 31.832 C 37.213 31.791 38.285 30.783 38.877 28.99 C 40.324 24.631 37.196 21.549 37.196 21.543 Z M 24.123 10.645 C 24.123 8.424 25.295 7.018 26.801 6.408 C 29.572 5.295 33.428 6.625 33.428 10.645 L 33.428 19.211 C 32.631 18.965 31.781 18.836 30.902 18.836 L 24.123 18.836 L 24.123 10.645 Z M 95.121 67.106 C 79.769 67.106 67.318 79.551 67.318 94.908 C 67.318 110.26 79.763 122.711 95.121 122.711 C 110.472 122.711 122.923 110.266 122.923 94.908 C 122.923 79.551 110.472 67.106 95.121 67.106 Z M 82.142 86.196 C 82.142 86.196 82.142 86.196 82.142 86.196 C 82.142 86.196 82.142 86.196 82.142 86.196 Z M 82.142 86.196 C 84.948 87.895 86.249 90.163 86.05 93.005 C 91.669 89.752 84.497 79.797 95.583 75.232 C 92.232 84.257 104.524 86.764 104.126 96.38 C 105.855 94.985 106.358 92.073 105.638 87.643 C 109.288 91.833 111.245 96.807 110.085 102.362 C 107.015 117.092 87.708 117.989 81.755 107.887 C 76.423 98.841 83.999 93.122 82.142 86.196 Z" fill="currentColor"></path></svg>