<svg viewBox="0 0 150 150" xmlns="http://www.w3.org/2000/svg" width="150" height="150" fill="none"><path d="M 80.684 102.329 L 65.789 102.329 L 65.789 96.001 C 68.818 96.645 71.906 96.973 75 96.973 C 78.093 96.979 81.175 96.651 84.193 96.001 L 84.193 102.288 L 80.683 102.288 Z M 34.184 53.263 L 34.184 53.268 C 34.19 43.061 38.022 33.236 44.924 25.718 C 51.826 18.207 61.295 13.554 71.46 12.687 C 81.626 11.814 91.75 14.785 99.825 21.019 C 107.905 27.248 113.354 36.283 115.095 46.338 C 116.836 56.387 114.744 66.729 109.23 75.312 C 103.716 83.896 95.185 90.1 85.319 92.703 L 85.061 92.703 L 85.067 92.703 C 78.452 94.384 71.519 94.384 64.906 92.703 L 64.724 92.703 C 56.005 90.418 48.283 85.308 42.769 78.178 C 37.255 71.041 34.255 62.28 34.244 53.27 Z M 59.684 62.637 L 59.684 62.643 C 59.496 62.292 59.174 62.028 58.787 61.917 C 58.406 61.805 57.996 61.846 57.645 62.04 L 54.434 63.798 C 53.83 64.12 53.525 64.817 53.695 65.485 C 53.865 66.153 54.469 66.622 55.154 66.616 C 55.406 66.616 55.652 66.557 55.875 66.434 L 59.086 64.677 L 59.086 64.682 C 59.444 64.495 59.707 64.179 59.824 63.792 C 59.947 63.411 59.906 62.995 59.713 62.643 Z M 55.606 55.829 C 56.432 55.829 57.106 55.161 57.106 54.329 C 57.106 53.503 56.432 52.829 55.606 52.829 L 52.5 52.829 C 51.674 52.829 51 53.503 51 54.329 C 51 55.161 51.674 55.829 52.5 55.829 Z M 65.578 36.224 L 64.5 34.32 C 64.336 33.921 64.002 33.611 63.592 33.47 C 63.182 33.335 62.731 33.376 62.356 33.599 C 61.981 33.816 61.723 34.185 61.641 34.613 C 61.559 35.04 61.664 35.48 61.934 35.82 L 63 37.788 C 63.276 38.234 63.762 38.509 64.289 38.509 C 64.565 38.503 64.834 38.427 65.068 38.281 C 65.414 38.081 65.666 37.753 65.766 37.366 C 65.865 36.98 65.813 36.57 65.607 36.224 Z M 82.213 80.04 C 82.213 79.642 82.055 79.261 81.774 78.98 C 81.493 78.698 81.112 78.54 80.713 78.54 L 69.287 78.54 C 68.455 78.54 67.787 79.214 67.787 80.04 C 67.787 80.872 68.455 81.54 69.287 81.54 L 80.719 81.54 L 80.713 81.54 C 81.112 81.54 81.493 81.382 81.774 81.101 C 82.055 80.819 82.213 80.439 82.213 80.04 Z M 92.022 40.741 L 92.028 40.741 C 92.655 40.202 92.731 39.253 92.192 38.626 C 91.653 37.999 90.704 37.923 90.077 38.462 L 78.469 48.347 L 78.463 48.347 C 76.207 46.747 73.149 46.9 71.063 48.716 C 68.977 50.532 68.403 53.532 69.668 55.993 C 70.934 58.448 73.717 59.726 76.407 59.075 C 79.09 58.431 80.989 56.028 81 53.269 C 80.995 52.355 80.778 51.458 80.368 50.644 Z M 74.999 35.298 C 75.398 35.298 75.779 35.14 76.06 34.859 C 76.341 34.577 76.499 34.196 76.499 33.798 L 76.499 31.741 C 76.499 30.915 75.826 30.241 74.999 30.241 C 74.173 30.241 73.499 30.915 73.499 31.741 L 73.499 33.798 C 73.499 34.196 73.658 34.577 73.939 34.859 C 74.22 35.14 74.601 35.298 74.999 35.298 Z M 84.902 38.298 C 85.13 38.439 85.394 38.515 85.663 38.521 C 86.191 38.527 86.683 38.251 86.952 37.8 L 88.107 35.896 C 88.318 35.556 88.388 35.146 88.294 34.759 C 88.201 34.372 87.954 34.032 87.615 33.827 C 87.275 33.616 86.865 33.552 86.472 33.652 C 86.085 33.745 85.751 33.991 85.546 34.337 L 84.392 36.241 C 83.976 36.95 84.21 37.859 84.913 38.28 Z M 91.769 43.501 C 91.165 43.829 90.861 44.527 91.031 45.194 C 91.201 45.857 91.798 46.325 92.49 46.319 C 92.736 46.319 92.976 46.261 93.193 46.144 L 95.548 44.866 C 96.281 44.45 96.533 43.525 96.117 42.798 C 95.707 42.066 94.781 41.814 94.048 42.224 Z M 95.548 63.797 L 92.337 62.04 C 91.992 61.84 91.576 61.788 91.189 61.899 C 90.796 62.004 90.468 62.262 90.269 62.608 C 89.853 63.34 90.111 64.266 90.837 64.682 L 94.048 66.44 L 94.048 66.434 C 94.271 66.551 94.517 66.61 94.769 66.616 C 95.46 66.622 96.058 66.153 96.228 65.485 C 96.398 64.817 96.093 64.12 95.49 63.797 Z M 97.499 55.829 C 98.326 55.829 98.999 55.161 98.999 54.329 C 98.999 53.502 98.326 52.829 97.499 52.829 L 94.382 52.829 C 93.55 52.829 92.882 53.502 92.882 54.329 C 92.882 55.161 93.55 55.829 94.382 55.829 Z M 55.242 24 L 58.359 29.039 L 58.365 29.039 C 57.498 29.619 56.666 30.252 55.875 30.932 C 55.248 31.471 55.172 32.414 55.711 33.047 C 56.25 33.674 57.193 33.75 57.826 33.211 C 58.834 32.355 59.9 31.57 61.019 30.867 L 61.201 30.791 C 61.201 30.791 61.201 30.715 61.306 30.685 L 61.306 30.691 C 65.437 28.195 70.172 26.877 75 26.883 C 79.846 26.883 84.592 28.219 88.723 30.75 L 88.828 30.75 C 92.713 33.17 95.912 36.539 98.133 40.547 C 100.207 44.42 101.291 48.75 101.297 53.144 C 101.303 57.533 100.207 61.851 98.098 65.701 C 97.91 66.052 97.863 66.462 97.975 66.843 C 98.086 67.23 98.35 67.546 98.701 67.74 L 105.193 71.279 C 105.41 71.407 105.65 71.478 105.902 71.472 C 106.594 71.484 107.197 71.021 107.373 70.353 C 107.549 69.685 107.244 68.982 106.635 68.654 L 101.508 65.999 C 103.195 62.501 104.162 58.704 104.355 54.825 L 110.25 54.825 C 111.076 54.825 111.75 54.152 111.75 53.325 C 111.75 52.493 111.076 51.825 110.25 51.825 L 104.355 51.825 C 104.156 47.941 103.201 44.132 101.537 40.616 L 106.711 37.798 C 107.432 37.405 107.701 36.497 107.309 35.777 C 106.922 35.044 106.014 34.775 105.287 35.161 L 100.096 37.98 C 97.922 34.476 95.057 31.458 91.664 29.114 L 94.77 23.999 C 94.981 23.659 95.045 23.249 94.951 22.862 C 94.858 22.47 94.617 22.136 94.277 21.931 C 93.568 21.503 92.654 21.72 92.221 22.423 L 89.098 27.491 C 85.219 25.388 80.912 24.193 76.5 23.999 L 76.5 17.999 C 76.5 17.173 75.826 16.499 75 16.499 C 74.174 16.499 73.5 17.173 73.5 17.999 L 73.5 23.999 C 69.088 24.216 64.776 25.429 60.903 27.556 L 57.809 22.499 C 57.346 21.913 56.52 21.755 55.875 22.13 C 55.231 22.511 54.961 23.308 55.243 23.999 Z M 53.859 42.809 L 53.865 42.809 C 53.472 43.535 53.742 44.437 54.463 44.836 L 56.818 46.113 L 56.818 46.108 C 57.041 46.231 57.287 46.289 57.539 46.289 C 58.207 46.266 58.775 45.803 58.933 45.158 C 59.097 44.514 58.816 43.84 58.242 43.5 L 55.886 42.223 L 55.892 42.223 C 55.166 41.836 54.263 42.105 53.865 42.826 Z M 39.714 54.809 L 46.154 54.809 C 46.423 55.043 46.775 55.172 47.132 55.172 L 47.314 55.172 L 47.308 55.172 C 48.128 55.066 48.714 54.322 48.615 53.508 L 48.615 53.338 C 48.615 48.955 49.704 44.637 51.779 40.769 C 52.429 39.58 53.173 38.443 53.999 37.365 C 54.275 37.054 54.404 36.644 54.363 36.234 C 54.322 35.818 54.116 35.443 53.788 35.191 C 53.46 34.939 53.044 34.828 52.634 34.898 C 52.224 34.963 51.861 35.191 51.632 35.537 C 51.064 36.287 50.525 37.037 49.997 37.939 L 44.806 35.121 L 44.806 35.115 C 44.074 34.728 43.171 35.004 42.779 35.73 C 42.392 36.457 42.656 37.359 43.382 37.758 L 48.556 40.576 C 46.892 44.092 45.937 47.894 45.732 51.779 L 39.732 51.779 C 38.906 51.779 38.232 52.453 38.232 53.279 C 38.232 54.111 38.906 54.779 39.732 54.779 Z M 44.724 71.472 L 51.175 67.98 L 51.181 67.98 C 51.532 67.787 51.79 67.464 51.902 67.084 C 52.013 66.703 51.972 66.287 51.779 65.941 C 50.864 64.271 50.132 62.502 49.605 60.673 C 49.335 59.935 48.544 59.531 47.788 59.742 C 47.032 59.953 46.57 60.714 46.722 61.482 C 47.173 63.029 47.747 64.535 48.45 65.982 L 43.247 68.8 L 43.241 68.806 C 42.515 69.199 42.245 70.107 42.638 70.84 C 43.03 71.566 43.939 71.836 44.671 71.443 Z M 79.224 126.539 L 79.23 105.327 L 70.786 105.327 L 70.786 126.509 Z M 74.999 50.232 C 73.786 50.232 72.691 50.965 72.228 52.09 C 71.765 53.209 72.023 54.498 72.878 55.353 C 73.734 56.215 75.029 56.473 76.148 56.004 C 77.267 55.541 77.999 54.451 77.999 53.232 C 77.999 52.441 77.683 51.674 77.12 51.111 C 76.558 50.549 75.796 50.232 74.999 50.232 Z M 115.035 134.509 L 103.035 134.509 L 103.035 129.511 L 46.933 129.511 L 46.933 134.503 L 34.933 134.503 L 34.933 134.509 C 34.107 134.509 33.433 135.177 33.433 136.009 C 33.433 136.835 34.107 137.509 34.933 137.509 L 115.035 137.509 C 115.862 137.509 116.535 136.835 116.535 136.009 C 116.535 135.177 115.862 134.509 115.035 134.509 Z" fill="currentColor"></path></svg>