<svg viewBox="0 0 150 150" xmlns="http://www.w3.org/2000/svg" width="150" height="150" fill="none"><path d="M 137.763 32.033 L 12.279 32.033 C 8.562 32.033 5.521 29.012 5.521 25.319 L 5.521 19.464 C 5.521 15.77 8.562 12.75 12.279 12.75 L 137.763 12.75 C 141.481 12.75 144.521 15.77 144.521 19.464 L 144.521 25.319 C 144.557 29.012 141.517 32.033 137.763 32.033 Z M 12.279 16.3 C 10.514 16.3 9.088 17.718 9.088 19.471 L 9.088 25.326 C 9.088 27.08 10.514 28.497 12.279 28.497 L 137.763 28.497 C 139.528 28.497 140.955 27.08 140.955 25.326 L 140.955 19.471 C 140.955 17.718 139.528 16.3 137.763 16.3 Z" fill="currentColor"></path><path d="M 137.655 109.763 L 12.438 109.763 C 11.465 109.763 10.637 108.982 10.637 107.973 L 10.637 30.285 C 10.637 29.318 11.422 28.495 12.438 28.495 L 137.655 28.495 C 138.628 28.495 139.457 29.275 139.457 30.285 L 139.457 108.01 C 139.421 108.94 138.628 109.763 137.655 109.763 Z M 14.202 106.22 L 135.853 106.22 L 135.853 32.031 L 14.202 32.031 Z" fill="currentColor"></path><path d="M 75.023 136.75 C 74.05 136.75 73.222 135.97 73.222 134.961 L 73.222 107.97 C 73.222 107.004 74.007 106.181 75.023 106.181 C 76.039 106.181 76.824 106.961 76.824 107.97 L 76.824 134.961 C 76.824 135.97 75.995 136.75 75.023 136.75 Z" fill="currentColor"></path><path d="M 92.357 136.75 C 91.91 136.75 91.492 136.6 91.118 136.263 L 75.022 121.204 L 58.884 136.263 C 58.171 136.936 57.047 136.9 56.37 136.192 C 55.692 135.483 55.728 134.367 56.442 133.694 L 73.776 117.517 C 74.453 116.88 75.541 116.88 76.218 117.517 L 93.517 133.694 C 94.23 134.367 94.266 135.483 93.589 136.192 C 93.287 136.564 92.84 136.75 92.35 136.75 Z" fill="currentColor"></path><path d="M 125.304 53.097 L 88.266 53.097 C 87.293 53.097 86.464 52.317 86.464 51.308 C 86.464 50.298 87.25 49.518 88.266 49.518 L 125.304 49.518 C 126.277 49.518 127.105 50.298 127.105 51.308 C 127.105 52.317 126.277 53.097 125.304 53.097 Z" fill="currentColor"></path><path d="M 125.304 63.87 L 88.266 63.87 C 87.293 63.87 86.464 63.09 86.464 62.08 C 86.464 61.071 87.25 60.291 88.266 60.291 L 125.304 60.291 C 126.277 60.291 127.105 61.071 127.105 62.08 C 127.105 63.09 126.277 63.87 125.304 63.87 Z" fill="currentColor"></path><path d="M 125.304 74.684 L 88.266 74.684 C 87.293 74.684 86.464 73.904 86.464 72.894 C 86.464 71.885 87.25 71.105 88.266 71.105 L 125.304 71.105 C 126.277 71.105 127.105 71.885 127.105 72.894 C 127.105 73.904 126.277 74.684 125.304 74.684 Z" fill="currentColor"></path><path d="M 125.304 85.492 L 88.266 85.492 C 87.293 85.492 86.464 84.711 86.464 83.702 C 86.464 82.693 87.25 81.913 88.266 81.913 L 125.304 81.913 C 126.277 81.913 127.105 82.693 127.105 83.702 C 127.105 84.711 126.277 85.492 125.304 85.492 Z" fill="currentColor"></path><path d="M 43.43 89.478 C 32.133 89.478 22.975 80.345 22.975 69.158 C 22.975 57.935 32.168 48.837 43.43 48.837 C 44.402 48.837 45.231 49.617 45.231 50.626 L 45.231 67.405 L 62.12 67.405 C 63.092 67.405 63.921 68.185 63.921 69.194 C 63.921 80.381 54.728 89.47 43.431 89.47 Z M 41.629 52.46 L 41.629 52.463 C 41.641 52.461 41.653 52.46 41.665 52.459 Z M 26.542 69.158 C 26.542 78.405 34.121 85.936 43.431 85.936 C 52.134 85.936 59.338 79.337 60.239 70.912 L 43.431 70.912 C 42.458 70.912 41.629 70.132 41.629 69.123 L 41.629 52.463 C 33.166 53.373 26.542 60.523 26.542 69.158 Z" fill="currentColor"></path><path d="M 67.667 65.623 L 48.719 65.623 C 47.746 65.623 46.917 64.843 46.917 63.833 L 46.917 44.601 C 46.917 44.079 47.141 43.635 47.515 43.299 C 47.89 42.962 48.38 42.812 48.906 42.855 C 59.972 44.086 67.63 51.838 69.432 63.582 C 69.504 64.104 69.36 64.627 69.022 64.999 C 68.683 65.371 68.193 65.636 67.675 65.636 Z M 50.52 62.08 L 65.527 62.08 C 63.654 53.841 58.171 48.251 50.52 46.683 Z" fill="currentColor"></path></svg>