<svg viewBox="0 0 150 150" xmlns="http://www.w3.org/2000/svg" width="150" height="150" fill="none"><path d="M 75.903 36.908 L 79.348 37.359 L 77.238 40.118 C 76.524 41.05 76.611 42.374 77.438 43.2 L 82.137 47.9 C 82.963 48.726 84.293 48.814 85.219 48.099 L 87.979 45.99 L 88.436 49.435 C 88.588 50.595 89.59 51.474 90.762 51.474 L 97.4 51.474 C 98.572 51.474 99.574 50.601 99.727 49.435 L 100.178 45.99 L 102.937 48.099 C 103.869 48.814 105.199 48.726 106.025 47.9 L 110.725 43.2 C 111.551 42.374 111.639 41.044 110.924 40.118 L 108.814 37.359 L 112.26 36.908 C 113.42 36.755 114.299 35.753 114.299 34.581 L 114.299 27.937 C 114.299 26.765 113.426 25.769 112.26 25.611 L 108.814 25.16 L 110.924 22.4 C 111.633 21.468 111.551 20.144 110.725 19.318 L 106.025 14.619 C 105.199 13.792 103.869 13.705 102.937 14.419 L 100.178 16.529 L 99.727 13.083 C 99.574 11.923 98.572 11.044 97.4 11.044 L 90.762 11.044 C 89.59 11.044 88.594 11.918 88.436 13.083 L 87.979 16.529 L 85.219 14.419 C 84.287 13.705 82.963 13.792 82.137 14.619 L 77.438 19.318 C 76.611 20.144 76.524 21.474 77.238 22.4 L 79.348 25.16 L 75.903 25.611 C 74.742 25.763 73.864 26.765 73.864 27.937 L 73.864 34.581 C 73.864 35.753 74.737 36.749 75.903 36.908 Z M 94.078 22.265 C 99.04 22.265 103.072 26.302 103.072 31.259 C 103.072 36.222 99.035 40.253 94.078 40.253 C 89.115 40.253 85.083 36.216 85.083 31.259 C 85.083 26.296 89.121 22.265 94.078 22.265 Z M 65.384 60.269 L 64.927 56.823 C 64.774 55.663 63.772 54.784 62.606 54.784 L 55.962 54.784 C 54.79 54.784 53.794 55.658 53.636 56.823 L 53.179 60.269 L 50.419 58.159 C 49.487 57.445 48.163 57.532 47.337 58.359 L 42.638 63.058 C 41.812 63.884 41.724 65.214 42.439 66.14 L 44.548 68.9 L 41.103 69.351 C 39.943 69.503 39.064 70.505 39.064 71.677 L 39.064 78.321 C 39.064 79.493 39.937 80.489 41.103 80.648 L 44.548 81.099 L 42.439 83.858 C 41.724 84.79 41.812 86.114 42.638 86.94 L 47.337 91.64 C 48.163 92.466 49.493 92.554 50.419 91.839 L 53.179 89.73 L 53.636 93.175 C 53.788 94.335 54.79 95.214 55.962 95.214 L 62.606 95.214 C 63.778 95.214 64.774 94.341 64.933 93.175 L 65.384 89.73 L 68.144 91.839 C 69.075 92.554 70.399 92.466 71.231 91.64 L 75.931 86.94 C 76.757 86.114 76.845 84.784 76.13 83.858 L 74.021 81.099 L 77.466 80.648 C 78.626 80.495 79.505 79.493 79.505 78.321 L 79.505 71.677 C 79.505 70.505 78.632 69.509 77.466 69.351 L 74.021 68.9 L 76.13 66.14 C 76.839 65.208 76.757 63.884 75.931 63.058 L 71.231 58.359 C 70.399 57.532 69.075 57.445 68.144 58.159 Z M 59.284 83.999 C 54.321 83.999 50.29 79.962 50.29 75.005 C 50.29 70.042 54.327 66.011 59.284 66.011 C 64.247 66.011 68.278 70.048 68.278 75.005 C 68.278 79.968 64.241 83.999 59.284 83.999 Z M 143.278 113.091 L 139.833 112.64 L 141.942 109.88 C 142.651 108.949 142.569 107.624 141.743 106.798 L 137.044 102.099 C 136.211 101.273 134.887 101.185 133.956 101.9 L 131.196 104.009 L 130.745 100.564 C 130.592 99.404 129.59 98.525 128.419 98.525 L 121.774 98.525 C 120.602 98.525 119.606 99.398 119.448 100.564 L 118.991 104.009 L 116.231 101.9 C 115.3 101.185 113.975 101.273 113.149 102.099 L 108.45 106.798 C 107.624 107.625 107.536 108.955 108.251 109.88 L 110.36 112.64 L 106.915 113.091 C 105.755 113.244 104.876 114.246 104.876 115.417 L 104.876 122.062 C 104.876 123.234 105.749 124.23 106.915 124.388 L 110.36 124.839 L 108.251 127.599 C 107.536 128.531 107.624 129.855 108.45 130.681 L 113.149 135.38 C 113.975 136.206 115.305 136.294 116.231 135.579 L 118.991 133.47 L 119.448 136.915 C 119.6 138.075 120.602 138.954 121.774 138.954 L 128.419 138.954 C 129.59 138.954 130.587 138.081 130.745 136.915 L 131.196 133.47 L 133.956 135.579 C 134.887 136.294 136.212 136.206 137.044 135.38 L 141.743 130.681 C 142.569 129.855 142.657 128.525 141.942 127.599 L 139.833 124.839 L 143.278 124.388 C 144.438 124.236 145.317 123.234 145.317 122.062 L 145.317 115.417 C 145.317 114.246 144.444 113.249 143.278 113.091 Z M 125.103 127.734 C 120.14 127.734 116.109 123.697 116.109 118.74 C 116.109 113.777 120.146 109.746 125.103 109.746 C 130.066 109.746 134.097 113.783 134.097 118.74 C 134.097 123.703 130.06 127.734 125.103 127.734 Z M 4.688 31.26 C 4.688 28.436 6.985 26.139 9.809 26.139 L 48.874 26.139 L 46.12 23.959 C 45.048 23.11 44.368 21.897 44.21 20.537 C 44.052 19.178 44.433 17.842 45.282 16.764 C 47.034 14.549 50.263 14.174 52.478 15.926 L 66.78 27.246 C 66.798 27.264 66.821 27.281 66.844 27.299 C 66.95 27.387 67.05 27.475 67.149 27.574 C 67.167 27.592 67.19 27.609 67.208 27.627 C 67.343 27.756 67.46 27.891 67.577 28.037 C 67.606 28.078 67.641 28.119 67.671 28.16 C 67.753 28.266 67.829 28.371 67.899 28.477 C 67.928 28.523 67.952 28.564 67.981 28.605 C 68.057 28.734 68.116 28.84 68.175 28.951 C 68.198 29.004 68.227 29.057 68.251 29.109 C 68.303 29.221 68.35 29.338 68.397 29.461 C 68.397 29.461 68.409 29.484 68.409 29.49 C 68.426 29.531 68.438 29.578 68.456 29.619 C 68.497 29.748 68.538 29.871 68.567 30 C 68.585 30.059 68.596 30.105 68.602 30.152 C 68.632 30.287 68.655 30.428 68.673 30.562 C 68.678 30.598 68.684 30.65 68.69 30.697 C 68.714 30.896 68.719 31.078 68.719 31.26 C 68.719 31.441 68.708 31.623 68.69 31.816 C 68.684 31.869 68.678 31.916 68.667 31.963 C 68.649 32.092 68.626 32.227 68.596 32.361 L 68.561 32.502 C 68.526 32.643 68.491 32.766 68.45 32.895 C 68.432 32.941 68.421 32.988 68.403 33.029 C 68.403 33.029 68.391 33.053 68.391 33.059 C 68.344 33.176 68.298 33.293 68.245 33.41 C 68.221 33.463 68.192 33.516 68.169 33.568 C 68.11 33.68 68.051 33.785 67.987 33.891 C 67.946 33.955 67.923 33.996 67.893 34.043 C 67.823 34.154 67.747 34.26 67.671 34.359 C 67.635 34.406 67.606 34.447 67.577 34.488 C 67.46 34.635 67.343 34.764 67.219 34.887 C 67.202 34.904 67.178 34.928 67.155 34.945 C 67.061 35.039 66.956 35.133 66.85 35.215 C 66.827 35.232 66.803 35.256 66.78 35.273 L 52.471 46.594 C 51.569 47.308 50.444 47.701 49.296 47.701 C 47.719 47.701 46.255 46.992 45.276 45.756 C 44.426 44.684 44.046 43.342 44.204 41.988 C 44.362 40.629 45.042 39.416 46.114 38.566 L 48.868 36.387 L 9.809 36.381 C 6.985 36.381 4.688 34.084 4.688 31.26 Z M 104.057 91.435 C 102.914 91.435 101.789 91.042 100.887 90.333 L 86.596 79.025 C 86.566 79.001 86.537 78.978 86.513 78.954 C 86.414 78.872 86.314 78.785 86.209 78.685 L 86.138 78.615 C 86.021 78.497 85.91 78.374 85.787 78.228 C 85.74 78.169 85.699 78.117 85.67 78.07 C 85.594 77.97 85.523 77.876 85.459 77.771 C 85.435 77.736 85.412 77.701 85.388 77.66 C 85.383 77.648 85.359 77.613 85.347 77.595 C 85.295 77.501 85.242 77.408 85.189 77.314 L 85.154 77.244 L 85.107 77.138 C 85.06 77.038 85.013 76.927 84.972 76.816 C 84.943 76.751 84.92 76.681 84.896 76.611 C 84.861 76.499 84.826 76.376 84.797 76.259 C 84.797 76.253 84.797 76.247 84.791 76.247 C 84.779 76.206 84.773 76.177 84.762 76.142 C 84.756 76.124 84.75 76.107 84.75 76.083 C 84.721 75.96 84.703 75.831 84.685 75.703 L 84.685 75.685 C 84.679 75.638 84.668 75.585 84.668 75.538 C 84.644 75.351 84.638 75.163 84.638 74.988 C 84.638 74.812 84.65 74.624 84.668 74.437 C 84.674 74.384 84.679 74.337 84.685 74.29 L 84.685 74.273 C 84.703 74.144 84.726 74.015 84.75 73.892 C 84.756 73.874 84.756 73.857 84.762 73.833 C 84.767 73.798 84.779 73.763 84.791 73.728 L 84.791 73.734 C 84.791 73.728 84.797 73.716 84.797 73.71 C 84.826 73.593 84.861 73.476 84.896 73.359 C 84.92 73.288 84.943 73.218 84.972 73.154 C 85.013 73.042 85.06 72.931 85.113 72.826 L 85.16 72.72 L 85.195 72.65 C 85.248 72.55 85.301 72.456 85.353 72.369 C 85.359 72.357 85.371 72.339 85.377 72.328 C 85.412 72.269 85.435 72.234 85.459 72.199 C 85.523 72.099 85.594 71.999 85.67 71.9 C 85.705 71.853 85.74 71.806 85.775 71.759 C 85.91 71.595 86.027 71.466 86.138 71.349 C 86.162 71.326 86.179 71.308 86.209 71.285 C 86.314 71.185 86.414 71.097 86.513 71.015 C 86.543 70.992 86.572 70.968 86.601 70.945 L 100.886 59.642 C 101.959 58.792 103.3 58.412 104.66 58.57 C 106.019 58.728 107.238 59.408 108.082 60.48 C 109.834 62.695 109.459 65.917 107.244 67.675 L 104.49 69.855 L 118.33 69.855 C 127.564 69.855 135.076 62.343 135.076 53.109 C 135.076 44.894 128.959 37.774 120.837 36.55 C 119.994 36.421 119.384 35.677 119.425 34.827 C 119.431 34.739 119.431 34.651 119.431 34.564 L 119.431 27.931 C 119.431 27.456 119.63 27.011 119.982 26.695 C 120.334 26.378 120.802 26.232 121.271 26.278 C 127.833 26.993 133.903 30.105 138.357 35.038 C 142.845 40.007 145.312 46.423 145.312 53.108 C 145.312 67.991 133.207 80.096 118.325 80.096 L 104.485 80.096 L 107.239 82.275 C 109.454 84.027 109.829 87.256 108.077 89.471 C 107.098 90.707 105.633 91.416 104.057 91.416 Z M 98.537 118.182 C 98.561 118.37 98.566 118.557 98.566 118.733 C 98.566 118.909 98.555 119.097 98.537 119.284 C 98.531 119.337 98.525 119.384 98.52 119.431 L 98.52 119.448 C 98.502 119.577 98.479 119.706 98.455 119.829 C 98.449 119.847 98.449 119.864 98.443 119.888 C 98.432 119.929 98.42 119.964 98.414 120.005 C 98.385 120.116 98.35 120.239 98.309 120.356 C 98.285 120.427 98.262 120.497 98.232 120.561 C 98.191 120.673 98.145 120.784 98.092 120.89 C 98.068 120.942 98.045 120.989 98.021 121.036 C 97.969 121.147 97.91 121.247 97.852 121.347 C 97.846 121.358 97.834 121.376 97.828 121.388 C 97.793 121.446 97.77 121.481 97.746 121.522 C 97.688 121.61 97.629 121.698 97.564 121.78 L 97.547 121.804 C 97.512 121.85 97.477 121.903 97.436 121.95 C 97.43 121.956 97.424 121.968 97.418 121.974 C 97.295 122.12 97.184 122.249 97.066 122.36 C 97.031 122.395 97.002 122.425 96.973 122.448 C 96.885 122.536 96.791 122.618 96.697 122.694 C 96.668 122.718 96.639 122.747 96.604 122.77 L 82.325 134.073 C 81.417 134.788 80.292 135.181 79.149 135.181 C 77.573 135.181 76.108 134.472 75.13 133.235 C 73.378 131.02 73.753 127.792 75.967 126.04 L 78.721 123.86 L 31.676 123.86 C 16.794 123.86 4.689 111.755 4.689 96.873 C 4.689 81.991 16.794 69.885 31.676 69.885 L 32.081 69.885 C 32.538 69.885 32.977 70.073 33.293 70.413 C 33.61 70.747 33.768 71.198 33.739 71.655 L 33.739 78.381 C 33.768 78.838 33.604 79.284 33.293 79.618 C 32.977 79.952 32.543 80.133 32.081 80.133 L 31.676 80.133 C 22.442 80.133 14.93 87.645 14.93 96.88 C 14.93 106.114 22.442 113.626 31.676 113.626 L 78.721 113.626 L 75.967 111.446 C 73.753 109.694 73.378 106.466 75.13 104.251 C 75.979 103.179 77.192 102.499 78.551 102.341 C 79.911 102.183 81.247 102.563 82.319 103.413 L 96.598 114.716 C 96.633 114.745 96.662 114.768 96.692 114.792 C 96.785 114.868 96.873 114.95 96.967 115.032 C 96.996 115.056 97.031 115.091 97.061 115.12 C 97.178 115.237 97.289 115.36 97.412 115.507 C 97.418 115.513 97.424 115.524 97.43 115.53 C 97.471 115.577 97.506 115.63 97.541 115.677 L 97.559 115.7 C 97.623 115.788 97.682 115.87 97.74 115.958 C 97.764 115.993 97.787 116.028 97.811 116.069 C 97.817 116.081 97.84 116.116 97.852 116.134 C 97.91 116.233 97.969 116.333 98.022 116.444 L 98.092 116.585 C 98.145 116.696 98.192 116.808 98.233 116.919 C 98.262 116.983 98.285 117.054 98.309 117.124 C 98.35 117.241 98.385 117.364 98.414 117.487 C 98.42 117.511 98.432 117.552 98.443 117.593 C 98.449 117.61 98.455 117.628 98.455 117.651 C 98.484 117.774 98.502 117.903 98.52 118.032 L 98.52 118.05 C 98.526 118.097 98.537 118.143 98.537 118.196 Z" fill="currentColor"></path></svg>