<svg viewBox="0 0 150 150" xmlns="http://www.w3.org/2000/svg" width="150" height="150" fill="none"><g transform="translate(-0.5 -0.5)"><path d="M 138.873 0.044 C 130.112 0.508 121.611 2.147 113.496 4.833 C 115.479 9.382 118.031 13.777 121.104 17.665 C 127.375 25.807 135.7 32.403 145.15 36.487 C 147.921 28.197 149.51 19.479 149.988 10.549 C 150.291 4.755 144.848 -0.582 138.872 0.051 Z M 106.735 7.391 C 87.709 15.007 71.592 29.709 59.949 47.265 L 32.238 85.627 C 32.231 85.788 31.148 87.047 31.085 87.237 C 30.037 88.699 30.192 90.64 31.471 91.927 L 58.05 118.506 C 60.061 120.46 62.424 119.419 64.245 117.788 C 64.266 117.76 102.685 90.065 102.706 90.029 C 120.263 78.385 134.964 62.27 142.579 43.243 C 126.638 36.507 113.447 23.352 106.726 7.39 Z M 88.706 61.274 C 73.061 44.595 96.455 21.153 113.161 36.819 C 128.828 53.532 105.377 76.918 88.706 61.274 Z M 8.935 85.883 L 23.349 87.289 C 23.666 84.843 25.606 82.361 27.062 80.399 L 55.538 41.065 L 33.72 42.394 C 24.812 42.956 16.944 47.949 12.717 55.81 L 2.81 74.379 C 0.131 79.069 3.548 85.446 8.927 85.875 Z M 62.69 126.624 L 64.125 141.017 C 64.343 143.647 65.946 145.903 68.224 147.162 C 70.528 148.393 73.295 148.393 75.6 147.162 L 94.169 137.255 C 102.029 133.03 107.022 125.168 107.584 116.252 L 108.913 94.434 L 69.58 122.91 C 67.625 124.373 65.143 126.307 62.689 126.623 Z M 28.94 99.635 L 24.482 102.659 C 20.46 105.282 19.904 111.385 23.357 114.696 L 35.289 126.628 C 38.615 130.102 44.711 129.519 47.327 125.503 L 50.35 121.046 C 44.5 115.189 34.762 105.458 28.939 99.634 Z M 14.152 118.978 C 15.566 117.565 15.566 115.272 14.152 113.859 C 12.739 112.446 10.447 112.446 9.034 113.859 L 1.06 121.832 C -0.353 123.247 -0.353 125.538 1.06 126.951 C 2.473 128.365 4.765 128.365 6.179 126.951 Z M 25.143 124.843 C 23.73 123.43 21.437 123.43 20.024 124.843 L 5.849 139.018 C 4.436 140.431 4.436 142.724 5.849 144.137 C 7.262 145.55 9.554 145.55 10.975 144.137 L 25.15 129.962 C 26.563 128.549 26.563 126.256 25.15 124.836 Z M 31 135.825 L 23.027 143.798 C 21.614 145.211 21.614 147.504 23.027 148.917 C 24.44 150.33 26.732 150.33 28.146 148.917 L 36.119 140.944 C 37.533 139.53 37.533 137.238 36.119 135.825 C 34.706 134.411 32.414 134.411 31 135.825 Z" fill="currentColor"></path><path d="M 93.845 56.148 C 103.478 65.268 117.209 51.578 108.055 41.938 C 98.415 32.783 84.725 46.522 93.845 56.148 Z" fill="currentColor"></path></g></svg>