<svg viewBox="0 0 150 150" xmlns="http://www.w3.org/2000/svg" width="150" height="150" fill="none"><path d="M 67.835 74.431 L 71.515 70.746 L 79.255 78.492 L 75.575 82.172 C 74.778 82.969 74.626 84.17 75.194 85.142 C 76.495 87.363 77.503 89.777 78.165 92.326 C 78.452 93.416 79.407 94.16 80.538 94.16 L 85.747 94.16 L 85.747 105.1 L 80.538 105.1 C 79.407 105.1 78.446 105.844 78.165 106.934 C 77.497 109.482 76.489 111.891 75.194 114.117 C 74.626 115.096 74.778 116.291 75.575 117.088 L 79.255 120.773 L 71.515 128.514 L 67.835 124.834 C 67.038 124.025 65.837 123.873 64.864 124.447 C 62.644 125.748 60.23 126.756 57.681 127.418 C 56.585 127.711 55.847 128.666 55.847 129.791 L 55.847 135 L 44.901 135 L 44.901 129.791 C 44.901 128.666 44.163 127.705 43.067 127.418 C 40.524 126.75 38.116 125.742 35.89 124.447 C 34.911 123.879 33.716 124.031 32.907 124.834 L 29.228 128.514 L 21.487 120.773 L 25.167 117.088 C 25.976 116.291 26.128 115.096 25.548 114.117 C 24.259 111.896 23.239 109.482 22.577 106.934 C 22.29 105.844 21.335 105.1 20.204 105.1 L 15.001 105.094 L 15.001 94.154 L 20.21 94.154 C 21.341 94.154 22.302 93.41 22.583 92.32 C 23.251 89.771 24.265 87.363 25.554 85.137 C 26.128 84.164 25.976 82.963 25.173 82.166 L 21.493 78.486 L 29.233 70.74 L 32.913 74.425 C 33.722 75.222 34.911 75.375 35.896 74.806 C 38.116 73.506 40.53 72.498 43.073 71.836 C 44.169 71.543 44.907 70.593 44.907 69.463 L 44.901 64.254 L 55.847 64.254 L 55.847 69.463 C 55.847 70.593 56.585 71.549 57.681 71.836 C 60.23 72.503 62.638 73.511 64.858 74.806 C 65.837 75.38 67.038 75.228 67.835 74.431 Z M 123.845 19.904 C 122.497 19.904 121.402 18.808 121.402 17.455 C 121.402 16.101 122.497 15.005 123.845 15.005 L 132.546 15.005 C 133.9 15.005 134.995 16.101 134.995 17.455 L 134.995 26.15 C 134.995 27.503 133.9 28.599 132.546 28.599 C 131.193 28.599 130.097 27.503 130.097 26.15 L 130.097 19.904 Z M 20.849 57.351 C 20.849 56.004 21.944 54.908 23.292 54.908 C 24.646 54.908 25.741 56.004 25.741 57.351 L 25.741 66.861 C 25.741 68.215 24.646 69.31 23.292 69.31 C 21.945 69.31 20.849 68.215 20.849 66.861 Z M 20.849 37.4 C 20.849 36.047 21.944 34.951 23.292 34.951 C 24.646 34.951 25.741 36.046 25.741 37.4 L 25.741 46.91 C 25.741 48.263 24.646 49.359 23.292 49.359 C 21.945 49.359 20.849 48.263 20.849 46.91 Z M 103.091 129.152 C 101.738 129.152 100.642 128.057 100.642 126.703 C 100.642 125.356 101.738 124.26 103.091 124.26 L 112.601 124.26 C 113.949 124.26 115.044 125.356 115.044 126.703 C 115.044 128.057 113.949 129.152 112.601 129.152 Z M 83.146 129.152 C 81.793 129.152 80.697 128.057 80.697 126.703 C 80.697 125.356 81.793 124.26 83.146 124.26 L 92.65 124.26 C 94.004 124.26 95.099 125.356 95.099 126.703 C 95.099 128.057 94.004 129.152 92.65 129.152 Z M 130.098 97.254 C 130.098 95.9 131.193 94.804 132.547 94.804 C 133.906 94.804 135.002 95.9 135.002 97.254 L 135.002 106.758 C 135.002 108.111 133.906 109.207 132.553 109.207 C 131.199 109.207 130.103 108.111 130.103 106.758 Z M 103.091 19.905 C 101.738 19.905 100.642 18.809 100.642 17.456 C 100.642 16.102 101.738 15.006 103.091 15.006 L 112.601 15.006 C 113.949 15.006 115.044 16.102 115.044 17.456 C 115.044 18.809 113.949 19.905 112.601 19.905 Z M 130.098 77.31 C 130.098 75.956 131.193 74.861 132.547 74.861 C 133.906 74.855 135.002 75.951 135.002 77.31 L 135.002 86.814 C 135.002 88.167 133.906 89.263 132.553 89.263 C 131.199 89.263 130.103 88.167 130.103 86.814 Z M 83.146 19.905 C 81.793 19.905 80.697 18.809 80.697 17.456 C 80.697 16.102 81.793 15.006 83.146 15.006 L 92.65 15.006 C 94.004 15.006 95.099 16.102 95.099 17.456 C 95.099 18.809 94.004 19.905 92.65 19.905 Z M 130.098 57.352 C 130.098 56.005 131.193 54.909 132.547 54.909 C 133.906 54.909 135.002 56.005 135.002 57.352 L 135.002 66.862 C 135.002 68.216 133.906 69.311 132.553 69.311 C 131.199 69.311 130.103 68.216 130.103 66.862 Z M 63.195 19.905 C 61.841 19.905 60.746 18.809 60.746 17.456 C 60.746 16.102 61.841 15.006 63.195 15.006 L 72.699 15.006 C 74.052 15.006 75.148 16.102 75.148 17.456 C 75.148 18.809 74.052 19.905 72.699 19.905 Z M 130.098 37.401 C 130.098 36.048 131.193 34.952 132.547 34.952 C 133.906 34.952 135.002 36.048 135.002 37.401 L 135.002 46.911 C 135.002 48.264 133.906 49.36 132.553 49.36 C 131.199 49.36 130.103 48.265 130.103 46.911 Z M 43.25 19.905 C 41.896 19.905 40.801 18.809 40.801 17.456 C 40.801 16.102 41.896 15.006 43.25 15.006 L 52.754 15.006 C 54.107 15.006 55.203 16.102 55.203 17.456 C 55.203 18.809 54.107 19.905 52.754 19.905 Z M 32 15.006 C 33.353 15.006 34.449 16.102 34.449 17.456 C 34.449 18.809 33.354 19.905 32 19.905 L 25.748 19.905 L 25.748 26.151 C 25.748 27.505 24.652 28.6 23.299 28.6 C 21.951 28.6 20.855 27.505 20.855 26.151 L 20.855 17.456 C 20.855 16.102 21.951 15.007 23.299 15.007 Z M 130.097 118.009 C 130.097 116.655 131.193 115.56 132.547 115.56 C 133.906 115.554 135.002 116.655 135.002 118.009 L 135.002 126.704 C 135.002 128.058 133.906 129.153 132.553 129.153 L 123.851 129.153 C 122.504 129.153 121.408 128.058 121.408 126.704 C 121.408 125.357 122.504 124.261 123.851 124.261 L 130.103 124.261 Z M 120.078 33.388 L 81.453 72.013 L 77.996 68.544 L 116.621 29.919 L 104.41 29.919 C 103.057 29.919 101.961 28.823 101.961 27.476 C 101.961 26.122 103.056 25.026 104.41 25.026 L 122.533 25.026 C 123.886 25.026 124.982 26.122 124.982 27.476 L 124.982 45.598 C 124.982 46.952 123.886 48.047 122.533 48.047 C 121.179 48.047 120.083 46.952 120.083 45.598 Z M 34.338 99.628 C 34.338 108.48 41.521 115.664 50.374 115.664 C 59.233 115.664 66.417 108.481 66.417 99.628 C 66.417 90.769 59.239 83.585 50.374 83.585 C 41.522 83.585 34.338 90.768 34.338 99.628 Z" fill="currentColor"></path></svg>