<svg viewBox="0 0 150 150" xmlns="http://www.w3.org/2000/svg" width="150" height="150" fill="none"><path d="M 94.131 89.339 L 94.131 77.391 L 88.073 78.85 C 87.018 79.102 86.086 79.548 85.295 80.169 C 84.504 80.79 83.854 81.587 83.356 82.559 L 76.149 96.534 C 75.844 97.132 75.223 97.46 74.596 97.425 L 62.309 97.425 L 62.309 131.123 L 83.361 131.123 C 83.725 131.123 84.064 131.24 84.334 131.445 L 94.699 138.084 C 95.315 138.476 95.924 138.763 96.551 138.945 C 97.172 139.126 97.846 139.214 98.584 139.214 L 128.654 139.214 C 130.939 139.214 132.392 138.001 133.019 136.443 C 133.271 135.816 133.4 135.119 133.4 134.421 C 133.4 133.718 133.271 133.027 133.019 132.4 C 132.422 130.906 131.062 129.728 128.935 129.628 L 120.885 129.628 C 119.976 129.628 119.238 128.89 119.238 127.982 C 119.238 127.074 119.976 126.335 120.885 126.335 L 132.732 126.335 C 135.017 126.335 136.47 125.122 137.097 123.564 C 137.349 122.937 137.478 122.24 137.478 121.542 C 137.478 120.839 137.349 120.148 137.097 119.521 C 136.47 117.968 135.017 116.749 132.732 116.749 L 121.465 116.749 C 120.556 116.749 119.818 116.011 119.818 115.103 C 119.818 114.195 120.556 113.456 121.465 113.456 L 133.312 113.456 C 135.597 113.456 137.05 112.243 137.677 110.685 C 137.929 110.058 138.058 109.361 138.058 108.663 C 138.058 107.96 137.929 107.269 137.677 106.642 C 137.05 105.089 135.597 103.87 133.312 103.87 L 122.045 103.87 C 121.136 103.87 120.398 103.132 120.398 102.224 C 120.398 101.316 121.136 100.577 122.045 100.577 L 133.892 100.577 C 136.177 100.577 137.63 99.364 138.257 97.806 C 138.509 97.179 138.638 96.482 138.638 95.784 C 138.638 95.081 138.509 94.39 138.257 93.763 C 137.63 92.21 136.177 90.991 133.892 90.991 L 95.783 90.991 C 94.875 90.991 94.137 90.253 94.137 89.345 Z M 69.569 68.948 C 68.848 70.348 67.893 71.508 66.739 72.416 C 65.585 73.325 64.225 73.969 62.69 74.338 L 58.899 75.246 L 68.948 80.426 C 70.348 81.147 71.508 82.102 72.417 83.256 C 73.319 84.411 73.969 85.77 74.339 87.305 L 75.247 91.096 L 80.426 81.047 C 81.147 79.647 82.102 78.487 83.257 77.579 C 84.411 76.67 85.77 76.026 87.305 75.657 L 91.096 74.749 L 81.048 69.569 C 79.647 68.848 78.487 67.893 77.579 66.739 C 76.676 65.584 76.026 64.225 75.657 62.69 L 74.749 58.899 Z M 77.386 55.869 L 78.845 61.928 C 79.097 62.983 79.542 63.914 80.163 64.705 C 80.784 65.491 81.587 66.147 82.554 66.645 L 96.529 73.852 C 97.091 74.145 97.419 74.713 97.419 75.311 L 97.425 75.311 L 97.425 87.692 L 131.117 87.692 L 131.117 66.639 C 131.117 66.276 131.24 65.942 131.439 65.667 L 138.077 55.301 C 138.47 54.686 138.757 54.077 138.939 53.45 C 139.12 52.829 139.208 52.155 139.208 51.417 L 139.208 21.347 C 139.208 19.061 137.99 17.608 136.437 16.981 C 135.81 16.729 135.118 16.6 134.415 16.6 C 133.718 16.6 133.021 16.729 132.394 16.981 C 130.835 17.608 129.616 19.056 129.616 21.341 L 129.616 29.116 C 129.616 30.024 128.878 30.757 127.976 30.757 C 127.068 30.757 126.335 30.024 126.335 29.116 L 126.335 17.268 C 126.335 14.983 125.116 13.53 123.558 12.903 C 122.931 12.651 122.239 12.522 121.536 12.522 C 120.839 12.522 120.142 12.651 119.515 12.903 C 117.956 13.53 116.743 14.983 116.743 17.268 L 116.743 28.536 C 116.743 29.444 116.005 30.183 115.097 30.183 C 114.189 30.183 113.45 29.444 113.45 28.536 L 113.45 17.268 C 113.45 17.151 113.45 17.028 113.456 16.911 L 113.456 16.694 C 113.456 14.409 112.237 12.956 110.679 12.329 C 110.052 12.077 109.36 11.948 108.657 11.948 L 108.657 11.942 C 107.966 11.942 107.274 12.071 106.636 12.329 C 105.077 12.956 103.864 14.409 103.864 16.694 L 103.864 27.962 C 103.864 28.87 103.126 29.608 102.218 29.608 C 101.31 29.608 100.571 28.87 100.571 27.962 L 100.571 16.114 C 100.571 13.829 99.352 12.376 97.8 11.749 C 97.173 11.497 96.481 11.368 95.778 11.368 C 95.081 11.368 94.384 11.497 93.757 11.749 C 92.198 12.376 90.985 13.829 90.985 16.114 L 90.985 54.223 C 90.985 55.131 90.247 55.87 89.339 55.87 Z M 16.641 46.137 L 27.961 46.137 C 28.87 46.137 29.608 46.875 29.608 47.784 C 29.608 48.692 28.87 49.43 27.961 49.43 L 16.114 49.43 C 13.829 49.43 12.376 50.643 11.749 52.202 C 11.497 52.829 11.368 53.526 11.368 54.223 C 11.368 54.926 11.497 55.618 11.749 56.245 C 12.376 57.797 13.829 59.016 16.114 59.016 L 16.114 59.022 L 17.092 59.022 C 17.139 59.016 17.192 59.016 17.239 59.016 C 17.286 59.016 17.338 59.022 17.385 59.022 L 54.077 59.022 C 54.123 59.016 54.17 59.016 54.223 59.016 C 55.131 59.016 55.87 59.754 55.87 60.663 L 55.87 72.61 L 61.928 71.151 C 62.983 70.899 63.915 70.454 64.706 69.832 C 65.497 69.211 66.147 68.414 66.645 67.442 L 73.852 53.467 C 74.145 52.899 74.719 52.576 75.311 52.576 L 75.311 52.57 L 87.692 52.57 L 87.692 18.885 L 66.639 18.885 C 66.276 18.885 65.936 18.768 65.667 18.563 L 55.302 11.925 C 54.686 11.532 54.077 11.245 53.45 11.063 C 52.829 10.882 52.155 10.794 51.417 10.794 L 21.341 10.794 C 19.055 10.794 17.602 12.007 16.975 13.565 C 16.723 14.192 16.594 14.889 16.594 15.587 C 16.594 16.29 16.723 16.981 16.975 17.608 C 17.573 19.102 18.932 20.28 21.059 20.38 L 29.11 20.38 C 30.018 20.38 30.757 21.118 30.757 22.026 C 30.757 22.934 30.018 23.673 29.11 23.673 L 17.262 23.673 C 14.977 23.673 13.524 24.886 12.897 26.444 C 12.645 27.071 12.516 27.768 12.516 28.466 C 12.516 29.169 12.645 29.86 12.897 30.487 C 13.524 32.04 14.977 33.259 17.262 33.259 L 28.53 33.259 C 29.438 33.259 30.177 33.997 30.177 34.905 C 30.177 35.813 29.438 36.552 28.53 36.552 L 16.682 36.552 C 14.397 36.552 12.944 37.765 12.317 39.323 C 12.065 39.95 11.936 40.647 11.936 41.345 C 11.936 42.048 12.065 42.739 12.317 43.366 C 12.938 44.907 14.374 46.12 16.636 46.138 Z M 15.592 62.292 C 12.042 62.11 9.739 60.06 8.696 57.464 C 8.28 56.433 8.075 55.32 8.075 54.218 C 8.075 53.116 8.286 52.009 8.696 50.972 C 9.241 49.624 10.12 48.417 11.344 47.55 C 10.419 46.735 9.727 45.71 9.27 44.585 C 8.854 43.554 8.649 42.441 8.649 41.339 C 8.649 40.237 8.86 39.13 9.27 38.093 C 9.815 36.745 10.694 35.538 11.919 34.671 C 10.993 33.856 10.301 32.831 9.844 31.706 C 9.428 30.675 9.223 29.562 9.223 28.46 C 9.223 27.358 9.434 26.251 9.844 25.214 C 10.7 23.087 12.399 21.323 14.948 20.661 C 14.526 20.099 14.186 19.483 13.923 18.827 C 13.507 17.796 13.301 16.683 13.301 15.581 C 13.301 14.479 13.512 13.372 13.923 12.335 C 15.012 9.616 17.491 7.495 21.335 7.495 L 51.405 7.495 C 52.43 7.495 53.403 7.63 54.352 7.905 C 55.301 8.18 56.192 8.596 57.065 9.153 L 67.108 15.587 L 87.698 15.587 C 87.879 12.036 89.93 9.733 92.526 8.696 C 93.557 8.28 94.67 8.075 95.772 8.075 C 96.874 8.075 97.981 8.286 99.018 8.696 C 100.366 9.241 101.573 10.12 102.44 11.345 C 103.254 10.419 104.28 9.727 105.405 9.27 C 106.43 8.86 107.538 8.655 108.651 8.655 L 108.651 8.649 C 109.753 8.649 110.86 8.86 111.897 9.27 C 113.245 9.815 114.446 10.694 115.319 11.925 C 116.133 10.993 117.159 10.302 118.29 9.85 C 119.321 9.434 120.434 9.229 121.536 9.229 C 122.638 9.229 123.745 9.434 124.782 9.85 C 126.909 10.706 128.673 12.405 129.335 14.954 C 129.897 14.532 130.518 14.186 131.175 13.923 C 132.206 13.507 133.319 13.301 134.421 13.301 C 135.522 13.301 136.63 13.512 137.667 13.923 C 140.386 15.012 142.507 17.491 142.507 21.335 L 142.507 51.405 C 142.507 52.43 142.372 53.403 142.097 54.352 C 141.821 55.301 141.405 56.192 140.849 57.065 L 134.415 67.108 L 134.415 87.698 C 137.966 87.879 140.268 89.93 141.311 92.526 C 141.727 93.557 141.933 94.67 141.933 95.772 C 141.933 96.874 141.722 97.981 141.311 99.018 C 140.767 100.366 139.888 101.573 138.663 102.44 C 139.589 103.255 140.28 104.28 140.737 105.405 C 141.153 106.436 141.358 107.549 141.358 108.651 C 141.358 109.753 141.147 110.86 140.737 111.897 C 140.192 113.245 139.313 114.452 138.089 115.319 C 139.014 116.134 139.706 117.159 140.163 118.284 C 140.579 119.315 140.784 120.428 140.784 121.53 C 140.784 122.632 140.573 123.739 140.163 124.776 C 139.307 126.903 137.608 128.667 135.059 129.329 C 135.481 129.891 135.821 130.507 136.085 131.163 C 136.501 132.194 136.706 133.307 136.706 134.409 C 136.706 135.511 136.495 136.618 136.085 137.655 C 134.995 140.374 132.516 142.495 128.673 142.495 L 98.603 142.495 C 97.577 142.495 96.605 142.36 95.655 142.085 C 94.706 141.81 93.816 141.394 92.943 140.837 L 82.9 134.403 L 62.31 134.403 C 62.128 137.954 60.077 140.257 57.481 141.294 C 56.45 141.71 55.337 141.915 54.235 141.915 C 53.134 141.915 52.026 141.71 50.989 141.294 C 49.642 140.749 48.434 139.87 47.567 138.645 C 46.753 139.571 45.727 140.263 44.602 140.72 C 43.571 141.136 42.458 141.341 41.356 141.341 C 40.255 141.341 39.147 141.13 38.11 140.72 C 36.763 140.175 35.555 139.296 34.688 138.071 C 33.874 138.997 32.848 139.688 31.723 140.145 C 30.692 140.561 29.579 140.766 28.477 140.766 C 27.376 140.766 26.268 140.556 25.231 140.145 C 23.104 139.29 21.341 137.591 20.678 135.042 C 20.116 135.464 19.501 135.804 18.844 136.067 C 17.813 136.483 16.7 136.688 15.598 136.688 C 14.497 136.688 13.389 136.477 12.352 136.067 C 9.633 134.977 7.512 132.499 7.512 128.655 L 7.512 98.585 L 7.518 98.585 C 7.518 97.542 7.653 96.57 7.923 95.638 C 8.198 94.689 8.614 93.798 9.171 92.925 L 15.604 82.882 L 15.604 62.292 Z M 18.885 62.304 L 18.885 83.362 C 18.885 83.726 18.762 84.06 18.563 84.335 L 11.924 94.7 C 11.531 95.315 11.244 95.925 11.063 96.552 C 10.875 97.19 10.787 97.858 10.787 98.585 L 10.793 98.585 L 10.793 128.655 C 10.793 130.94 12.012 132.393 13.565 133.02 C 14.192 133.272 14.883 133.401 15.586 133.401 C 16.283 133.401 16.981 133.272 17.608 133.02 C 19.102 132.423 20.279 131.063 20.379 128.942 L 20.379 120.885 C 20.379 119.977 21.117 119.239 22.026 119.239 C 22.934 119.239 23.672 119.977 23.672 120.885 L 23.672 132.733 C 23.672 135.018 24.891 136.471 26.444 137.098 C 27.071 137.35 27.762 137.479 28.465 137.479 C 29.162 137.479 29.86 137.35 30.487 137.098 C 32.045 136.471 33.258 135.018 33.258 132.733 L 33.258 121.465 C 33.258 120.557 33.996 119.819 34.905 119.819 C 35.813 119.819 36.551 120.557 36.551 121.465 L 36.551 133.313 C 36.551 135.598 37.77 137.051 39.323 137.678 C 39.95 137.93 40.641 138.059 41.344 138.059 C 42.041 138.059 42.739 137.93 43.366 137.678 C 44.924 137.051 46.137 135.598 46.137 133.313 L 46.137 122.045 C 46.137 121.137 46.875 120.399 47.784 120.399 C 48.692 120.399 49.43 121.137 49.43 122.045 L 49.43 133.893 C 49.43 136.178 50.649 137.631 52.202 138.258 C 52.829 138.51 53.52 138.639 54.223 138.639 C 54.92 138.639 55.618 138.51 56.245 138.258 C 57.803 137.631 59.016 136.178 59.016 133.893 L 59.016 95.784 C 59.016 94.876 59.754 94.138 60.663 94.138 C 60.715 94.138 60.768 94.138 60.815 94.144 L 72.616 94.144 L 71.157 88.073 C 70.905 87.019 70.459 86.087 69.838 85.296 C 69.217 84.511 68.414 83.855 67.448 83.357 L 53.473 76.15 C 52.91 75.857 52.582 75.288 52.582 74.691 L 52.576 74.691 L 52.576 62.304 Z" fill="currentColor"></path></svg>