<svg viewBox="0 0 150 150" xmlns="http://www.w3.org/2000/svg" width="150" height="150" fill="none"><path d="M 108.878 69.595 C 111.724 67.063 110.301 62.316 106.507 62 L 88.963 60.575 C 87.382 60.417 85.96 59.468 85.327 57.886 L 78.53 41.588 C 77.107 38.108 72.05 38.108 70.627 41.588 L 63.83 57.886 C 63.198 59.31 61.775 60.417 60.195 60.575 L 42.808 62.158 C 39.014 62.474 37.434 67.221 40.437 69.753 L 53.714 81.145 C 54.979 82.252 55.453 83.835 55.137 85.417 L 51.027 102.505 C 50.079 106.145 54.188 109.151 57.35 107.094 L 72.366 97.917 C 73.788 97.126 75.527 97.126 76.792 97.917 L 91.807 107.094 C 95.126 109.151 99.078 106.145 98.13 102.505 L 94.02 85.417 C 93.704 83.835 94.178 82.252 95.443 81.145 Z M 74.579 23.234 C 77.266 23.234 79.321 21.019 79.321 18.487 L 79.321 4.247 C 79.321 1.557 77.108 -0.5 74.579 -0.5 C 72.05 -0.5 69.837 1.715 69.837 4.247 L 69.837 18.487 C 69.837 21.019 72.05 23.234 74.579 23.234 Z M 31.586 38.107 C 32.535 39.057 33.799 39.532 34.906 39.532 C 36.17 39.532 37.276 39.057 38.225 38.107 C 40.121 36.209 40.121 33.203 38.225 31.303 L 28.109 21.177 C 26.212 19.278 23.209 19.278 21.312 21.177 C 19.415 23.075 19.415 26.082 21.312 27.981 Z M 23.209 74.342 C 23.209 71.652 20.996 69.595 18.467 69.595 L 4.242 69.595 C 1.555 69.595 -0.5 71.652 -0.5 74.342 C -0.5 77.031 1.713 79.088 4.242 79.088 L 18.467 79.088 C 20.996 79.088 23.209 76.873 23.209 74.342 Z M 31.27 110.576 L 21.154 120.703 C 19.258 122.601 19.258 125.608 21.154 127.506 C 22.103 128.456 23.367 128.93 24.474 128.93 C 25.58 128.93 26.844 128.456 27.793 127.506 L 37.909 117.38 C 39.805 115.481 39.805 112.475 37.909 110.576 C 36.171 108.835 33.167 108.835 31.27 110.576 Z M 74.263 125.766 C 71.576 125.766 69.521 127.981 69.521 130.513 L 69.521 144.753 C 69.521 147.442 71.734 149.5 74.263 149.5 C 76.792 149.5 79.005 147.285 79.005 144.753 L 79.005 130.513 C 79.005 127.981 76.792 125.766 74.263 125.766 Z M 117.255 110.892 C 115.359 108.994 112.356 108.994 110.459 110.892 C 108.562 112.79 108.562 115.798 110.459 117.696 L 120.575 127.823 C 121.523 128.772 122.788 129.247 123.894 129.247 C 125 129.247 126.265 128.772 127.213 127.823 C 129.109 125.924 129.109 122.918 127.213 121.019 Z M 144.758 69.911 L 130.533 69.911 C 127.846 69.911 125.791 72.127 125.791 74.658 C 125.791 77.19 128.004 79.405 130.533 79.405 L 144.758 79.405 C 147.445 79.405 149.5 77.19 149.5 74.658 C 149.5 72.127 147.287 69.911 144.758 69.911 Z M 114.094 39.69 C 115.359 39.69 116.465 39.215 117.414 38.266 L 127.529 28.139 C 129.426 26.24 129.426 23.234 127.529 21.335 C 125.633 19.436 122.63 19.436 120.733 21.335 L 110.775 31.62 C 108.878 33.519 108.878 36.525 110.775 38.424 C 111.723 39.373 112.988 39.69 114.094 39.69 Z" fill="currentColor"></path></svg>