<svg viewBox="0 0 150 150" xmlns="http://www.w3.org/2000/svg" width="150" height="150" fill="none"><path d="M 37.05 99.75 C 31.2 99.75 26.4 94.95 26.4 89.1 C 26.4 83.25 31.2 78.45 37.05 78.45 C 42.9 78.45 47.7 83.25 47.7 89.1 C 47.7 94.95 42.9 99.75 37.05 99.75 Z M 37.05 84.45 C 34.5 84.45 32.4 86.55 32.4 89.1 C 32.4 91.65 34.5 93.75 37.05 93.75 C 39.6 93.75 41.7 91.65 41.7 89.1 C 41.7 86.55 39.6 84.45 37.05 84.45 Z" fill="currentColor"></path><path d="M 64.8 99.75 C 58.95 99.75 54.15 94.95 54.15 89.1 C 54.15 83.25 58.95 78.45 64.8 78.45 C 70.65 78.45 75.45 83.25 75.45 89.1 C 75.45 94.95 70.65 99.75 64.8 99.75 Z M 64.8 84.45 C 62.25 84.45 60.15 86.55 60.15 89.1 C 60.15 91.65 62.25 93.75 64.8 93.75 C 67.35 93.75 69.45 91.65 69.45 89.1 C 69.45 86.55 67.35 84.45 64.8 84.45 Z" fill="currentColor"></path><path d="M 64.8 127.05 C 58.95 127.05 54.15 122.25 54.15 116.4 C 54.15 110.55 58.95 105.75 64.8 105.75 C 70.65 105.75 75.45 110.55 75.45 116.4 C 75.45 122.25 70.65 127.05 64.8 127.05 Z M 64.8 111.75 C 62.25 111.75 60.15 113.85 60.15 116.4 C 60.15 118.95 62.25 121.05 64.8 121.05 C 67.35 121.05 69.45 118.95 69.45 116.4 C 69.45 113.85 67.35 111.75 64.8 111.75 Z" fill="currentColor"></path><path d="M 92.4 99.75 C 86.55 99.75 81.75 94.95 81.75 89.1 C 81.75 83.25 86.55 78.45 92.4 78.45 C 98.25 78.45 103.05 83.25 103.05 89.1 C 103.05 94.95 98.25 99.75 92.4 99.75 Z M 92.4 84.45 C 89.85 84.45 87.75 86.55 87.75 89.1 C 87.75 91.65 89.85 93.75 92.4 93.75 C 94.95 93.75 97.05 91.65 97.05 89.1 C 97.05 86.55 94.95 84.45 92.4 84.45 Z" fill="currentColor"></path><path d="M 31.8 31.8 L 36.3 27.3 C 37.5 26.1 37.5 24.15 36.3 23.1 C 35.1 21.9 33.15 21.9 32.1 23.1 L 27.6 27.6 L 23.1 23.1 C 21.9 21.9 19.95 21.9 18.899 23.1 C 17.699 24.3 17.699 26.25 18.899 27.3 L 23.399 31.8 L 18.899 36.3 C 17.699 37.5 17.699 39.45 18.899 40.5 C 19.5 41.1 20.25 41.4 21 41.4 C 21.75 41.4 22.5 41.1 23.1 40.5 L 27.6 36 L 32.1 40.5 C 32.7 41.1 33.45 41.4 34.2 41.4 C 34.95 41.4 35.7 41.1 36.3 40.5 C 37.5 39.3 37.5 37.35 36.3 36.3 Z" fill="currentColor"></path><path d="M 69 58.8 L 73.5 54.3 C 74.7 53.1 74.7 51.15 73.5 50.1 C 72.3 48.9 70.35 48.9 69.3 50.1 L 64.8 54.6 L 60.3 50.1 C 59.1 48.9 57.15 48.9 56.099 50.1 C 54.899 51.3 54.899 53.25 56.099 54.3 L 60.599 58.8 L 56.099 63.3 C 54.899 64.5 54.899 66.45 56.099 67.5 C 56.7 68.1 57.45 68.4 58.2 68.4 C 58.95 68.4 59.7 68.1 60.3 67.5 L 64.8 63 L 69.3 67.5 C 69.9 68.1 70.65 68.4 71.4 68.4 C 72.15 68.4 72.9 68.1 73.5 67.5 C 74.7 66.3 74.7 64.35 73.5 63.3 Z" fill="currentColor"></path><path d="M 96.6 58.8 L 101.1 54.3 C 102.3 53.1 102.3 51.15 101.1 50.1 C 99.9 48.9 97.95 48.9 96.9 50.1 L 92.4 54.6 L 87.9 50.1 C 86.7 48.9 84.75 48.9 83.699 50.1 C 82.499 51.3 82.499 53.25 83.699 54.3 L 88.199 58.8 L 83.699 63.3 C 82.499 64.5 82.499 66.45 83.699 67.5 C 84.3 68.1 85.05 68.4 85.8 68.4 C 86.55 68.4 87.3 68.1 87.9 67.5 L 92.4 63 L 96.9 67.5 C 97.5 68.1 98.25 68.4 99 68.4 C 99.75 68.4 100.5 68.1 101.1 67.5 C 102.3 66.3 102.3 64.35 101.1 63.3 Z" fill="currentColor"></path><path d="M 136.2 51.3 L 125.7 37.8 C 125.1 37.05 124.2 36.6 123.3 36.6 C 122.4 36.6 121.5 37.05 120.9 37.8 L 111.15 51.3 C 110.25 52.65 110.55 54.6 111.9 55.5 C 112.5 55.95 113.1 56.1 113.7 56.1 C 114.6 56.1 115.5 55.65 116.1 54.9 L 120.3 48.9 L 120.3 103.65 C 120.3 109.65 115.5 114.45 109.5 114.45 L 84 114.45 C 82.351 114.45 81 115.801 81 117.45 C 81 119.1 82.351 120.45 84 120.45 L 109.5 120.45 C 118.8 120.45 126.3 112.95 126.3 103.65 L 126.3 48.45 L 131.401 55.051 C 132.45 56.401 134.251 56.551 135.601 55.651 C 136.951 54.6 137.251 52.65 136.201 51.3 Z" fill="currentColor"></path><path d="M 70.35 22.95 C 69.6 22.2 68.55 21.9 67.65 22.2 L 51.3 25.8 C 49.65 26.1 48.6 27.75 49.05 29.4 C 49.35 31.05 51 32.101 52.65 31.65 L 58.8 30.3 L 37.8 51.15 C 35.4 53.55 34.05 56.85 34.05 60.15 L 34.05 72.45 C 34.05 74.1 35.4 75.45 37.05 75.45 C 38.7 75.45 40.05 74.1 40.05 72.45 L 40.05 60.15 C 40.05 58.35 40.8 56.55 42 55.35 L 63.15 34.2 L 61.8 40.651 C 61.5 42.301 62.55 43.801 64.05 44.251 L 64.65 44.251 C 66 44.251 67.35 43.351 67.65 41.851 L 71.1 25.501 C 71.4 24.75 71.1 23.701 70.35 22.951 Z" fill="currentColor"></path></svg>