<svg viewBox="0 0 150 150" xmlns="http://www.w3.org/2000/svg" width="150" height="150" fill="none"><path d="M 74.696 12.09 C 58.538 12.169 42.414 18.435 30.182 30.859 C 5.81 55.613 6.12 95.437 30.874 119.809 C 55.628 144.181 95.453 143.871 119.824 119.117 C 143.617 94.951 143.887 56.422 120.855 31.93 L 129.081 23.23 C 156.873 52.235 156.828 98.208 128.683 127.159 L 128.344 127.505 C 99.34 156.965 51.945 157.334 22.486 128.329 L 22.142 127.989 C -6.976 98.955 -7.229 51.815 21.662 22.471 L 22.003 22.127 C 36.532 7.555 55.597 0.212 74.696 0.133 Z" fill="currentColor"></path></svg>