<svg viewBox="0 0 150 150" xmlns="http://www.w3.org/2000/svg" width="150" height="150" fill="none"><path d="M 50.342 0.377 C 28.2 13.294 13.747 37.192 13.747 61.438 C 13.747 72.976 16.863 84.244 22.949 94.893 C 35.808 117.398 59.566 128.94 83.532 129.465 L 83.532 146.52 L 64.809 146.52 C 63.87 146.52 63.107 147.282 63.107 148.223 C 63.107 149.162 63.869 149.925 64.809 149.925 L 105.658 149.925 C 106.598 149.925 107.361 149.163 107.361 148.223 C 107.361 147.283 106.599 146.52 105.658 146.52 L 86.936 146.52 L 86.936 129.465 C 97.309 129.177 108.915 126.29 118.424 120.742 C 119.294 120.355 119.682 119.154 119.204 118.33 C 118.725 117.507 117.489 117.251 116.723 117.817 C 107.331 123.296 95.406 126.114 85.234 126.114 C 61.761 126.114 38.378 115.072 25.876 93.191 C 20.055 83.004 17.153 72.364 17.153 61.436 C 17.153 38.551 30.928 15.618 52.045 3.301 C 52.725 2.931 53.084 2.058 52.862 1.317 C 52.387 0.081 51.399 -0.075 50.343 0.376 Z M 83.691 8.941 C 82.416 8.939 81.129 8.957 79.861 9.047 C 62.962 10.245 46.942 19.508 37.841 35.27 C 23.28 60.489 31.93 92.781 57.149 107.342 C 80.939 121.269 113.766 114.594 129.221 88.034 C 143.781 62.816 135.132 30.523 109.913 15.962 C 101.217 11.039 92.091 8.921 83.69 8.942 Z M 83.638 12.292 C 91.364 12.314 99.187 14.212 106.456 18.036 L 91.776 26.972 C 87.216 22.695 82.435 19.416 77.84 17.238 C 74.883 15.837 71.975 14.898 69.223 14.419 C 72.751 13.352 76.384 12.658 80.073 12.398 C 81.258 12.315 82.444 12.288 83.637 12.292 Z M 76.351 20.323 C 80.366 22.226 84.621 25.086 88.744 28.834 L 72.947 38.461 L 61.777 17.877 C 66.775 16.803 72.498 18.529 76.351 20.323 Z M 58.692 19.312 L 70.021 40.216 L 54.649 49.577 C 54.172 47.403 53.792 45.243 53.532 43.194 C 53.592 35.31 52.532 24.236 58.691 19.311 Z M 109.913 19.95 C 115.966 23.769 120.905 28.74 124.646 34.365 L 106.136 45.747 C 105.465 44.543 104.797 43.317 104.062 42.131 C 101.071 37.294 97.764 33.1 94.275 29.471 Z M 51.352 24.206 C 49.523 29.377 49.231 36.104 50.182 43.62 C 50.499 46.133 50.998 48.772 51.618 51.439 L 34.171 62.023 C 34.108 53.53 36.211 44.863 40.767 36.972 C 43.633 32.007 47.241 27.74 51.352 24.206 Z M 91.298 31.333 C 94.785 34.877 98.141 39.04 101.137 43.886 C 101.878 45.083 102.536 46.336 103.212 47.556 L 84.17 59.258 L 74.542 41.493 Z M 126.404 37.238 C 129.934 43.429 132.108 50.324 132.733 57.396 L 115.074 68.14 C 113.464 61.772 111.03 55.181 107.734 48.726 Z M 71.618 43.248 L 81.245 61.067 L 63.107 72.236 C 59.706 65.786 57.161 59.256 55.502 53.035 Z M 104.807 50.535 C 108.091 57.039 110.464 63.692 111.988 70.056 L 95.446 80.109 L 85.766 62.238 Z M 52.469 54.896 C 54.199 61.152 56.786 67.63 60.181 74.044 L 40.608 86.065 C 37.095 79.878 34.953 73.021 34.331 65.959 Z M 132.89 61.332 C 132.96 69.829 130.858 78.427 126.294 86.332 C 123.41 91.328 119.801 95.656 115.657 99.204 C 117.571 93.89 117.975 86.827 117.093 78.992 C 116.827 76.63 116.387 74.192 115.87 71.705 Z M 82.892 64.044 L 92.52 81.863 L 76.776 91.437 C 71.769 85.911 67.993 80.952 64.756 75.213 Z M 112.73 73.618 C 113.114 75.605 113.475 77.53 113.687 79.416 C 113.58 87.649 114.485 98.63 108.422 104.042 L 97.093 83.139 Z M 61.829 77.022 C 65.149 82.867 69.613 88.833 73.797 93.245 L 57.149 103.404 C 51.077 99.573 46.108 94.642 42.362 88.99 Z M 94.115 84.894 L 105.232 105.425 C 100.263 106.246 94.684 104.245 90.977 102.34 C 87.196 100.366 83.233 97.513 79.329 93.882 Z M 76.297 95.745 C 80.605 99.836 85.071 103.068 89.381 105.319 C 92.545 106.971 95.658 108.154 98.583 108.723 C 86.372 112.631 72.691 111.765 60.551 105.371 Z" fill="currentColor"></path></svg>