<svg viewBox="0 0 150 150" xmlns="http://www.w3.org/2000/svg" width="150" height="150" fill="none"><path d="M 44.387 124.647 C 44.6 124.472 44.845 124.362 45.097 124.324 C 45.168 124.259 45.232 124.194 45.31 124.13 C 45.355 124.085 45.4 124.052 45.445 124.013 L 52.045 118.475 C 52.548 118.055 52.832 117.409 52.883 116.73 C 52.935 116.039 52.754 115.334 52.322 114.824 L 51.567 113.919 C 51.142 113.409 50.548 113.124 49.929 113.073 C 49.31 113.014 48.671 113.195 48.161 113.622 L 43.032 117.926 C 43 117.952 42.968 117.984 42.936 118.01 L 40.523 120.033 C 40.02 120.459 39.729 121.054 39.678 121.674 C 39.626 122.294 39.8 122.934 40.226 123.445 L 40.981 124.349 C 41.393 124.839 41.983 125.143 42.62 125.196 C 43.239 125.254 43.884 125.073 44.387 124.647 Z M 74.856 70.692 C 71.076 69.897 67.392 68.352 63.973 66.252 C 60.418 64.068 57.128 61.27 54.29 58.071 C 51.464 54.885 49.084 51.292 47.335 47.518 C 45.639 43.86 44.529 40.015 44.162 36.163 C 44.155 36.118 44.155 36.073 44.155 36.034 L 43.574 11.91 C 43.555 11.109 44.187 10.443 44.994 10.424 C 45.084 10.424 45.168 10.43 45.258 10.443 C 50.29 11.245 55.715 10.921 60.87 9.577 C 65.89 8.272 70.644 5.991 74.502 2.83 C 75.05 2.378 75.831 2.398 76.36 2.843 C 80.108 5.907 84.701 8.143 89.565 9.461 C 94.578 10.824 99.861 11.219 104.789 10.553 C 105.583 10.443 106.318 11.005 106.422 11.8 C 106.434 11.891 106.441 11.988 106.434 12.078 L 106.228 36.041 C 106.228 36.086 106.228 36.125 106.222 36.163 C 105.854 40.041 104.731 43.899 103.035 47.557 C 101.273 51.35 98.88 54.937 96.048 58.123 C 93.216 61.302 89.932 64.088 86.378 66.265 C 82.945 68.366 79.262 69.91 75.494 70.699 C 75.269 70.737 75.056 70.737 74.856 70.692 Z M 65.779 35.852 C 65.231 35.27 65.257 34.352 65.825 33.797 C 66.412 33.248 67.328 33.273 67.876 33.855 L 72.902 39.174 L 82.191 30.934 C 82.791 30.398 83.714 30.456 84.243 31.057 C 84.778 31.658 84.72 32.582 84.12 33.112 L 73.779 42.282 C 73.198 42.799 72.308 42.76 71.766 42.192 L 65.779 35.852 Z M 74.998 50.587 C 78.849 50.587 82.34 49.023 84.862 46.496 C 87.384 43.969 88.946 40.473 88.946 36.615 C 88.946 32.757 87.384 29.261 84.862 26.734 C 82.34 24.207 78.849 22.643 74.998 22.643 C 71.147 22.643 67.657 24.207 65.134 26.734 C 62.612 29.261 61.05 32.757 61.05 36.615 C 61.05 40.473 62.612 43.969 65.134 46.496 C 67.657 49.023 71.147 50.587 74.998 50.587 Z M 74.998 53.508 C 70.347 53.508 66.128 51.614 63.076 48.558 C 60.025 45.501 58.135 41.281 58.135 36.615 C 58.135 31.956 60.025 27.729 63.076 24.673 C 66.128 21.616 70.34 19.722 74.998 19.722 C 79.649 19.722 83.868 21.616 86.92 24.673 C 89.971 27.729 91.861 31.949 91.861 36.615 C 91.861 41.275 89.971 45.501 86.92 48.558 C 83.868 51.614 79.656 53.508 74.998 53.508 Z M 65.483 63.764 C 68.554 65.651 71.831 67.041 75.179 67.784 C 78.515 67.047 81.779 65.658 84.843 63.784 C 88.14 61.761 91.204 59.163 93.849 56.19 C 96.494 53.218 98.726 49.863 100.371 46.329 C 101.933 42.962 102.965 39.446 103.307 35.943 L 103.5 13.623 C 98.668 14.056 93.604 13.584 88.785 12.272 C 83.928 10.948 79.302 8.776 75.412 5.81 C 71.406 8.854 66.619 11.077 61.588 12.389 C 56.639 13.681 51.44 14.088 46.511 13.539 L 47.046 35.931 C 47.388 39.421 48.407 42.93 49.968 46.29 C 51.601 49.813 53.82 53.16 56.458 56.133 C 59.11 59.118 62.168 61.729 65.484 63.765 Z M 42.369 128.105 C 41.007 127.982 39.691 127.348 38.749 126.217 L 37.995 125.313 C 37.086 124.231 36.648 122.83 36.775 121.422 C 36.898 120.059 37.53 118.74 38.659 117.797 L 39.607 117.002 C 39.227 116.731 38.853 116.44 38.478 116.136 C 37.962 115.716 37.446 115.264 36.943 114.785 C 36.595 115.096 36.175 115.302 35.73 115.406 C 35.046 115.561 34.304 115.457 33.672 115.05 L 20.68 106.824 C 20.002 106.397 19.796 105.499 20.222 104.814 L 40.866 72.096 C 41.291 71.417 42.188 71.21 42.872 71.637 L 55.864 79.864 C 56.139 80.037 56.382 80.258 56.581 80.516 C 59.619 80.335 62.225 80.258 64.761 80.309 C 67.425 80.361 69.96 80.548 72.78 80.904 C 78.412 78.364 82.966 78.112 93.803 80.264 C 94.018 79.964 94.29 79.709 94.603 79.514 L 107.718 71.488 C 108.402 71.068 109.299 71.288 109.718 71.973 L 129.787 104.898 C 130.206 105.583 129.987 106.481 129.303 106.901 L 116.233 114.895 C 116.175 114.934 116.117 114.966 116.052 114.999 C 115.439 115.328 114.749 115.399 114.111 115.244 C 113.904 115.192 113.704 115.121 113.517 115.024 C 113.141 115.22 112.754 115.39 112.356 115.535 C 112.002 115.659 111.643 115.764 111.278 115.851 C 111.453 117.474 111.059 119.167 110.053 120.595 C 110.022 120.645 109.988 120.692 109.95 120.737 C 108.827 122.249 107.195 123.173 105.46 123.451 C 105.146 123.502 104.829 123.53 104.511 123.535 C 104.615 123.907 104.684 124.288 104.718 124.673 C 104.879 126.288 104.485 127.962 103.492 129.377 C 103.461 129.427 103.427 129.475 103.389 129.52 C 102.266 131.032 100.634 131.956 98.899 132.234 C 98.241 132.337 97.57 132.35 96.905 132.266 C 96.925 132.376 96.937 132.492 96.95 132.602 C 97.112 134.218 96.718 135.892 95.725 137.307 C 95.694 137.357 95.659 137.404 95.621 137.449 C 94.499 138.961 92.867 139.885 91.131 140.163 C 89.538 140.415 87.861 140.125 86.409 139.239 C 86.396 140.493 86.035 141.734 85.28 142.806 C 85.247 142.859 85.211 142.908 85.171 142.955 C 84.1 144.396 82.506 145.243 80.79 145.45 C 79.094 145.656 77.268 145.23 75.733 144.112 L 72.707 141.921 L 71.449 142.981 C 71.404 143.02 71.359 143.058 71.307 143.097 C 70.237 143.965 68.872 144.38 67.501 144.254 C 66.172 144.138 64.882 143.524 63.946 142.438 C 63.904 142.396 63.865 142.351 63.83 142.302 L 63.127 141.462 C 62.566 140.797 62.204 140.028 62.024 139.226 L 61.23 139.892 C 61.185 139.937 61.14 139.969 61.095 140.008 C 59.934 140.945 58.508 141.339 57.121 141.217 C 55.734 141.094 54.392 140.454 53.412 139.323 L 53.295 139.188 L 52.554 138.296 C 51.773 137.365 51.354 136.247 51.276 135.116 C 50.67 135.258 50.051 135.304 49.444 135.246 C 47.999 135.116 46.599 134.451 45.58 133.274 C 45.535 133.229 45.502 133.184 45.464 133.139 L 44.728 132.26 L 44.612 132.124 C 43.644 130.967 43.232 129.513 43.328 128.105 C 43.009 128.137 42.688 128.137 42.369 128.105 Z M 46.224 111.439 C 46.268 111.396 46.315 111.357 46.366 111.322 C 47.475 110.424 48.849 110.049 50.172 110.166 C 51.546 110.285 52.82 110.934 53.726 111.975 C 53.765 112.014 53.804 112.066 53.842 112.111 L 54.546 112.951 C 55.146 113.662 55.526 114.515 55.694 115.407 C 56.881 114.489 58.333 114.101 59.733 114.224 C 61.262 114.357 62.675 115.094 63.661 116.273 L 64.5 117.281 C 65.205 118.123 65.655 119.15 65.797 120.24 C 66.655 119.872 67.577 119.736 68.48 119.814 C 69.867 119.937 71.209 120.576 72.19 121.707 C 72.235 121.753 72.267 121.798 72.306 121.843 L 72.996 122.67 C 73.041 122.709 73.08 122.761 73.112 122.806 C 74.048 123.969 74.441 125.404 74.319 126.787 C 74.267 127.33 74.144 127.866 73.938 128.377 C 74.262 128.462 74.577 128.576 74.88 128.719 C 75.551 129.042 76.17 129.507 76.673 130.109 L 77.377 130.949 C 77.419 130.993 77.458 131.04 77.493 131.091 C 78.389 132.202 78.764 133.579 78.647 134.904 C 78.525 136.235 77.912 137.527 76.835 138.464 C 76.796 138.503 76.744 138.542 76.699 138.581 L 74.996 140.009 L 77.364 141.728 C 77.402 141.754 77.441 141.78 77.48 141.812 C 78.389 142.452 79.447 142.697 80.434 142.574 C 81.396 142.458 82.279 141.986 82.854 141.192 C 83.383 140.455 83.57 139.557 83.447 138.678 C 83.325 137.779 82.886 136.901 82.17 136.222 L 80.693 135.149 C 80.041 134.678 79.899 133.766 80.37 133.114 C 80.841 132.461 81.75 132.319 82.402 132.79 L 87.641 136.59 C 88.544 137.243 89.634 137.469 90.66 137.308 C 91.679 137.146 92.64 136.59 93.298 135.686 C 93.905 134.852 94.143 133.857 94.047 132.9 C 93.95 131.963 93.531 131.059 92.821 130.374 L 85.021 124.712 C 84.37 124.241 84.228 123.329 84.699 122.677 C 85.17 122.024 86.079 121.882 86.731 122.354 L 95.421 128.654 C 96.324 129.307 97.414 129.533 98.44 129.372 C 99.459 129.21 100.427 128.654 101.079 127.75 C 101.685 126.916 101.924 125.921 101.827 124.964 C 101.737 124.04 101.33 123.148 100.64 122.47 L 100.35 122.276 L 100.214 122.179 L 91.589 115.923 C 90.937 115.452 90.795 114.54 91.266 113.888 C 91.737 113.241 92.647 113.093 93.299 113.565 L 101.988 119.865 C 102.892 120.518 103.982 120.744 105.008 120.583 C 106.067 120.414 107.016 119.831 107.646 118.961 C 108.298 118.056 108.523 116.964 108.362 115.936 C 108.196 114.872 107.613 113.919 106.743 113.287 L 81.1 94.682 L 64.128 103.742 C 62.193 104.769 60.019 104.918 58.071 104.324 C 56.161 103.742 54.465 102.443 53.426 100.575 C 53.374 100.491 53.329 100.407 53.29 100.317 C 52.323 98.41 52.194 96.278 52.774 94.365 C 53.361 92.42 54.684 90.701 56.606 89.673 L 56.613 89.667 L 56.729 89.609 C 60.077 87.844 62.871 86.268 65.258 84.91 C 66.238 84.355 67.148 83.838 68.012 83.359 C 66.909 83.282 65.819 83.237 64.709 83.217 C 62.316 83.172 59.8 83.25 56.839 83.424 C 56.806 83.495 56.761 83.573 56.716 83.644 L 38.607 112.356 C 39.169 112.905 39.736 113.415 40.31 113.881 C 40.829 114.3 41.367 114.695 41.923 115.063 Z M 111.384 112.789 C 111.468 112.763 111.546 112.73 111.623 112.698 L 93.696 83.282 L 93.644 83.198 C 79.271 80.303 76.587 81.828 66.692 87.437 C 64.331 88.775 61.569 90.345 58.079 92.174 C 58.054 92.187 58.028 92.2 58.008 92.219 L 57.97 92.239 C 56.763 92.885 55.925 93.977 55.557 95.205 C 55.189 96.42 55.267 97.764 55.873 98.973 C 55.918 99.037 55.951 99.108 55.983 99.179 C 56.641 100.355 57.712 101.17 58.918 101.538 C 60.124 101.907 61.473 101.829 62.673 101.221 C 62.742 101.176 62.816 101.137 62.892 101.105 L 80.703 91.599 C 81.413 91.224 82.29 91.489 82.665 92.2 L 82.678 92.219 L 108.456 110.929 C 109.269 111.517 109.914 112.247 110.385 113.068 C 110.727 112.997 111.063 112.907 111.385 112.79 Z M 71.349 131.465 C 71.305 131.491 71.26 131.515 71.214 131.536 L 65.543 136.293 C 65.521 136.32 65.497 136.346 65.472 136.37 C 65.04 136.81 64.808 137.391 64.788 137.973 C 64.769 138.554 64.949 139.143 65.349 139.621 L 66.104 140.525 C 66.516 141.015 67.106 141.319 67.743 141.372 C 68.362 141.43 69.001 141.249 69.51 140.823 C 71.214 139.272 73.155 137.824 74.904 136.299 C 75.407 135.873 75.697 135.278 75.749 134.658 C 75.8 134.037 75.626 133.398 75.2 132.887 L 74.446 131.982 C 74.213 131.711 73.942 131.498 73.639 131.355 C 73.323 131.204 72.977 131.122 72.626 131.116 C 72.485 131.116 72.336 131.123 72.188 131.148 C 72.072 131.168 71.949 131.2 71.826 131.239 L 71.775 131.258 C 71.678 131.291 71.607 131.323 71.549 131.349 C 71.498 131.381 71.426 131.42 71.349 131.465 Z M 63.537 125.655 L 55.105 132.732 C 54.55 133.197 54.24 133.85 54.176 134.522 C 54.118 135.2 54.311 135.898 54.776 136.454 L 55.576 137.411 C 56.04 137.966 56.692 138.276 57.363 138.341 C 58.04 138.399 58.737 138.205 59.292 137.74 L 70.491 128.337 C 71.046 127.872 71.355 127.219 71.42 126.547 C 71.478 125.869 71.284 125.171 70.82 124.615 L 70.02 123.659 C 69.555 123.103 68.904 122.792 68.233 122.728 C 67.556 122.67 66.859 122.864 66.304 123.329 Z M 47.254 126.308 C 46.654 126.812 46.312 127.516 46.247 128.253 C 46.183 128.99 46.396 129.752 46.899 130.353 L 47.744 131.361 C 48.247 131.963 48.95 132.305 49.686 132.37 C 50.421 132.434 51.182 132.221 51.782 131.717 L 61.924 123.206 C 62.524 122.702 62.866 121.998 62.93 121.261 C 62.995 120.524 62.782 119.762 62.278 119.161 L 61.433 118.152 C 60.93 117.551 60.227 117.209 59.492 117.144 C 58.756 117.08 57.995 117.293 57.395 117.797 Z M 126.552 105.176 L 107.999 74.738 L 96.27 81.918 L 114.824 112.356 Z M 42.545 74.881 L 23.455 105.146 L 35.08 112.5 L 54.17 82.23 Z" fill="currentColor"></path></svg>