<svg viewBox="0 0 150 150" xmlns="http://www.w3.org/2000/svg" width="150" height="150" fill="none"><path d="M 78.9 60.6 C 78.6 61.2 78.6 61.8 78.45 62.4 C 78.45 63.15 78.45 63.75 78.6 64.5 C 78.75 64.95 78.75 65.4 78.9 65.7 C 79.65 67.65 81 69 82.799 69.9 C 83.849 70.351 84.9 70.65 85.949 70.65 C 87.299 70.65 88.65 70.2 89.699 69.601 C 90.299 69.301 90.899 68.851 91.349 68.25 C 91.799 67.8 92.099 67.201 92.549 66.75 C 92.699 66.6 92.699 66.451 92.849 66.3 L 107.849 33.75 C 107.849 33.75 108.299 32.4 108.449 31.95 C 109.049 28.651 107.399 25.35 104.249 23.85 C 103.199 23.4 102.149 23.1 101.099 23.1 C 98.849 23.1 96.749 24.15 95.249 25.801 C 94.799 26.251 94.499 26.85 94.199 27.45 L 79.199 60 C 79.05 60.3 78.9 60.45 78.9 60.6 Z" fill="currentColor"></path><path d="M 85.65 24.75 C 85.95 25.05 86.1 25.5 86.4 25.95 C 86.7 27 86.7 28.35 86.4 29.85 C 86.25 30.6 86.1 31.2 85.8 31.95 C 85.65 32.25 85.65 32.4 85.5 32.7 C 85.35 33 85.2 33.45 84.9 33.9 C 82.8 37.95 77.7 44.7 65.4 45.15 L 60.3 55.8 C 63.45 56.55 69.15 58.35 74.1 62.251 L 90.75 25.951 C 91.05 25.35 91.2 24.75 91.35 24.151 C 91.95 20.851 90.3 17.551 87.15 16.051 C 86.1 15.6 85.05 15.301 84 15.301 C 81.75 15.301 79.65 16.35 78.15 18.001 C 77.7 18.451 77.4 19.051 77.1 19.651 L 75 24.301 L 85.2 24.301 Z" fill="currentColor"></path><path d="M 65.85 24.3 L 70.8 24.3 L 73.65 18.15 C 73.95 17.55 74.101 16.95 74.25 16.35 C 74.851 13.051 73.201 9.75 70.05 8.25 C 69 7.8 67.95 7.5 66.75 7.5 C 64.5 7.5 62.4 8.55 60.9 10.201 C 60.45 10.651 60.15 11.25 59.85 11.85 L 54.15 24.301 Z" fill="currentColor"></path><path d="M 89.55 111.45 C 89.55 107.1 85.95 103.5 81.6 103.5 C 77.25 103.5 73.649 107.1 73.649 111.45 C 73.649 115.8 77.25 119.4 81.6 119.4 C 86.1 119.4 89.55 115.95 89.55 111.45 Z" fill="currentColor"></path><path d="M 118.95 52.35 C 118.95 51.45 118.5 49.8 118.5 49.8 C 117.45 46.95 114.75 44.85 111.45 44.85 C 110.7 44.85 110.1 45 109.5 45.15 C 108.45 45.45 107.4 45.9 106.65 46.65 C 105.6 47.55 104.85 48.6 104.4 49.8 L 95.1 70.05 C 94.8 70.65 94.65 71.25 94.65 71.849 L 94.65 72.45 C 94.8 74.249 95.85 75.9 97.5 76.65 C 98.25 77.1 99.15 77.1 100.05 77.1 C 101.099 76.95 102.3 76.5 103.05 75.75 C 103.5 75.45 103.8 75 104.099 74.4 L 108.899 63.9 L 112.349 65.4 L 112.649 64.65 L 107.549 75.6 C 107.399 75.75 107.399 75.9 107.249 76.05 C 107.099 76.35 106.799 76.8 106.499 77.1 C 105.899 77.85 105.299 78.45 104.7 78.9 C 103.349 79.95 101.7 80.55 100.05 80.55 L 99.599 80.55 C 98.399 80.55 97.05 80.25 95.849 79.8 C 94.05 79.05 92.7 77.699 91.95 76.199 C 91.499 75.449 91.2 74.699 91.05 73.8 C 91.05 73.5 90.9 73.2 90.9 72.9 C 90.3 73.2 89.7 73.5 89.1 73.65 C 88.05 73.95 87 74.1 85.8 74.1 C 84.45 74.1 83.7 73.8 82.35 73.5 C 83.1 75.75 83.55 78.3 83.55 81.15 L 83.55 95.4 L 79.8 95.4 L 79.8 81.15 C 79.8 77.699 78.75 74.85 77.7 72.449 C 72.6 60.9 57.9 58.949 57.15 58.799 L 54.6 58.5 L 62.85 41.25 L 64.051 41.25 L 64.95 41.25 C 65.7 41.25 66.45 41.25 67.051 41.1 C 74.251 40.35 78.151 37.05 80.251 34.2 C 80.4 33.9 80.55 33.75 80.701 33.45 C 81.001 32.85 81.451 32.25 81.601 31.8 C 81.9 31.2 82.201 30.6 82.351 30 C 82.65 29.1 82.801 28.35 82.801 27.9 L 51.75 27.9 C 48 27.9 44.85 29.85 42.899 32.85 C 42.449 33.6 42.149 34.35 41.85 35.1 L 32.1 55.95 L 31.649 57 C 31.199 58.2 30.899 59.549 30.899 60.9 C 30.899 62.699 31.35 64.5 32.25 66 L 33.299 67.5 L 57.299 99.15 L 57.299 142.5 L 106.049 142.5 L 106.049 110.7 L 117.9 86.4 C 118.049 86.1 118.199 85.8 118.35 85.5 C 118.65 84.75 118.8 83.85 118.8 82.95 C 118.95 82.799 118.95 52.35 118.95 52.35 Z M 89.7 129.45 L 89.7 132.75 L 83.4 132.75 L 83.4 138.6 L 80.101 138.6 L 80.101 132.75 L 74.101 132.75 L 74.101 129.45 L 80.101 129.45 L 80.101 122.7 C 74.701 121.95 70.5 117.15 70.5 111.6 C 70.5 105.3 75.601 100.35 81.75 100.35 C 88.05 100.35 93 105.45 93 111.6 C 93 117.3 88.8 121.95 83.4 122.7 L 83.4 129.45 Z" fill="currentColor"></path></svg>