<svg xmlns="http://www.w3.org/2000/svg" width="150" height="150" fill="none"><path d="M 138.843 0.082 C 130.087 0.545 121.59 2.183 113.479 4.868 C 115.462 9.414 118.012 13.807 121.084 17.693 C 127.352 25.831 135.672 32.423 145.118 36.506 C 147.887 28.22 149.475 19.506 149.953 10.581 C 150.255 4.79 144.815 -0.544 138.842 0.088 Z" fill="rgb(255, 255, 255)"></path><path d="M 106.722 7.425 C 87.706 15.036 71.598 29.731 59.96 47.278 L 32.263 85.62 C 32.256 85.781 31.174 87.039 31.111 87.229 C 30.064 88.691 30.218 90.631 31.497 91.917 L 58.062 118.482 C 60.072 120.435 62.434 119.395 64.254 117.765 C 64.275 117.737 102.674 90.056 102.695 90.02 C 120.243 78.382 134.937 62.275 142.547 43.258 C 126.615 36.526 113.431 23.377 106.713 7.423 Z M 88.703 61.279 C 73.065 44.609 96.447 21.179 113.144 36.837 C 128.803 53.542 105.365 76.915 88.703 61.279 Z" fill="rgb(255, 255, 255)"></path><path d="M 8.972 85.876 L 23.379 87.282 C 23.696 84.836 25.635 82.355 27.09 80.394 L 55.552 41.081 L 33.745 42.409 C 24.841 42.972 16.978 47.961 12.753 55.818 L 2.851 74.378 C 0.173 79.065 3.588 85.439 8.965 85.868 Z" fill="rgb(255, 255, 255)"></path><path d="M 62.7 126.596 L 64.134 140.982 C 64.351 143.61 65.954 145.865 68.231 147.124 C 70.536 148.354 73.298 148.354 75.603 147.124 L 94.162 137.222 C 102.019 132.998 107.009 125.141 107.571 116.23 L 108.899 94.423 L 69.586 122.884 C 67.632 124.346 65.152 126.279 62.699 126.595 Z" fill="rgb(255, 255, 255)"></path><path d="M 28.967 99.621 L 24.511 102.643 C 20.491 105.265 19.936 111.365 23.387 114.675 L 35.313 126.6 C 38.637 130.073 44.73 129.489 47.344 125.476 L 50.366 121.021 C 44.519 115.167 34.786 105.441 28.966 99.62 Z" fill="rgb(255, 255, 255)"></path><path d="M 14.187 118.954 C 15.6 117.542 15.6 115.25 14.187 113.838 C 12.775 112.425 10.484 112.425 9.071 113.838 L 1.101 121.807 C -0.311 123.22 -0.311 125.511 1.101 126.923 C 2.514 128.337 4.805 128.337 6.218 126.923 Z" fill="rgb(255, 255, 255)"></path><path d="M 25.172 124.816 C 23.759 123.404 21.468 123.404 20.056 124.816 L 5.888 138.984 C 4.475 140.396 4.475 142.688 5.888 144.1 C 7.3 145.512 9.591 145.512 11.011 144.1 L 25.179 129.932 C 26.592 128.52 26.592 126.228 25.179 124.809 Z" fill="rgb(255, 255, 255)"></path><path d="M 31.026 135.793 L 23.057 143.762 C 21.644 145.174 21.644 147.466 23.057 148.878 C 24.47 150.29 26.761 150.29 28.173 148.878 L 36.143 140.909 C 37.555 139.496 37.555 137.205 36.143 135.793 C 34.73 134.379 32.439 134.379 31.026 135.793 Z" fill="rgb(255, 255, 255)"></path><path d="M 93.826 56.155 C 103.454 65.27 117.178 51.587 108.029 41.952 C 98.394 32.802 84.711 46.534 93.826 56.155 Z" fill="rgb(255, 255, 255)"></path></svg>