<?xml version="1.0" encoding="UTF-8" standalone="no"?>
<!DOCTYPE svg PUBLIC "-//W3C//DTD SVG 1.1//EN" "http://www.w3.org/Graphics/SVG/1.1/DTD/svg11.dtd">
<svg width="100%" height="100%" viewBox="0 0 3943 1079" version="1.1" xmlns="http://www.w3.org/2000/svg" xmlns:xlink="http://www.w3.org/1999/xlink" xml:space="preserve" xmlns:serif="http://www.serif.com/" style="fill-rule:evenodd;clip-rule:evenodd;stroke-linejoin:round;stroke-miterlimit:2;">
    <g transform="matrix(1,0,0,1,-608.18731,-3523.142276)">
        <g transform="matrix(4.698039,0,0,5.829091,0,0)">
            <g transform="matrix(1,0,0,1,0,321.662508)">
                <g transform="matrix(0.212855,0,0,0.171553,80.033389,223.137282)">
                    <g transform="matrix(1.223992,0,0,1.223992,231,544)">
                        <g id="Logotype">
                            <path d="M991.147,148.5C991.039,148.506 990.93,148.509 990.82,148.509C987.565,148.509 984.922,145.866 984.922,142.611C984.922,139.356 987.565,136.713 990.82,136.713C990.934,136.713 991.047,136.716 991.159,136.723C991.232,136.721 991.305,136.72 991.38,136.72L1009.96,136.72C1011.17,136.72 1011.77,136.116 1011.77,134.907L1011.77,74.129C1011.77,74.077 1011.771,74.026 1011.771,73.975C1011.766,73.859 1011.763,73.742 1011.763,73.624C1011.763,69.746 1014.912,66.597 1018.79,66.597C1022.669,66.597 1025.817,69.746 1025.817,73.624C1025.817,73.69 1025.816,73.756 1025.815,73.821C1025.818,73.922 1025.82,74.024 1025.82,74.129L1025.82,134.907C1025.82,136.116 1026.43,136.72 1027.63,136.72L1066.16,136.72C1066.259,136.715 1066.359,136.713 1066.46,136.713C1069.715,136.713 1072.358,139.356 1072.358,142.611C1072.358,145.866 1069.715,148.509 1066.46,148.509C1066.371,148.509 1066.282,148.507 1066.194,148.503C1066.183,148.503 1066.171,148.503 1066.16,148.503L1027.63,148.503C1026.43,148.503 1025.82,149.107 1025.82,150.316L1025.82,306.667C1025.82,323.284 1028.54,334.915 1033.98,341.562C1039.72,347.907 1048.63,351.079 1060.72,351.079L1065.54,351.079C1065.669,351.071 1065.799,351.067 1065.93,351.067C1069.435,351.067 1072.281,353.913 1072.281,357.418C1072.281,360.923 1069.435,363.769 1065.93,363.769C1065.886,363.769 1065.842,363.768 1065.797,363.767C1065.765,363.768 1065.733,363.768 1065.7,363.768L1058.9,363.768C1043.5,363.768 1031.71,359.841 1023.56,351.986C1015.7,343.828 1011.77,329.024 1011.77,307.573L1011.77,150.316C1011.77,149.107 1011.17,148.503 1009.96,148.503L991.38,148.503C991.301,148.503 991.224,148.502 991.147,148.5ZM835.003,143.852C834.997,143.731 834.994,143.609 834.994,143.487C834.994,139.749 838.029,136.714 841.767,136.714C845.457,136.714 848.461,139.67 848.539,143.341C848.573,143.627 848.59,143.931 848.59,144.252L848.59,163.005C848.59,163.912 848.892,164.365 849.496,164.365C850.1,164.365 850.553,163.912 850.855,163.005C855.69,153.639 862.336,146.388 870.796,141.252C879.558,136.116 889.377,133.548 900.253,133.548C918.079,133.548 931.976,139.59 941.947,151.675C951.917,163.761 956.902,180.529 956.902,201.98L956.902,356.995C956.902,356.999 956.902,357.237 956.902,357.237C956.902,357.463 956.882,357.681 956.843,357.891C956.405,361.206 953.564,363.768 950.129,363.768C946.833,363.768 944.084,361.41 943.479,358.29C943.367,357.962 943.306,357.611 943.306,357.237L943.306,203.792C943.306,185.665 939.228,171.616 931.07,161.646C923.215,151.373 911.885,146.237 897.081,146.237C882.277,146.237 870.494,151.675 861.732,162.552C852.97,173.429 848.59,188.384 848.59,207.418L848.59,357.237C848.59,357.591 848.535,357.909 848.434,358.195C847.867,361.362 845.096,363.768 841.767,363.768C838.313,363.768 835.459,361.177 835.045,357.833C835.012,357.647 834.994,357.448 834.994,357.237C834.994,357.237 834.994,356.999 834.994,356.995L834.994,144.252C834.994,144.116 834.997,143.982 835.003,143.852ZM1483.746,356.543C1483.742,356.443 1483.74,356.341 1483.74,356.237L1483.74,338.843C1483.74,337.937 1483.43,337.483 1482.83,337.483C1482.23,337.181 1481.77,337.483 1481.47,338.39C1475.73,348.058 1468.03,355.309 1458.36,360.143C1448.69,364.977 1437.96,367.394 1426.18,367.394C1410.47,367.394 1397.18,362.862 1386.3,353.798C1375.42,344.432 1369.99,326.786 1369.99,304.126C1369.99,279.956 1375.663,264.43 1388.653,252.648C1401.643,240.865 1419.84,234.156 1441.59,234.156L1481.92,234.156C1483.13,234.156 1483.74,233.552 1483.74,232.343L1483.74,207.418C1483.74,188.686 1479.66,173.731 1471.5,162.552C1463.34,151.373 1451.56,145.784 1436.15,145.784C1424.07,145.784 1413.49,149.561 1404.43,157.114C1395.36,164.365 1390.23,173.882 1389.02,185.665C1389.014,185.676 1389.008,185.688 1389.003,185.699C1388.806,189.3 1385.82,192.163 1382.17,192.163C1378.394,192.163 1375.327,189.097 1375.327,185.32C1375.327,184.859 1375.373,184.408 1375.46,183.973C1377.336,168.719 1383.963,156.443 1395.36,147.144C1407.15,137.778 1420.89,133.095 1436.6,133.095C1455.94,133.095 1470.9,139.893 1481.47,153.488C1492.04,167.084 1497.33,185.363 1497.33,208.324L1497.33,234.158L1632.851,234.158C1632.852,234.158 1633.151,234.158 1633.151,234.158L1633.151,234.165C1636.383,234.322 1638.958,236.995 1638.958,240.265C1638.958,243.535 1636.383,246.208 1633.151,246.365L1633.151,246.372C1633.151,246.372 1632.852,246.372 1632.851,246.372L1497.33,246.372L1497.33,356.237C1497.33,356.377 1497.327,356.513 1497.32,356.647C1497.325,356.754 1497.328,356.862 1497.328,356.97C1497.328,360.722 1494.282,363.768 1490.53,363.768C1486.778,363.768 1483.732,360.722 1483.732,356.97C1483.732,356.827 1483.737,356.684 1483.746,356.543ZM1427.99,354.705C1443.1,354.705 1456.09,349.871 1466.97,340.203C1478.15,330.535 1483.74,316.637 1483.74,298.509L1483.74,248.205C1483.74,246.997 1483.13,246.392 1481.92,246.392L1442.04,246.392C1424.22,246.392 1409.203,252.194 1398.623,262.165C1388.053,272.135 1383.58,284.337 1383.58,303.673C1383.58,320.29 1387.66,334.311 1395.82,342.469C1403.97,350.626 1414.7,354.705 1427.99,354.705ZM510.826,301.681L510.826,198.807C510.826,179.773 516.567,164.063 528.047,151.675C539.83,139.288 554.937,133.095 573.366,133.095C585.451,133.095 596.177,135.814 605.543,141.252C615.211,146.388 622.613,153.337 627.749,162.099C633.188,170.861 635.907,180.226 635.907,190.197L635.907,191.556C635.907,191.637 635.906,191.716 635.904,191.795C635.906,191.859 635.906,191.923 635.906,191.987C635.906,195.725 632.871,198.76 629.133,198.76C625.653,198.76 622.782,196.13 622.402,192.751C622.341,192.383 622.311,191.985 622.311,191.556L622.311,190.197C622.311,178.414 617.628,168.141 608.262,159.38C599.198,150.316 587.566,145.784 573.366,145.784C558.864,145.784 547.081,150.769 538.018,160.739C528.954,170.407 524.422,183.097 524.422,198.807L524.422,301.681C524.422,317.392 528.954,330.232 538.018,340.203C547.081,349.871 558.864,354.705 573.366,354.705C587.566,354.705 599.198,350.324 608.262,341.562C617.628,332.498 622.311,322.075 622.311,310.292L622.311,308.932C622.311,308.445 622.35,307.997 622.429,307.589C622.9,304.31 625.724,301.787 629.133,301.787C632.871,301.787 635.906,304.822 635.906,308.56C635.906,308.614 635.906,308.669 635.905,308.723C635.906,308.792 635.907,308.861 635.907,308.932L635.907,310.292C635.907,320.262 633.188,329.628 627.749,338.39C622.613,347.152 615.211,354.251 605.543,359.69C596.177,364.826 585.451,367.394 573.366,367.394C554.937,367.394 539.83,361.351 528.047,349.266C516.567,336.879 510.826,321.018 510.826,301.681ZM1319.683,356.846C1319.681,356.756 1319.68,356.665 1319.68,356.572L1319.68,7.197C1319.68,7.104 1319.681,7.012 1319.683,6.922C1319.683,6.881 1319.682,6.839 1319.682,6.798C1319.682,3.046 1322.728,0 1326.48,0C1330.232,0 1333.278,3.046 1333.278,6.798C1333.278,6.839 1333.278,6.881 1333.277,6.922C1333.279,7.012 1333.28,7.104 1333.28,7.197L1333.28,356.572C1333.28,356.665 1333.279,356.756 1333.277,356.847C1333.278,356.888 1333.278,356.929 1333.278,356.97C1333.278,360.722 1330.232,363.768 1326.48,363.768C1322.728,363.768 1319.682,360.722 1319.682,356.97C1319.682,356.929 1319.683,356.887 1319.683,356.846ZM1261.233,356.847C1261.231,356.756 1261.23,356.665 1261.23,356.572L1261.23,7.197C1261.23,7.104 1261.231,7.012 1261.233,6.922C1261.233,6.881 1261.232,6.839 1261.232,6.798C1261.232,3.046 1264.278,0 1268.03,0C1271.782,0 1274.828,3.046 1274.828,6.798C1274.828,6.839 1274.828,6.881 1274.827,6.922C1274.829,7.012 1274.83,7.104 1274.83,7.197L1274.83,356.572C1274.83,356.665 1274.829,356.756 1274.827,356.847C1274.828,356.888 1274.828,356.929 1274.828,356.97C1274.828,360.722 1271.782,363.768 1268.03,363.768C1264.278,363.768 1261.232,360.722 1261.232,356.97C1261.232,356.929 1261.233,356.888 1261.233,356.847ZM1220.368,319.271C1220.375,319.305 1220.376,319.339 1220.37,319.371C1217.48,333.541 1210.62,345.017 1199.79,353.798C1188.91,362.862 1175.62,367.394 1159.91,367.394C1141.48,367.394 1126.37,361.351 1114.59,349.266C1103.11,336.879 1097.37,321.018 1097.37,301.681L1097.37,198.807C1097.37,179.773 1103.11,164.063 1114.59,151.675C1126.37,139.288 1141.48,133.095 1159.91,133.095C1178.34,133.095 1193.29,139.288 1204.77,151.675C1216.56,164.063 1222.45,179.773 1222.45,198.807L1222.45,248.658C1222.45,251.679 1220.94,253.19 1217.92,253.19L1112.78,253.19C1111.57,253.19 1110.96,253.794 1110.96,255.003L1110.96,301.681C1110.96,317.392 1115.5,330.232 1124.56,340.203C1133.62,349.871 1145.41,354.705 1159.91,354.705C1171.69,354.705 1181.81,351.23 1190.27,344.281C1198.73,337.332 1204.32,328.118 1207.04,316.637C1207.073,316.539 1207.107,316.443 1207.141,316.349C1207.867,313.39 1210.539,311.193 1213.72,311.193C1217.458,311.193 1220.494,314.228 1220.494,317.966C1220.494,318.412 1220.45,318.849 1220.368,319.271ZM1159.91,145.784C1145.41,145.784 1133.62,150.769 1124.56,160.739C1115.5,170.407 1110.96,183.097 1110.96,198.807L1110.96,239.594C1110.96,240.803 1111.57,241.407 1112.78,241.407L1207.04,241.407C1208.25,241.407 1208.85,240.803 1208.85,239.594L1208.85,198.807C1208.85,183.097 1204.32,170.407 1195.26,160.739C1186.19,150.769 1174.41,145.784 1159.91,145.784ZM791.339,319.754C788.405,333.748 781.572,345.096 770.839,353.798C759.962,362.862 746.669,367.394 730.958,367.394C712.528,367.394 697.422,361.351 685.639,349.266C674.158,336.879 668.418,321.018 668.418,301.681L668.418,198.807C668.418,179.773 674.158,164.063 685.639,151.675C697.422,139.288 712.528,133.095 730.958,133.095C749.388,133.095 764.343,139.288 775.824,151.675C787.607,164.063 793.498,179.773 793.498,198.807L793.498,248.658C793.498,251.679 791.988,253.19 788.966,253.19L683.826,253.19C682.618,253.19 682.014,253.794 682.014,255.003L682.014,301.681C682.014,317.392 686.545,330.232 695.609,340.203C704.673,349.871 716.456,354.705 730.958,354.705C742.741,354.705 752.862,351.23 761.322,344.281C769.781,337.332 775.371,328.118 778.09,316.637C778.159,316.431 778.232,316.232 778.309,316.041C779.14,313.239 781.735,311.193 784.805,311.193C788.543,311.193 791.578,314.228 791.578,317.966C791.578,318.585 791.495,319.185 791.339,319.754ZM730.958,145.784C716.456,145.784 704.673,150.769 695.609,160.739C686.545,170.407 682.014,183.097 682.014,198.807L682.014,239.594C682.014,240.803 682.618,241.407 683.826,241.407L778.09,241.407C779.298,241.407 779.903,240.803 779.903,239.594L779.903,198.807C779.903,183.097 775.371,170.407 766.307,160.739C757.243,150.769 745.46,145.784 730.958,145.784Z"/>
                        </g>
                    </g>
                    <g transform="matrix(6.204304,0,0,6.204304,183.559332,336.999532)">
                        <path d="M58.858,79.024L47.099,58.702L47.076,58.661L47.065,58.643C46.912,58.376 46.87,58.058 46.949,57.76C47.028,57.462 47.221,57.207 47.485,57.053C48.036,56.732 48.741,56.924 49.059,57.481L49.07,57.499C49.078,57.512 49.086,57.526 49.093,57.539L60.668,77.541L60.668,34.431C60.668,33.688 61.264,33.085 61.998,33.085C62.733,33.085 63.328,33.688 63.329,34.431L63.329,77.562C63.329,77.562 106.218,1.698 106.226,1.685C106.226,1.701 108.955,1.735 108.911,1.728C108.904,1.742 108.919,1.715 108.911,1.728L65.412,78.572L106.333,54.694C106.346,54.686 106.36,54.678 106.373,54.671L106.391,54.66C106.943,54.339 107.649,54.529 107.966,55.084C108.284,55.64 108.094,56.352 107.543,56.673L107.524,56.684L107.484,56.708L65.981,80.925L109.066,81C109.082,81 109.051,81 109.066,81C109.703,81 110.066,81.858 110.066,82.5C110.066,83.142 109.703,83.5 109.066,83.5C109.05,83.5 109.082,83.5 109.066,83.5L66.088,83.25L100.551,103.352C100.564,103.36 100.578,103.368 100.591,103.376L100.609,103.387C101.161,103.708 101.35,104.42 101.033,104.976C100.715,105.531 100.009,105.721 99.458,105.4L99.44,105.389C99.426,105.382 99.412,105.374 99.399,105.366L65.239,85.441L85.224,120.16C85.232,120.174 85.239,120.187 85.247,120.201L85.257,120.219C85.41,120.486 85.452,120.804 85.373,121.102C85.294,121.401 85.102,121.655 84.837,121.809C84.286,122.13 83.582,121.938 83.263,121.381L83.253,121.363C83.245,121.35 83.237,121.336 83.229,121.322L63.329,86.75L63.329,144.436C63.328,145.179 62.733,145.781 61.998,145.782C61.264,145.781 60.668,145.179 60.668,144.436L60.668,86.835L7.838,175.592C7.83,175.605 7.928,171.305 7.928,171.305L59.104,84.922L24.111,105.251C24.098,105.259 24.084,105.267 24.071,105.274L24.053,105.285C23.501,105.606 22.795,105.416 22.477,104.861C22.16,104.305 22.349,103.593 22.901,103.271L22.919,103.261C22.932,103.253 22.946,103.245 22.959,103.237L57.363,83.25L32.109,83.25C32.093,83.25 32.078,83.25 32.063,83.249L32.042,83.25C31.405,83.25 30.888,82.729 30.888,82.087C30.888,81.446 31.405,80.925 32.042,80.925L57.513,80.925L15.944,56.626L15.904,56.602L15.885,56.592C15.334,56.27 15.144,55.558 15.462,55.003C15.779,54.447 16.485,54.257 17.037,54.578L17.055,54.589C17.068,54.597 17.082,54.604 17.095,54.612L58.858,79.024Z"/>
                    </g>
                </g>
                <g transform="matrix(1.320616,0,0,1.064369,822.362022,280.950677)">
                    <path d="M32.109,80.925L109.711,81C109.727,81 109.696,81 109.711,81C110.348,81 110.711,81.536 110.711,82.178C110.711,82.82 110.348,83.5 109.711,83.5C109.695,83.5 109.727,83.5 109.711,83.5L32.109,83.25C32.093,83.25 32.078,83.25 32.063,83.249L32.042,83.25C31.405,83.25 30.888,82.729 30.888,82.087C30.888,81.446 31.405,80.925 32.042,80.925L32.109,80.925Z"/>
                </g>
                <g transform="matrix(0.61098,0,0,0.251172,-504.571828,-39.978269)">
                    <path d="M1769.033,1529.294C1777.271,1529.294 1783.642,1534.972 1788.146,1546.327C1792.651,1557.682 1794.904,1572.948 1794.904,1592.125L1794.904,1718.167C1794.904,1720.69 1794.26,1721.952 1792.973,1721.952L1791.042,1721.952C1789.755,1721.952 1789.112,1720.69 1789.112,1718.167L1789.112,1701.134C1789.112,1700.377 1788.983,1699.936 1788.726,1699.809C1788.468,1699.683 1788.275,1699.999 1788.146,1700.756C1785.701,1708.83 1782.419,1714.886 1778.3,1718.924C1774.182,1722.961 1769.612,1724.98 1764.593,1724.98C1757.9,1724.98 1752.237,1721.132 1747.603,1713.436C1742.97,1705.739 1740.653,1692.429 1740.653,1673.504C1740.653,1653.317 1743.42,1638.303 1748.955,1628.462C1754.489,1618.621 1761.89,1613.7 1771.157,1613.7L1788.339,1613.7C1788.854,1613.7 1789.112,1613.195 1789.112,1612.186L1789.112,1591.368C1789.112,1575.724 1787.374,1563.233 1783.899,1553.897C1780.424,1544.56 1775.404,1539.892 1768.84,1539.892C1763.692,1539.892 1759.187,1542.983 1755.326,1549.165C1751.465,1555.348 1749.277,1563.359 1748.762,1573.2C1748.762,1575.471 1748.118,1576.607 1746.831,1576.607L1744.707,1576.228C1744.064,1576.228 1743.581,1575.85 1743.259,1575.093C1742.938,1574.336 1742.841,1573.326 1742.97,1572.065C1743.742,1559.196 1746.606,1548.85 1751.561,1541.028C1756.516,1533.205 1762.34,1529.294 1769.033,1529.294ZM1765.365,1714.382C1771.8,1714.382 1777.367,1710.344 1782.065,1702.27C1786.763,1694.195 1789.112,1682.588 1789.112,1667.447L1789.112,1625.434C1789.112,1624.424 1788.854,1623.92 1788.339,1623.92L1771.35,1623.92C1763.756,1623.92 1757.707,1628.083 1753.202,1636.41C1748.697,1644.737 1746.445,1656.976 1746.445,1673.125C1746.445,1687.003 1748.183,1697.349 1751.658,1704.162C1755.133,1710.975 1759.702,1714.382 1765.365,1714.382Z" style="fill-rule:nonzero;"/>
                    <path d="M1860.738,1460.785C1860.738,1458.262 1861.381,1457 1862.668,1457L1864.599,1457C1865.886,1457 1866.53,1458.262 1866.53,1460.785L1866.53,1718.167C1866.53,1720.69 1865.886,1721.952 1864.599,1721.952L1862.668,1721.952C1861.381,1721.952 1860.738,1720.69 1860.738,1718.167L1860.738,1704.162C1860.738,1703.405 1860.641,1703.027 1860.448,1703.027C1860.255,1703.027 1860.03,1703.279 1859.772,1703.784C1857.584,1710.597 1854.785,1715.833 1851.374,1719.492C1847.963,1723.15 1844.07,1724.98 1839.694,1724.98C1831.971,1724.98 1825.697,1719.87 1820.87,1709.651C1816.044,1699.431 1813.631,1686.246 1813.631,1670.097L1813.631,1584.177C1813.631,1568.027 1816.044,1554.843 1820.87,1544.623C1825.697,1534.404 1831.971,1529.294 1839.694,1529.294C1843.941,1529.294 1847.803,1531.123 1851.278,1534.782C1854.753,1538.441 1857.584,1543.677 1859.772,1550.49C1860.03,1550.995 1860.255,1551.247 1860.448,1551.247C1860.641,1551.247 1860.738,1550.869 1860.738,1550.112L1860.738,1460.785ZM1840.466,1714.382C1846.387,1714.382 1851.246,1710.281 1855.042,1702.08C1858.839,1693.88 1860.738,1683.218 1860.738,1670.097L1860.738,1584.177C1860.738,1571.055 1858.839,1560.394 1855.042,1552.193C1851.246,1543.993 1846.387,1539.892 1840.466,1539.892C1834.288,1539.892 1829.236,1543.993 1825.311,1552.193C1821.385,1560.394 1819.422,1571.055 1819.422,1584.177L1819.422,1670.097C1819.422,1683.218 1821.385,1693.88 1825.311,1702.08C1829.236,1710.281 1834.288,1714.382 1840.466,1714.382Z" style="fill-rule:nonzero;"/>
                    <path d="M1908.424,1721.952C1907.266,1721.952 1906.558,1720.816 1906.3,1718.545L1881.975,1536.486L1881.782,1535.35C1881.782,1533.331 1882.425,1532.322 1883.712,1532.322L1886.222,1532.322C1887.509,1532.322 1888.217,1533.458 1888.346,1535.729L1909.196,1701.134C1909.325,1701.891 1909.454,1702.27 1909.582,1702.27C1909.711,1702.27 1909.84,1701.891 1909.969,1701.134L1930.819,1535.729C1931.077,1533.458 1931.785,1532.322 1932.943,1532.322L1935.453,1532.322C1936.869,1532.322 1937.383,1533.71 1936.997,1536.486L1913.251,1718.545C1913.122,1720.816 1912.414,1721.952 1911.127,1721.952L1908.424,1721.952Z" style="fill-rule:nonzero;"/>
                    <path d="M1957.462,1489.93C1955.016,1489.93 1953.021,1488.416 1951.477,1485.388C1949.932,1482.36 1949.16,1478.448 1949.16,1473.654C1949.16,1469.112 1949.932,1465.327 1951.477,1462.299C1953.021,1459.271 1955.016,1457.757 1957.462,1457.757C1959.779,1457.757 1961.709,1459.271 1963.254,1462.299C1964.798,1465.327 1965.57,1469.112 1965.57,1473.654C1965.57,1478.448 1964.798,1482.36 1963.254,1485.388C1961.709,1488.416 1959.779,1489.93 1957.462,1489.93ZM1956.497,1721.952C1955.209,1721.952 1954.566,1720.69 1954.566,1718.167L1954.566,1536.107C1954.566,1533.584 1955.209,1532.322 1956.497,1532.322L1958.427,1532.322C1959.714,1532.322 1960.358,1533.584 1960.358,1536.107L1960.358,1718.167C1960.358,1720.69 1959.714,1721.952 1958.427,1721.952L1956.497,1721.952Z" style="fill-rule:nonzero;"/>
                    <path d="M2007.658,1723.466C2000.064,1723.466 1993.886,1719.113 1989.124,1710.408C1984.362,1701.702 1981.981,1690.788 1981.981,1677.667L1981.981,1675.775C1981.981,1673.251 1982.624,1671.989 1983.911,1671.989L1985.649,1671.989C1986.936,1671.989 1987.58,1673.251 1987.58,1675.775L1987.58,1677.289C1987.58,1687.634 1989.414,1696.277 1993.082,1703.216C1996.75,1710.155 2001.673,1713.625 2007.851,1713.625C2013.643,1713.625 2018.309,1710.092 2021.848,1703.027C2025.388,1695.961 2027.157,1686.625 2027.157,1675.018C2027.157,1666.69 2026.192,1659.877 2024.261,1654.578C2022.331,1649.279 2019.982,1645.053 2017.215,1641.899C2014.447,1638.744 2010.618,1635.149 2005.727,1631.111C2000.579,1626.822 1996.46,1622.91 1993.371,1619.378C1990.282,1615.845 1987.676,1610.798 1985.552,1604.238C1983.429,1597.677 1982.367,1589.35 1982.367,1579.256C1982.367,1564.621 1984.651,1552.887 1989.221,1544.056C1993.79,1535.224 1999.871,1530.808 2007.465,1530.808C2014.93,1530.808 2020.947,1535.287 2025.516,1544.245C2030.085,1553.203 2032.37,1564.747 2032.37,1578.878L2032.37,1580.013C2032.37,1582.537 2031.726,1583.798 2030.439,1583.798L2028.895,1583.798C2027.608,1583.798 2026.964,1582.537 2026.964,1580.013L2026.964,1578.878C2026.964,1568.027 2025.13,1559.006 2021.462,1551.815C2017.794,1544.623 2013.064,1541.028 2007.272,1541.028C2001.48,1541.028 1996.847,1544.56 1993.371,1551.626C1989.896,1558.691 1988.159,1567.901 1988.159,1579.256C1988.159,1586.826 1989.028,1593.198 1990.765,1598.371C1992.503,1603.544 1994.691,1607.644 1997.329,1610.672C1999.968,1613.7 2003.539,1617.107 2008.044,1620.892C2013.579,1625.434 2017.955,1629.534 2021.172,1633.193C2024.39,1636.852 2027.157,1642.088 2029.474,1648.901C2031.791,1655.714 2032.949,1664.419 2032.949,1675.018C2032.949,1689.653 2030.632,1701.387 2025.999,1710.218C2021.365,1719.05 2015.252,1723.466 2007.658,1723.466Z" style="fill-rule:nonzero;"/>
                    <path d="M2073.492,1724.98C2065.641,1724.98 2059.238,1719.87 2054.282,1709.651C2049.327,1699.431 2046.85,1686.246 2046.85,1670.097L2046.85,1584.177C2046.85,1568.28 2049.327,1555.158 2054.282,1544.813C2059.238,1534.467 2065.641,1529.294 2073.492,1529.294C2081.343,1529.294 2087.747,1534.467 2092.702,1544.813C2097.657,1555.158 2100.135,1568.28 2100.135,1584.177L2100.135,1670.097C2100.135,1686.246 2097.657,1699.431 2092.702,1709.651C2087.747,1719.87 2081.343,1724.98 2073.492,1724.98ZM2073.492,1714.382C2079.67,1714.382 2084.69,1710.281 2088.551,1702.08C2092.412,1693.88 2094.343,1683.218 2094.343,1670.097L2094.343,1584.177C2094.343,1571.055 2092.412,1560.394 2088.551,1552.193C2084.69,1543.993 2079.67,1539.892 2073.492,1539.892C2067.314,1539.892 2062.295,1543.993 2058.433,1552.193C2054.572,1560.394 2052.641,1571.055 2052.641,1584.177L2052.641,1670.097C2052.641,1683.218 2054.572,1693.88 2058.433,1702.08C2062.295,1710.281 2067.314,1714.382 2073.492,1714.382Z" style="fill-rule:nonzero;"/>
                    <path d="M2147.628,1530.808C2150.846,1530.808 2153.613,1532.07 2155.93,1534.593C2156.831,1535.602 2157.088,1537.243 2156.702,1539.514L2155.93,1544.056C2155.544,1546.579 2154.707,1547.21 2153.42,1545.948C2151.361,1544.182 2149.108,1543.299 2146.663,1543.299C2141,1543.551 2136.334,1549.039 2132.666,1559.763C2128.998,1570.488 2127.163,1583.925 2127.163,1600.074L2127.163,1718.167C2127.163,1720.69 2126.52,1721.952 2125.233,1721.952L2123.302,1721.952C2122.015,1721.952 2121.372,1720.69 2121.372,1718.167L2121.372,1536.107C2121.372,1533.584 2122.015,1532.322 2123.302,1532.322L2125.233,1532.322C2126.52,1532.322 2127.163,1533.584 2127.163,1536.107L2127.163,1560.71C2127.163,1561.467 2127.292,1561.845 2127.55,1561.845C2127.807,1561.845 2128,1561.341 2128.129,1560.331C2130.059,1550.995 2132.666,1543.74 2135.948,1538.567C2139.23,1533.394 2143.123,1530.808 2147.628,1530.808Z" style="fill-rule:nonzero;"/>
                    <path d="M2167.706,1797.652C2167.449,1797.652 2167.192,1797.274 2166.934,1796.517C2166.677,1795.76 2166.548,1794.877 2166.548,1793.867L2166.548,1791.218C2166.548,1788.694 2167.192,1787.433 2168.479,1787.433L2168.672,1787.433C2172.404,1787.18 2175.268,1785.414 2177.263,1782.134C2179.258,1778.853 2180.963,1772.987 2182.379,1764.533C2183.795,1756.08 2185.661,1742.265 2187.978,1723.087C2188.107,1722.583 2188.139,1722.141 2188.075,1721.763C2188.01,1721.384 2187.978,1721.069 2187.978,1720.816L2163.073,1536.486L2162.88,1535.35C2162.88,1533.331 2163.523,1532.322 2164.811,1532.322L2166.934,1532.322C2168.221,1532.322 2168.929,1533.458 2169.058,1535.729L2190.681,1704.162C2190.81,1704.919 2190.938,1705.298 2191.067,1705.298C2191.196,1705.298 2191.324,1704.919 2191.453,1704.162L2212.883,1535.729C2213.14,1533.458 2213.848,1532.322 2215.007,1532.322L2217.13,1532.322C2217.774,1532.322 2218.257,1532.701 2218.578,1533.458C2218.9,1534.215 2218.997,1535.224 2218.868,1536.486L2191.26,1744.283C2189.072,1759.928 2187.045,1771.473 2185.179,1778.916C2183.312,1786.36 2181.156,1791.344 2178.711,1793.867C2176.266,1796.391 2172.919,1797.652 2168.672,1797.652L2167.706,1797.652Z" style="fill-rule:nonzero;"/>
                </g>
            </g>
        </g>
    </g>
</svg>
