<svg xmlns="http://www.w3.org/2000/svg" width="323" height="175" fill="none"><path d="M 101.5 71.501 C 101.5 67.623 102.691 64.423 105.074 61.899 C 107.519 59.376 110.655 58.114 114.48 58.114 C 116.988 58.114 119.214 58.668 121.158 59.776 C 123.164 60.822 124.7 62.238 125.766 64.023 C 126.895 65.808 127.459 67.716 127.459 69.747 L 127.459 70.024 C 127.459 70.04 127.459 70.056 127.459 70.072 C 127.459 70.085 127.459 70.098 127.459 70.112 C 127.459 70.873 126.83 71.491 126.053 71.491 C 125.339 71.491 124.738 70.964 124.656 70.267 C 124.643 70.187 124.637 70.105 124.638 70.024 L 124.638 69.747 C 124.638 67.346 123.666 65.254 121.722 63.469 C 119.841 61.622 117.427 60.699 114.48 60.699 C 111.47 60.699 109.024 61.715 107.143 63.746 C 105.262 65.715 104.322 68.3 104.322 71.501 L 104.322 92.458 C 104.322 95.659 105.262 98.275 107.143 100.306 C 109.024 102.276 111.47 103.26 114.48 103.26 C 117.427 103.26 119.841 102.368 121.722 100.583 C 123.666 98.736 124.638 96.613 124.638 94.213 L 124.638 93.936 C 124.638 93.836 124.646 93.745 124.662 93.662 C 124.763 92.984 125.355 92.48 126.053 92.48 C 126.83 92.48 127.459 93.098 127.459 93.86 L 127.459 93.893 L 127.459 93.936 L 127.459 94.213 C 127.459 96.244 126.895 98.152 125.766 99.937 C 124.7 101.722 123.164 103.168 121.158 104.276 C 119.214 105.322 116.988 105.845 114.48 105.845 C 110.655 105.845 107.519 104.614 105.074 102.152 C 102.691 99.629 101.5 96.398 101.5 92.458 Z M 201.186 61.252 C 200.85 61.27 200.521 61.152 200.277 60.925 C 200.032 60.698 199.894 60.383 199.894 60.053 C 199.894 59.722 200.033 59.406 200.278 59.179 C 200.523 58.952 200.852 58.834 201.188 58.853 C 201.203 58.853 201.218 58.853 201.234 58.853 L 205.09 58.853 C 205.341 58.853 205.466 58.73 205.466 58.483 L 205.466 46.102 L 205.466 46.07 C 205.446 45.679 205.591 45.296 205.866 45.012 C 206.141 44.728 206.523 44.567 206.923 44.567 C 207.317 44.567 207.694 44.724 207.968 45.001 C 208.243 45.278 208.392 45.652 208.381 46.039 C 208.381 46.059 208.382 46.08 208.382 46.102 L 208.382 58.483 C 208.382 58.73 208.508 58.853 208.757 58.853 L 216.754 58.853 C 217.089 58.836 217.416 58.955 217.659 59.182 C 217.902 59.409 218.04 59.723 218.04 60.053 C 218.04 60.381 217.903 60.694 217.662 60.921 C 217.42 61.148 217.095 61.268 216.761 61.253 L 208.757 61.253 C 208.508 61.253 208.382 61.376 208.382 61.622 L 208.382 93.474 C 208.382 96.859 208.946 99.229 210.075 100.583 C 211.267 101.875 213.116 102.522 215.625 102.522 L 216.625 102.522 C 216.988 102.5 217.344 102.626 217.609 102.871 C 217.874 103.115 218.024 103.456 218.024 103.813 C 218.024 104.527 217.434 105.107 216.706 105.107 L 216.679 105.106 L 216.658 105.107 L 215.247 105.107 C 212.051 105.107 209.604 104.307 207.913 102.706 C 206.281 101.045 205.466 98.029 205.466 93.659 L 205.466 61.622 C 205.466 61.376 205.341 61.253 205.09 61.253 L 201.234 61.253 C 201.218 61.253 201.202 61.253 201.186 61.252 Z M 168.78 60.305 C 168.759 59.927 168.898 59.557 169.163 59.282 C 169.429 59.007 169.798 58.851 170.183 58.851 C 170.948 58.852 171.572 59.451 171.589 60.201 C 171.596 60.26 171.599 60.322 171.599 60.387 L 171.599 64.207 C 171.599 64.392 171.662 64.484 171.788 64.484 C 171.913 64.484 172.007 64.392 172.07 64.207 C 173.073 62.299 174.452 60.822 176.208 59.776 C 178.027 58.729 180.064 58.206 182.322 58.206 C 186.021 58.206 188.905 59.437 190.975 61.899 C 193.044 64.361 194.079 67.777 194.079 72.147 L 194.079 103.776 C 194.079 103.822 194.074 103.867 194.066 103.909 C 193.973 104.595 193.377 105.106 192.673 105.107 C 192 105.106 191.422 104.639 191.293 103.991 C 191.269 103.922 191.257 103.849 191.257 103.776 L 191.257 72.516 C 191.257 68.824 190.41 65.962 188.717 63.93 C 187.087 61.838 184.736 60.791 181.663 60.791 C 178.591 60.791 176.145 61.899 174.327 64.115 C 172.509 66.331 171.599 69.378 171.599 73.255 L 171.599 103.776 C 171.599 103.848 171.588 103.913 171.567 103.971 C 171.446 104.628 170.864 105.106 170.183 105.107 C 169.474 105.106 168.877 104.588 168.788 103.898 C 168.781 103.858 168.778 103.817 168.778 103.776 L 168.778 60.387 C 168.778 60.359 168.778 60.332 168.78 60.305 Z M 303.42 103.635 C 303.419 103.614 303.418 103.593 303.418 103.572 L 303.418 100.029 C 303.418 99.844 303.354 99.752 303.229 99.752 C 303.105 99.69 303.009 99.752 302.947 99.937 C 301.756 101.906 300.158 103.383 298.151 104.368 C 296.144 105.353 293.917 105.845 291.472 105.845 C 288.212 105.845 285.454 104.922 283.196 103.076 C 280.938 101.168 279.811 97.573 279.811 92.956 C 279.811 88.033 280.988 84.87 283.684 82.469 C 286.38 80.069 290.157 78.702 294.671 78.702 L 303.041 78.702 C 303.292 78.702 303.418 78.579 303.418 78.333 L 303.418 73.255 C 303.418 69.439 302.572 66.392 300.878 64.115 C 299.185 61.838 296.74 60.699 293.541 60.699 C 291.034 60.699 288.839 61.469 286.958 63.007 C 285.076 64.484 284.011 66.423 283.76 68.824 L 283.757 68.831 C 283.714 69.569 283.092 70.147 282.339 70.147 C 281.913 70.147 281.51 69.96 281.24 69.637 C 280.97 69.313 280.862 68.889 280.946 68.479 C 281.335 65.371 282.711 62.871 285.076 60.976 C 287.523 59.068 290.374 58.114 293.635 58.114 C 297.649 58.114 300.754 59.499 302.947 62.269 C 305.141 65.038 306.239 68.762 306.239 73.44 L 306.239 78.703 L 322.049 78.703 L 322.049 78.704 C 322.724 78.737 323.254 79.283 323.254 79.947 C 323.254 80.61 322.724 81.157 322.049 81.189 L 322.049 81.191 L 306.239 81.191 L 306.239 103.572 C 306.239 103.601 306.238 103.629 306.237 103.656 C 306.255 104.034 306.115 104.403 305.848 104.677 C 305.582 104.951 305.213 105.107 304.828 105.107 C 304.438 105.106 304.066 104.948 303.799 104.67 C 303.533 104.391 303.395 104.016 303.42 103.635 Z M 291.848 103.26 C 294.984 103.26 297.68 102.276 299.938 100.306 C 302.258 98.336 303.418 95.505 303.418 91.812 L 303.418 81.564 C 303.418 81.318 303.292 81.195 303.041 81.195 L 294.764 81.195 C 291.066 81.195 287.949 82.377 285.753 84.408 C 283.56 86.439 282.631 88.925 282.631 92.864 C 282.631 96.249 283.478 99.106 285.171 100.768 C 286.863 102.429 289.09 103.26 291.848 103.26 Z M 269.37 103.697 C 269.37 103.678 269.369 103.66 269.369 103.641 L 269.369 32.466 C 269.369 32.447 269.37 32.428 269.37 32.41 L 269.37 32.385 C 269.37 31.62 270.002 31 270.781 31 C 271.56 31 272.191 31.62 272.191 32.385 L 272.191 32.41 C 272.192 32.428 272.192 32.447 272.192 32.466 L 272.192 103.641 C 272.192 103.66 272.192 103.678 272.191 103.697 L 272.191 103.722 C 272.191 104.487 271.56 105.106 270.781 105.107 C 270.002 105.106 269.37 104.487 269.37 103.722 Z M 257.239 103.697 C 257.239 103.678 257.239 103.659 257.239 103.641 L 257.239 32.466 C 257.239 32.447 257.239 32.428 257.239 32.41 L 257.239 32.385 C 257.239 31.62 257.871 31 258.65 31 C 259.429 31 260.06 31.62 260.061 32.385 L 260.061 32.41 C 260.061 32.428 260.061 32.447 260.061 32.466 L 260.061 103.641 C 260.061 103.66 260.061 103.678 260.061 103.697 L 260.061 103.722 C 260.06 104.487 259.429 105.106 258.65 105.107 C 257.871 105.106 257.239 104.487 257.239 103.722 Z M 248.758 96.042 C 248.76 96.048 248.76 96.055 248.759 96.062 C 248.159 98.949 246.735 101.287 244.487 103.076 C 242.229 104.922 239.471 105.845 236.211 105.845 C 232.386 105.845 229.25 104.614 226.805 102.152 C 224.422 99.629 223.231 96.398 223.231 92.458 L 223.231 71.501 C 223.231 67.623 224.422 64.423 226.805 61.899 C 229.25 59.376 232.386 58.114 236.211 58.114 C 240.036 58.114 243.138 59.376 245.521 61.899 C 247.968 64.423 249.19 67.623 249.19 71.501 L 249.19 81.657 C 249.19 82.272 248.877 82.58 248.25 82.58 L 226.429 82.58 C 226.178 82.58 226.052 82.703 226.052 82.949 L 226.052 92.458 C 226.052 95.659 226.994 98.275 228.874 100.306 C 230.754 102.276 233.201 103.26 236.211 103.26 C 238.655 103.26 240.756 102.552 242.512 101.137 C 244.267 99.721 245.428 97.844 245.992 95.505 C 245.999 95.485 246.006 95.466 246.013 95.447 C 246.168 94.83 246.731 94.396 247.378 94.396 C 247.799 94.396 248.197 94.581 248.464 94.899 C 248.731 95.218 248.839 95.637 248.758 96.042 Z M 236.211 60.699 C 233.201 60.699 230.754 61.715 228.874 63.746 C 226.994 65.715 226.052 68.3 226.052 71.501 L 226.052 79.81 C 226.052 80.056 226.178 80.179 226.429 80.179 L 245.992 80.179 C 246.243 80.179 246.368 80.056 246.368 79.81 L 246.368 71.501 C 246.368 68.3 245.428 65.715 243.547 63.746 C 241.665 61.715 239.22 60.699 236.211 60.699 Z M 159.718 96.14 C 159.109 98.991 157.691 101.303 155.463 103.076 C 153.206 104.922 150.447 105.845 147.186 105.845 C 143.361 105.845 140.226 104.614 137.781 102.152 C 135.398 99.629 134.207 96.398 134.207 92.458 L 134.207 71.501 C 134.207 67.623 135.398 64.423 137.781 61.899 C 140.226 59.376 143.361 58.114 147.186 58.114 C 151.011 58.114 154.115 59.376 156.498 61.899 C 158.943 64.423 160.166 67.623 160.166 71.501 L 160.166 81.657 C 160.166 82.272 159.852 82.58 159.225 82.58 L 137.404 82.58 C 137.154 82.58 137.028 82.703 137.028 82.949 L 137.028 92.458 C 137.028 95.659 137.969 98.275 139.85 100.306 C 141.731 102.276 144.176 103.26 147.186 103.26 C 149.632 103.26 151.732 102.552 153.488 101.137 C 155.243 99.721 156.404 97.844 156.968 95.505 C 156.982 95.463 156.997 95.423 157.013 95.384 C 157.191 94.798 157.739 94.396 158.362 94.396 C 158.8 94.396 159.213 94.597 159.479 94.939 C 159.745 95.281 159.833 95.725 159.718 96.14 Z M 147.186 60.699 C 144.176 60.699 141.731 61.715 139.85 63.746 C 137.969 65.715 137.028 68.3 137.028 71.501 L 137.028 79.81 C 137.028 80.056 137.154 80.179 137.404 80.179 L 156.968 80.179 C 157.219 80.179 157.344 80.056 157.344 79.81 L 157.344 71.501 C 157.344 68.3 156.404 65.715 154.522 63.746 C 152.641 61.715 150.196 60.699 147.186 60.699 Z" fill="rgb(247, 237, 255)"></path><path d="M 49.858 78.024 L 38.099 57.702 L 38.076 57.661 L 38.065 57.643 C 37.912 57.376 37.87 57.058 37.949 56.76 C 38.028 56.462 38.221 56.207 38.485 56.053 C 39.036 55.732 39.741 55.924 40.059 56.481 L 40.07 56.499 C 40.078 56.512 40.086 56.526 40.093 56.539 L 51.668 76.541 L 51.668 33.51 C 51.668 33.492 51.668 33.473 51.668 33.456 L 51.668 33.431 C 51.668 32.688 52.264 32.085 52.998 32.085 C 53.733 32.085 54.328 32.688 54.329 33.431 L 54.329 33.456 C 54.329 33.473 54.329 33.492 54.329 33.51 L 54.329 76.562 L 97.803 -0.336 C 97.811 -0.35 97.795 -0.323 97.803 -0.336 L 97.803 -0.336 C 98.122 -0.893 98.832 -1.188 99.384 -0.868 C 99.648 -0.714 99.832 -0.368 99.911 -0.07 C 99.99 0.228 100.064 0.461 99.911 0.728 L 99.911 0.728 C 99.904 0.742 99.919 0.715 99.911 0.728 L 56.412 77.572 L 97.333 53.694 C 97.346 53.686 97.36 53.678 97.373 53.671 L 97.391 53.66 C 97.943 53.339 98.649 53.529 98.966 54.084 C 99.284 54.64 99.094 55.352 98.543 55.673 L 98.524 55.684 L 98.484 55.708 L 56.981 79.925 L 102 80 C 102.016 80 101.985 80 102 80 L 102 80 C 102.637 80 103 80.858 103 81.5 C 103 82.142 102.637 82.5 102 82.5 L 102 82.5 C 101.984 82.5 102.016 82.5 102 82.5 L 57.088 82.25 L 91.551 102.352 C 91.564 102.36 91.578 102.368 91.591 102.376 L 91.609 102.387 C 92.161 102.708 92.35 103.42 92.033 103.976 C 91.715 104.531 91.009 104.721 90.458 104.4 L 90.44 104.389 C 90.426 104.382 90.412 104.374 90.399 104.366 L 56.239 84.441 L 76.224 119.16 C 76.232 119.174 76.239 119.187 76.247 119.201 L 76.257 119.219 C 76.41 119.486 76.452 119.804 76.373 120.102 C 76.294 120.401 76.102 120.655 75.837 120.809 C 75.286 121.13 74.582 120.938 74.263 120.381 L 74.253 120.363 C 74.245 120.35 74.237 120.336 74.229 120.322 L 54.329 85.75 L 54.329 143.357 C 54.329 143.375 54.329 143.394 54.329 143.411 L 54.329 143.436 C 54.328 144.179 53.733 144.781 52.998 144.782 C 52.264 144.781 51.668 144.179 51.668 143.436 L 51.668 143.411 C 51.668 143.393 51.668 143.375 51.668 143.357 L 51.668 85.835 L -6.803 184.263 C -6.811 184.276 -6.795 184.515 -6.803 184.529 L -6.803 184.529 C -7.122 185.085 -7.832 185.115 -8.384 184.795 C -8.648 184.64 -8.832 184.561 -8.911 184.263 C -8.99 183.964 -9.064 183.466 -8.911 183.199 L -8.911 183.199 L -8.647 183.199 L 50.104 83.922 L 15.111 104.251 C 15.098 104.259 15.084 104.267 15.071 104.274 L 15.053 104.285 C 14.501 104.606 13.795 104.416 13.477 103.861 C 13.16 103.305 13.349 102.593 13.901 102.271 L 13.919 102.261 C 13.932 102.253 13.946 102.245 13.959 102.237 L 48.363 82.25 L 23.109 82.25 C 23.093 82.25 23.078 82.25 23.063 82.249 L 23.042 82.25 C 22.405 82.25 21.888 81.729 21.888 81.087 C 21.888 80.446 22.405 79.925 23.042 79.925 L 23.063 79.925 C 23.078 79.925 23.094 79.925 23.109 79.925 L 48.513 79.925 L 6.944 55.626 L 6.904 55.602 L 6.885 55.592 C 6.334 55.27 6.144 54.558 6.462 54.003 C 6.779 53.447 7.485 53.257 8.037 53.578 L 8.055 53.589 C 8.068 53.597 8.082 53.604 8.095 53.612 Z" fill="rgb(247, 237, 255)"></path></svg>