<?xml version="1.0" encoding="UTF-8" standalone="no"?>
<!DOCTYPE svg PUBLIC "-//W3C//DTD SVG 1.1//EN" "http://www.w3.org/Graphics/SVG/1.1/DTD/svg11.dtd">
<svg width="100%" height="100%" viewBox="0 0 3943 1079" version="1.1" xmlns="http://www.w3.org/2000/svg" xmlns:xlink="http://www.w3.org/1999/xlink" xml:space="preserve" xmlns:serif="http://www.serif.com/" style="fill-rule:evenodd;clip-rule:evenodd;stroke-linejoin:round;stroke-miterlimit:2;">
    <g transform="matrix(1,0,0,1,-608.18731,-4558.728217)">
        <g transform="matrix(4.698039,0,0,5.829091,0,0)">
            <g transform="matrix(1,0,0,1,0,321.662508)">
                <g transform="matrix(1.320616,0,0,1.064369,776.17254,458.293268)">
                    <path d="M32.109,80.925L144.686,81C144.702,81 144.671,81 144.686,81C145.323,81 145.686,81.536 145.686,82.178C145.686,82.82 145.323,83.5 144.686,83.5C144.67,83.5 144.702,83.5 144.686,83.5L32.109,83.25C32.093,83.25 32.078,83.25 32.063,83.249L32.042,83.25C31.405,83.25 30.888,82.729 30.888,82.087C30.888,81.446 31.405,80.925 32.042,80.925L32.109,80.925Z"/>
                </g>
                <g transform="matrix(0.212855,0,0,0.171553,80.033389,400.795507)">
                    <g transform="matrix(1.223992,0,0,1.223992,231,544)">
                        <g id="Logotype">
                            <path d="M991.147,148.5C991.039,148.506 990.93,148.509 990.82,148.509C987.565,148.509 984.922,145.866 984.922,142.611C984.922,139.356 987.565,136.713 990.82,136.713C990.934,136.713 991.047,136.716 991.159,136.723C991.232,136.721 991.305,136.72 991.38,136.72L1009.96,136.72C1011.17,136.72 1011.77,136.116 1011.77,134.907L1011.77,74.129C1011.77,74.077 1011.771,74.026 1011.771,73.975C1011.766,73.859 1011.763,73.742 1011.763,73.624C1011.763,69.746 1014.912,66.597 1018.79,66.597C1022.669,66.597 1025.817,69.746 1025.817,73.624C1025.817,73.69 1025.816,73.756 1025.815,73.821C1025.818,73.922 1025.82,74.024 1025.82,74.129L1025.82,134.907C1025.82,136.116 1026.43,136.72 1027.63,136.72L1066.16,136.72C1066.259,136.715 1066.359,136.713 1066.46,136.713C1069.715,136.713 1072.358,139.356 1072.358,142.611C1072.358,145.866 1069.715,148.509 1066.46,148.509C1066.371,148.509 1066.282,148.507 1066.194,148.503C1066.183,148.503 1066.171,148.503 1066.16,148.503L1027.63,148.503C1026.43,148.503 1025.82,149.107 1025.82,150.316L1025.82,306.667C1025.82,323.284 1028.54,334.915 1033.98,341.562C1039.72,347.907 1048.63,351.079 1060.72,351.079L1065.54,351.079C1065.669,351.071 1065.799,351.067 1065.93,351.067C1069.435,351.067 1072.281,353.913 1072.281,357.418C1072.281,360.923 1069.435,363.769 1065.93,363.769C1065.886,363.769 1065.842,363.768 1065.797,363.767C1065.765,363.768 1065.733,363.768 1065.7,363.768L1058.9,363.768C1043.5,363.768 1031.71,359.841 1023.56,351.986C1015.7,343.828 1011.77,329.024 1011.77,307.573L1011.77,150.316C1011.77,149.107 1011.17,148.503 1009.96,148.503L991.38,148.503C991.301,148.503 991.224,148.502 991.147,148.5ZM835.003,143.852C834.997,143.731 834.994,143.609 834.994,143.487C834.994,139.749 838.029,136.714 841.767,136.714C845.457,136.714 848.461,139.67 848.539,143.341C848.573,143.627 848.59,143.931 848.59,144.252L848.59,163.005C848.59,163.912 848.892,164.365 849.496,164.365C850.1,164.365 850.553,163.912 850.855,163.005C855.69,153.639 862.336,146.388 870.796,141.252C879.558,136.116 889.377,133.548 900.253,133.548C918.079,133.548 931.976,139.59 941.947,151.675C951.917,163.761 956.902,180.529 956.902,201.98L956.902,356.995C956.902,356.999 956.902,357.237 956.902,357.237C956.902,357.463 956.882,357.681 956.843,357.891C956.405,361.206 953.564,363.768 950.129,363.768C946.833,363.768 944.084,361.41 943.479,358.29C943.367,357.962 943.306,357.611 943.306,357.237L943.306,203.792C943.306,185.665 939.228,171.616 931.07,161.646C923.215,151.373 911.885,146.237 897.081,146.237C882.277,146.237 870.494,151.675 861.732,162.552C852.97,173.429 848.59,188.384 848.59,207.418L848.59,357.237C848.59,357.591 848.535,357.909 848.434,358.195C847.867,361.362 845.096,363.768 841.767,363.768C838.313,363.768 835.459,361.177 835.045,357.833C835.012,357.647 834.994,357.448 834.994,357.237C834.994,357.237 834.994,356.999 834.994,356.995L834.994,144.252C834.994,144.116 834.997,143.982 835.003,143.852ZM1483.746,356.543C1483.742,356.443 1483.74,356.341 1483.74,356.237L1483.74,338.843C1483.74,337.937 1483.43,337.483 1482.83,337.483C1482.23,337.181 1481.77,337.483 1481.47,338.39C1475.73,348.058 1468.03,355.309 1458.36,360.143C1448.69,364.977 1437.96,367.394 1426.18,367.394C1410.47,367.394 1397.18,362.862 1386.3,353.798C1375.42,344.432 1369.99,326.786 1369.99,304.126C1369.99,279.956 1375.663,264.43 1388.653,252.648C1401.643,240.865 1419.84,234.156 1441.59,234.156L1481.92,234.156C1483.13,234.156 1483.74,233.552 1483.74,232.343L1483.74,207.418C1483.74,188.686 1479.66,173.731 1471.5,162.552C1463.34,151.373 1451.56,145.784 1436.15,145.784C1424.07,145.784 1413.49,149.561 1404.43,157.114C1395.36,164.365 1390.23,173.882 1389.02,185.665C1389.014,185.676 1389.008,185.688 1389.003,185.699C1388.806,189.3 1385.82,192.163 1382.17,192.163C1378.394,192.163 1375.327,189.097 1375.327,185.32C1375.327,184.859 1375.373,184.408 1375.46,183.973C1377.336,168.719 1383.963,156.443 1395.36,147.144C1407.15,137.778 1420.89,133.095 1436.6,133.095C1455.94,133.095 1470.9,139.893 1481.47,153.488C1492.04,167.084 1497.33,185.363 1497.33,208.324L1497.33,234.158L1667.165,234.158C1667.166,234.158 1667.465,234.158 1667.465,234.158L1667.465,234.165C1670.697,234.322 1673.272,236.995 1673.272,240.265C1673.272,243.535 1670.697,246.208 1667.465,246.365L1667.465,246.372C1667.465,246.372 1667.166,246.372 1667.165,246.372L1497.33,246.372L1497.33,356.237C1497.33,356.377 1497.327,356.513 1497.32,356.647C1497.325,356.754 1497.328,356.862 1497.328,356.97C1497.328,360.722 1494.282,363.768 1490.53,363.768C1486.778,363.768 1483.732,360.722 1483.732,356.97C1483.732,356.827 1483.737,356.684 1483.746,356.543ZM1427.99,354.705C1443.1,354.705 1456.09,349.871 1466.97,340.203C1478.15,330.535 1483.74,316.637 1483.74,298.509L1483.74,248.205C1483.74,246.997 1483.13,246.392 1481.92,246.392L1442.04,246.392C1424.22,246.392 1409.203,252.194 1398.623,262.165C1388.053,272.135 1383.58,284.337 1383.58,303.673C1383.58,320.29 1387.66,334.311 1395.82,342.469C1403.97,350.626 1414.7,354.705 1427.99,354.705ZM510.826,301.681L510.826,198.807C510.826,179.773 516.567,164.063 528.047,151.675C539.83,139.288 554.937,133.095 573.366,133.095C585.451,133.095 596.177,135.814 605.543,141.252C615.211,146.388 622.613,153.337 627.749,162.099C633.188,170.861 635.907,180.226 635.907,190.197L635.907,191.556C635.907,191.637 635.906,191.716 635.904,191.795C635.906,191.859 635.906,191.923 635.906,191.987C635.906,195.725 632.871,198.76 629.133,198.76C625.653,198.76 622.782,196.13 622.402,192.751C622.341,192.383 622.311,191.985 622.311,191.556L622.311,190.197C622.311,178.414 617.628,168.141 608.262,159.38C599.198,150.316 587.566,145.784 573.366,145.784C558.864,145.784 547.081,150.769 538.018,160.739C528.954,170.407 524.422,183.097 524.422,198.807L524.422,301.681C524.422,317.392 528.954,330.232 538.018,340.203C547.081,349.871 558.864,354.705 573.366,354.705C587.566,354.705 599.198,350.324 608.262,341.562C617.628,332.498 622.311,322.075 622.311,310.292L622.311,308.932C622.311,308.445 622.35,307.997 622.429,307.589C622.9,304.31 625.724,301.787 629.133,301.787C632.871,301.787 635.906,304.822 635.906,308.56C635.906,308.614 635.906,308.669 635.905,308.723C635.906,308.792 635.907,308.861 635.907,308.932L635.907,310.292C635.907,320.262 633.188,329.628 627.749,338.39C622.613,347.152 615.211,354.251 605.543,359.69C596.177,364.826 585.451,367.394 573.366,367.394C554.937,367.394 539.83,361.351 528.047,349.266C516.567,336.879 510.826,321.018 510.826,301.681ZM1319.683,356.846C1319.681,356.756 1319.68,356.665 1319.68,356.572L1319.68,7.197C1319.68,7.104 1319.681,7.012 1319.683,6.922C1319.683,6.881 1319.682,6.839 1319.682,6.798C1319.682,3.046 1322.728,0 1326.48,0C1330.232,0 1333.278,3.046 1333.278,6.798C1333.278,6.839 1333.278,6.881 1333.277,6.922C1333.279,7.012 1333.28,7.104 1333.28,7.197L1333.28,356.572C1333.28,356.665 1333.279,356.756 1333.277,356.847C1333.278,356.888 1333.278,356.929 1333.278,356.97C1333.278,360.722 1330.232,363.768 1326.48,363.768C1322.728,363.768 1319.682,360.722 1319.682,356.97C1319.682,356.929 1319.683,356.887 1319.683,356.846ZM1261.233,356.847C1261.231,356.756 1261.23,356.665 1261.23,356.572L1261.23,7.197C1261.23,7.104 1261.231,7.012 1261.233,6.922C1261.233,6.881 1261.232,6.839 1261.232,6.798C1261.232,3.046 1264.278,0 1268.03,0C1271.782,0 1274.828,3.046 1274.828,6.798C1274.828,6.839 1274.828,6.881 1274.827,6.922C1274.829,7.012 1274.83,7.104 1274.83,7.197L1274.83,356.572C1274.83,356.665 1274.829,356.756 1274.827,356.847C1274.828,356.888 1274.828,356.929 1274.828,356.97C1274.828,360.722 1271.782,363.768 1268.03,363.768C1264.278,363.768 1261.232,360.722 1261.232,356.97C1261.232,356.929 1261.233,356.888 1261.233,356.847ZM1220.368,319.271C1220.375,319.305 1220.376,319.339 1220.37,319.371C1217.48,333.541 1210.62,345.017 1199.79,353.798C1188.91,362.862 1175.62,367.394 1159.91,367.394C1141.48,367.394 1126.37,361.351 1114.59,349.266C1103.11,336.879 1097.37,321.018 1097.37,301.681L1097.37,198.807C1097.37,179.773 1103.11,164.063 1114.59,151.675C1126.37,139.288 1141.48,133.095 1159.91,133.095C1178.34,133.095 1193.29,139.288 1204.77,151.675C1216.56,164.063 1222.45,179.773 1222.45,198.807L1222.45,248.658C1222.45,251.679 1220.94,253.19 1217.92,253.19L1112.78,253.19C1111.57,253.19 1110.96,253.794 1110.96,255.003L1110.96,301.681C1110.96,317.392 1115.5,330.232 1124.56,340.203C1133.62,349.871 1145.41,354.705 1159.91,354.705C1171.69,354.705 1181.81,351.23 1190.27,344.281C1198.73,337.332 1204.32,328.118 1207.04,316.637C1207.073,316.539 1207.107,316.443 1207.141,316.349C1207.867,313.39 1210.539,311.193 1213.72,311.193C1217.458,311.193 1220.494,314.228 1220.494,317.966C1220.494,318.412 1220.45,318.849 1220.368,319.271ZM1159.91,145.784C1145.41,145.784 1133.62,150.769 1124.56,160.739C1115.5,170.407 1110.96,183.097 1110.96,198.807L1110.96,239.594C1110.96,240.803 1111.57,241.407 1112.78,241.407L1207.04,241.407C1208.25,241.407 1208.85,240.803 1208.85,239.594L1208.85,198.807C1208.85,183.097 1204.32,170.407 1195.26,160.739C1186.19,150.769 1174.41,145.784 1159.91,145.784ZM791.339,319.754C788.405,333.748 781.572,345.096 770.839,353.798C759.962,362.862 746.669,367.394 730.958,367.394C712.528,367.394 697.422,361.351 685.639,349.266C674.158,336.879 668.418,321.018 668.418,301.681L668.418,198.807C668.418,179.773 674.158,164.063 685.639,151.675C697.422,139.288 712.528,133.095 730.958,133.095C749.388,133.095 764.343,139.288 775.824,151.675C787.607,164.063 793.498,179.773 793.498,198.807L793.498,248.658C793.498,251.679 791.988,253.19 788.966,253.19L683.826,253.19C682.618,253.19 682.014,253.794 682.014,255.003L682.014,301.681C682.014,317.392 686.545,330.232 695.609,340.203C704.673,349.871 716.456,354.705 730.958,354.705C742.741,354.705 752.862,351.23 761.322,344.281C769.781,337.332 775.371,328.118 778.09,316.637C778.159,316.431 778.232,316.232 778.309,316.041C779.14,313.239 781.735,311.193 784.805,311.193C788.543,311.193 791.578,314.228 791.578,317.966C791.578,318.585 791.495,319.185 791.339,319.754ZM730.958,145.784C716.456,145.784 704.673,150.769 695.609,160.739C686.545,170.407 682.014,183.097 682.014,198.807L682.014,239.594C682.014,240.803 682.618,241.407 683.826,241.407L778.09,241.407C779.298,241.407 779.903,240.803 779.903,239.594L779.903,198.807C779.903,183.097 775.371,170.407 766.307,160.739C757.243,150.769 745.46,145.784 730.958,145.784Z"/>
                        </g>
                    </g>
                    <g transform="matrix(6.204304,0,0,6.204304,183.559332,336.999532)">
                        <path d="M58.858,79.024L47.099,58.702L47.076,58.661L47.065,58.643C46.912,58.376 46.87,58.058 46.949,57.76C47.028,57.462 47.221,57.207 47.485,57.053C48.036,56.732 48.741,56.924 49.059,57.481L49.07,57.499C49.078,57.512 49.086,57.526 49.093,57.539L60.668,77.541L60.668,34.431C60.668,33.688 61.264,33.085 61.998,33.085C62.733,33.085 63.328,33.688 63.329,34.431L63.329,77.562C63.329,77.562 106.218,1.698 106.226,1.685C106.226,1.701 108.955,1.735 108.911,1.728C108.904,1.742 108.919,1.715 108.911,1.728L65.412,78.572L106.333,54.694C106.346,54.686 106.36,54.678 106.373,54.671L106.391,54.66C106.943,54.339 107.649,54.529 107.966,55.084C108.284,55.64 108.094,56.352 107.543,56.673L107.524,56.684L107.484,56.708L65.981,80.925L109.066,81C109.082,81 109.051,81 109.066,81C109.703,81 110.066,81.858 110.066,82.5C110.066,83.142 109.703,83.5 109.066,83.5C109.05,83.5 109.082,83.5 109.066,83.5L66.088,83.25L100.551,103.352C100.564,103.36 100.578,103.368 100.591,103.376L100.609,103.387C101.161,103.708 101.35,104.42 101.033,104.976C100.715,105.531 100.009,105.721 99.458,105.4L99.44,105.389C99.426,105.382 99.412,105.374 99.399,105.366L65.239,85.441L85.224,120.16C85.232,120.174 85.239,120.187 85.247,120.201L85.257,120.219C85.41,120.486 85.452,120.804 85.373,121.102C85.294,121.401 85.102,121.655 84.837,121.809C84.286,122.13 83.582,121.938 83.263,121.381L83.253,121.363C83.245,121.35 83.237,121.336 83.229,121.322L63.329,86.75L63.329,144.436C63.328,145.179 62.733,145.781 61.998,145.782C61.264,145.781 60.668,145.179 60.668,144.436L60.668,86.835L7.838,175.592C7.83,175.605 7.928,171.305 7.928,171.305L59.104,84.922L24.111,105.251C24.098,105.259 24.084,105.267 24.071,105.274L24.053,105.285C23.501,105.606 22.795,105.416 22.477,104.861C22.16,104.305 22.349,103.593 22.901,103.271L22.919,103.261C22.932,103.253 22.946,103.245 22.959,103.237L57.363,83.25L32.109,83.25C32.093,83.25 32.078,83.25 32.063,83.249L32.042,83.25C31.405,83.25 30.888,82.729 30.888,82.087C30.888,81.446 31.405,80.925 32.042,80.925L57.513,80.925L15.944,56.626L15.904,56.602L15.885,56.592C15.334,56.27 15.144,55.558 15.462,55.003C15.779,54.447 16.485,54.257 17.037,54.578L17.055,54.589C17.068,54.597 17.082,54.604 17.095,54.612L58.858,79.024Z"/>
                    </g>
                </g>
                <g transform="matrix(0.499406,0,0,0.251172,-311.437631,137.679956)">
                    <path d="M1754.856,1489.93C1751.864,1489.93 1749.423,1488.416 1747.534,1485.388C1745.644,1482.36 1744.699,1478.448 1744.699,1473.654C1744.699,1469.112 1745.644,1465.327 1747.534,1462.299C1749.423,1459.271 1751.864,1457.757 1754.856,1457.757C1757.69,1457.757 1760.052,1459.271 1761.942,1462.299C1763.831,1465.327 1764.776,1469.112 1764.776,1473.654C1764.776,1478.448 1763.831,1482.36 1761.942,1485.388C1760.052,1488.416 1757.69,1489.93 1754.856,1489.93ZM1753.675,1721.952C1752.1,1721.952 1751.313,1720.69 1751.313,1718.167L1751.313,1536.107C1751.313,1533.584 1752.1,1532.322 1753.675,1532.322L1756.037,1532.322C1757.611,1532.322 1758.399,1533.584 1758.399,1536.107L1758.399,1718.167C1758.399,1720.69 1757.611,1721.952 1756.037,1721.952L1753.675,1721.952Z" style="fill-rule:nonzero;"/>
                    <path d="M1877.441,1529.673C1885.944,1529.673 1892.793,1535.161 1897.99,1546.137C1903.186,1557.114 1905.784,1571.939 1905.784,1590.611L1905.784,1718.167C1905.784,1720.69 1904.997,1721.952 1903.422,1721.952L1901.296,1721.952C1899.722,1721.952 1898.934,1720.69 1898.934,1718.167L1898.934,1591.747C1898.934,1576.102 1896.769,1563.612 1892.439,1554.275C1888.109,1544.939 1882.48,1540.271 1875.551,1540.271C1868.308,1540.271 1862.482,1544.876 1858.073,1554.086C1853.664,1563.296 1851.459,1575.724 1851.459,1591.368L1851.459,1718.167C1851.459,1720.69 1850.672,1721.952 1849.097,1721.952L1846.735,1721.952C1845.161,1721.952 1844.373,1720.69 1844.373,1718.167L1844.373,1591.747C1844.373,1576.102 1842.248,1563.612 1837.996,1554.275C1833.745,1544.939 1828.233,1540.271 1821.463,1540.271C1814.062,1540.271 1808.157,1544.813 1803.748,1553.897C1799.339,1562.981 1797.135,1575.471 1797.135,1591.368L1797.135,1718.167C1797.135,1720.69 1796.347,1721.952 1794.773,1721.952L1792.411,1721.952C1790.836,1721.952 1790.049,1720.69 1790.049,1718.167L1790.049,1536.107C1790.049,1533.584 1790.836,1532.322 1792.411,1532.322L1794.773,1532.322C1796.347,1532.322 1797.135,1533.584 1797.135,1536.107L1797.135,1553.14C1797.135,1553.897 1797.292,1554.338 1797.607,1554.464C1797.922,1554.591 1798.158,1554.275 1798.315,1553.518C1800.835,1545.948 1804.299,1540.081 1808.708,1535.918C1813.117,1531.754 1817.92,1529.673 1823.116,1529.673C1829.257,1529.673 1834.532,1532.448 1838.941,1538C1843.35,1543.551 1846.657,1551.499 1848.861,1561.845C1849.176,1563.359 1849.57,1563.233 1850.042,1561.467C1852.404,1550.869 1855.986,1542.92 1860.789,1537.621C1865.592,1532.322 1871.142,1529.673 1877.441,1529.673Z" style="fill-rule:nonzero;"/>
                    <path d="M1968.139,1529.294C1977.587,1529.294 1985.224,1534.404 1991.05,1544.623C1996.876,1554.843 1999.79,1568.027 1999.79,1584.177L1999.79,1670.097C1999.79,1686.246 1996.876,1699.431 1991.05,1709.651C1985.224,1719.87 1977.587,1724.98 1968.139,1724.98C1962.786,1724.98 1957.983,1723.087 1953.732,1719.302C1949.48,1715.517 1946.016,1710.218 1943.339,1703.405C1943.024,1702.901 1942.749,1702.648 1942.512,1702.648C1942.276,1702.648 1942.158,1703.027 1942.158,1703.784L1942.158,1793.489C1942.158,1796.012 1941.371,1797.274 1939.796,1797.274L1937.434,1797.274C1935.86,1797.274 1935.072,1796.012 1935.072,1793.489L1935.072,1536.107C1935.072,1533.584 1935.86,1532.322 1937.434,1532.322L1939.796,1532.322C1941.371,1532.322 1942.158,1533.584 1942.158,1536.107L1942.158,1550.49C1942.158,1551.247 1942.276,1551.689 1942.512,1551.815C1942.749,1551.941 1942.945,1551.626 1943.103,1550.869C1945.78,1544.056 1949.283,1538.757 1953.614,1534.972C1957.944,1531.187 1962.786,1529.294 1968.139,1529.294ZM1992.94,1584.177C1992.94,1571.055 1990.499,1560.394 1985.618,1552.193C1980.737,1543.993 1974.517,1539.892 1966.959,1539.892C1959.715,1539.892 1953.771,1543.993 1949.126,1552.193C1944.481,1560.394 1942.158,1571.055 1942.158,1584.177L1942.158,1670.097C1942.158,1683.218 1944.481,1693.88 1949.126,1702.08C1953.771,1710.281 1959.715,1714.382 1966.959,1714.382C1974.517,1714.382 1980.737,1710.281 1985.618,1702.08C1990.499,1693.88 1992.94,1683.218 1992.94,1670.097L1992.94,1584.177Z" style="fill-rule:nonzero;"/>
                    <path d="M2054.823,1529.294C2064.901,1529.294 2072.695,1534.972 2078.206,1546.327C2083.717,1557.682 2086.473,1572.948 2086.473,1592.125L2086.473,1718.167C2086.473,1720.69 2085.686,1721.952 2084.111,1721.952L2081.749,1721.952C2080.174,1721.952 2079.387,1720.69 2079.387,1718.167L2079.387,1701.134C2079.387,1700.377 2079.23,1699.936 2078.915,1699.809C2078.6,1699.683 2078.364,1699.999 2078.206,1700.756C2075.214,1708.83 2071.199,1714.886 2066.16,1718.924C2061.121,1722.961 2055.532,1724.98 2049.39,1724.98C2041.202,1724.98 2034.274,1721.132 2028.605,1713.436C2022.937,1705.739 2020.102,1692.429 2020.102,1673.504C2020.102,1653.317 2023.488,1638.303 2030.259,1628.462C2037.03,1618.621 2046.084,1613.7 2057.421,1613.7L2078.442,1613.7C2079.072,1613.7 2079.387,1613.195 2079.387,1612.186L2079.387,1591.368C2079.387,1575.724 2077.261,1563.233 2073.01,1553.897C2068.758,1544.56 2062.617,1539.892 2054.587,1539.892C2048.288,1539.892 2042.777,1542.983 2038.053,1549.165C2033.329,1555.348 2030.652,1563.359 2030.022,1573.2C2030.022,1575.471 2029.235,1576.607 2027.661,1576.607L2025.062,1576.228C2024.275,1576.228 2023.685,1575.85 2023.291,1575.093C2022.897,1574.336 2022.779,1573.326 2022.937,1572.065C2023.881,1559.196 2027.385,1548.85 2033.447,1541.028C2039.51,1533.205 2046.635,1529.294 2054.823,1529.294ZM2050.335,1714.382C2058.208,1714.382 2065.019,1710.344 2070.766,1702.27C2076.513,1694.195 2079.387,1682.588 2079.387,1667.447L2079.387,1625.434C2079.387,1624.424 2079.072,1623.92 2078.442,1623.92L2057.657,1623.92C2048.367,1623.92 2040.966,1628.083 2035.455,1636.41C2029.944,1644.737 2027.188,1656.976 2027.188,1673.125C2027.188,1687.003 2029.314,1697.349 2033.565,1704.162C2037.817,1710.975 2043.407,1714.382 2050.335,1714.382Z" style="fill-rule:nonzero;"/>
                    <path d="M2141.979,1724.98C2132.374,1724.98 2124.54,1719.87 2118.477,1709.651C2112.415,1699.431 2109.384,1686.246 2109.384,1670.097L2109.384,1584.177C2109.384,1568.28 2112.415,1555.158 2118.477,1544.813C2124.54,1534.467 2132.374,1529.294 2141.979,1529.294C2148.277,1529.294 2153.907,1531.502 2158.867,1535.918C2163.827,1540.334 2167.685,1546.2 2170.44,1553.518C2173.196,1560.836 2174.574,1568.658 2174.574,1576.985L2174.574,1578.121C2174.574,1580.644 2173.786,1581.906 2172.212,1581.906L2169.85,1581.906C2168.275,1581.906 2167.488,1580.644 2167.488,1578.121L2167.488,1576.985C2167.488,1567.144 2165.086,1558.502 2160.284,1551.058C2155.481,1543.614 2149.38,1539.892 2141.979,1539.892C2134.421,1539.892 2128.279,1543.993 2123.556,1552.193C2118.832,1560.394 2116.47,1571.055 2116.47,1584.177L2116.47,1670.097C2116.47,1683.218 2118.832,1693.88 2123.556,1702.08C2128.279,1710.281 2134.421,1714.382 2141.979,1714.382C2149.38,1714.382 2155.481,1710.66 2160.284,1703.216C2165.086,1695.772 2167.488,1687.13 2167.488,1677.289L2167.488,1676.153C2167.488,1673.63 2168.275,1672.368 2169.85,1672.368L2172.212,1672.368C2173.786,1672.368 2174.574,1673.63 2174.574,1676.153L2174.574,1677.289C2174.574,1685.616 2173.196,1693.438 2170.44,1700.756C2167.685,1708.073 2163.827,1713.94 2158.867,1718.356C2153.907,1722.772 2148.277,1724.98 2141.979,1724.98Z" style="fill-rule:nonzero;"/>
                    <path d="M2231.497,1538.378C2231.497,1540.901 2230.709,1542.163 2229.135,1542.163L2209.058,1542.163C2208.428,1542.163 2208.113,1542.668 2208.113,1543.677L2208.113,1674.261C2208.113,1688.139 2209.57,1697.791 2212.483,1703.216C2215.396,1708.641 2220.002,1711.354 2226.3,1711.354L2228.898,1711.354C2230.473,1711.354 2231.26,1712.615 2231.26,1715.139L2231.26,1718.167C2231.26,1720.69 2230.473,1721.952 2228.898,1721.952L2225.355,1721.952C2217.325,1721.952 2211.223,1718.608 2207.05,1711.922C2202.878,1705.235 2200.791,1692.933 2200.791,1675.018L2200.791,1543.677C2200.791,1542.668 2200.476,1542.163 2199.846,1542.163L2190.162,1542.163C2188.588,1542.163 2187.801,1540.901 2187.801,1538.378L2187.801,1536.107C2187.801,1533.584 2188.588,1532.322 2190.162,1532.322L2199.846,1532.322C2200.476,1532.322 2200.791,1531.817 2200.791,1530.808L2200.791,1488.416C2200.791,1485.892 2201.579,1484.631 2203.153,1484.631L2205.751,1484.631C2207.326,1484.631 2208.113,1485.892 2208.113,1488.416L2208.113,1530.808C2208.113,1531.817 2208.428,1532.322 2209.058,1532.322L2229.135,1532.322C2230.709,1532.322 2231.497,1533.584 2231.497,1536.107L2231.497,1538.378Z" style="fill-rule:nonzero;"/>
                </g>
            </g>
        </g>
    </g>
</svg>
